%FSLAX46Y46*%
G04 Gerber Fmt 4.6, Leading zero omitted, Abs format (unit mm)*
G04 Created by KiCad (PCBNEW (2014-08-29 BZR 5106)-product) date tor 20 aug 2015 00:56:35*
%MOMM*%
G01*
G04 APERTURE LIST*
%ADD10C,0.100000*%
%ADD11C,1.700000*%
%ADD12R,1.200000X0.750000*%
%ADD13R,0.750000X1.200000*%
%ADD14R,1.500000X1.300000*%
%ADD15R,0.900000X1.200000*%
%ADD16R,2.200000X0.700000*%
%ADD17R,0.600000X1.100000*%
%ADD18R,2.540000X2.540000*%
%ADD19R,0.914400X0.914400*%
%ADD20R,1.200000X0.900000*%
%ADD21C,0.762000*%
%ADD22C,0.406400*%
%ADD23C,0.203200*%
%ADD24C,0.254000*%
G04 APERTURE END LIST*
D10*
D11*
X229346760Y-47821640D03*
X231886760Y-47821640D03*
X226806760Y-47821640D03*
X220346760Y-54321640D03*
X220346760Y-56821640D03*
X220346760Y-59321640D03*
D12*
X238440000Y-86614000D03*
X236540000Y-86614000D03*
D13*
X234061000Y-82997000D03*
X234061000Y-84897000D03*
X232664000Y-84897000D03*
X232664000Y-82997000D03*
X222377000Y-56576000D03*
X222377000Y-54676000D03*
X221996000Y-84897000D03*
X221996000Y-82997000D03*
D12*
X225232000Y-86614000D03*
X223332000Y-86614000D03*
D14*
X229155000Y-81026000D03*
X231855000Y-81026000D03*
D15*
X226949000Y-84920000D03*
X226949000Y-82720000D03*
D16*
X224672000Y-55036000D03*
X224672000Y-56306000D03*
X224672000Y-57576000D03*
X224672000Y-58846000D03*
X224672000Y-60116000D03*
X224672000Y-61386000D03*
X224672000Y-62656000D03*
X224672000Y-63926000D03*
D17*
X225359000Y-82547000D03*
X223459000Y-82547000D03*
X225359000Y-85347000D03*
X224409000Y-82547000D03*
X223459000Y-85347000D03*
X229047000Y-85347000D03*
X230947000Y-85347000D03*
X229047000Y-82547000D03*
X229997000Y-85347000D03*
X230947000Y-82547000D03*
D18*
X219964000Y-89154000D03*
X229870000Y-89154000D03*
X223266000Y-89154000D03*
X235712000Y-89154000D03*
X239014000Y-89154000D03*
X226568000Y-89154000D03*
D19*
X225425000Y-52197000D03*
X225425000Y-50419000D03*
X227457000Y-51308000D03*
X232791000Y-52070000D03*
X232791000Y-50292000D03*
X234823000Y-51181000D03*
D20*
X236558000Y-48641000D03*
X234358000Y-48641000D03*
D15*
X231140000Y-50208000D03*
X231140000Y-52408000D03*
X229362000Y-52408000D03*
X229362000Y-50208000D03*
D21*
X231521000Y-85979000D03*
X228092000Y-85852000D03*
X229616000Y-55880000D03*
X218567000Y-55245000D03*
X222504000Y-75057000D03*
X223393000Y-76454000D03*
X217424000Y-87757000D03*
X230251000Y-87122000D03*
X237236000Y-83693000D03*
X217424000Y-73660000D03*
X241427000Y-51943000D03*
X238506000Y-78613000D03*
X241427000Y-49530000D03*
X237363000Y-78613000D03*
X237617000Y-66675000D03*
X242062000Y-82042000D03*
X240284000Y-76835000D03*
X231521000Y-65659000D03*
X237236000Y-81788000D03*
X239141000Y-82804000D03*
X233553000Y-88392000D03*
X217805000Y-76073000D03*
X219014040Y-79314040D03*
X217551000Y-84455000D03*
X220913960Y-79314040D03*
X219014040Y-81213960D03*
X220913960Y-81213960D03*
X226314000Y-82423000D03*
X227457000Y-54229000D03*
X228092000Y-58039000D03*
X222885000Y-68072000D03*
X221107000Y-69596000D03*
X229997000Y-69977000D03*
X231521000Y-70485000D03*
X235712000Y-80137000D03*
X235077000Y-79248000D03*
X234188000Y-78613000D03*
X232664000Y-70612000D03*
X225298000Y-78994000D03*
X239141000Y-81788000D03*
X224536000Y-78486000D03*
X239014000Y-80518000D03*
X235077000Y-82804000D03*
X225298000Y-70739000D03*
X218313000Y-86868000D03*
X222123000Y-87376000D03*
X226441000Y-87376000D03*
X225679000Y-81280000D03*
X223901000Y-72644000D03*
X224536000Y-69977000D03*
X224028000Y-50546000D03*
X228727000Y-54483000D03*
X241935000Y-80518000D03*
X230632000Y-54864000D03*
X224155000Y-65659000D03*
X232791000Y-77597000D03*
D22*
X238440000Y-86614000D02*
X238440000Y-83500000D01*
X238440000Y-83500000D02*
X237617000Y-82677000D01*
X237617000Y-82677000D02*
X236855000Y-82677000D01*
X236855000Y-82677000D02*
X235966000Y-83566000D01*
X235966000Y-83566000D02*
X235966000Y-84709000D01*
X235966000Y-84709000D02*
X234188000Y-86487000D01*
X234188000Y-86487000D02*
X232029000Y-86487000D01*
X232029000Y-86487000D02*
X231521000Y-85979000D01*
X229047000Y-85347000D02*
X228597000Y-85347000D01*
X231521000Y-85979000D02*
X230947000Y-85405000D01*
X228597000Y-85347000D02*
X228092000Y-85852000D01*
X230947000Y-85405000D02*
X230947000Y-85347000D01*
X223459000Y-82547000D02*
X223459000Y-80960000D01*
X228349000Y-85347000D02*
X229047000Y-85347000D01*
X228092000Y-85090000D02*
X228349000Y-85347000D01*
X228092000Y-81915000D02*
X228092000Y-85090000D01*
X226568000Y-80391000D02*
X228092000Y-81915000D01*
X224028000Y-80391000D02*
X226568000Y-80391000D01*
X223459000Y-80960000D02*
X224028000Y-80391000D01*
X239014000Y-89154000D02*
X239014000Y-87188000D01*
X239014000Y-87188000D02*
X238440000Y-86614000D01*
D23*
X236558000Y-51097000D02*
X236558000Y-48641000D01*
X235585000Y-52070000D02*
X236558000Y-51097000D01*
X232791000Y-52070000D02*
X235585000Y-52070000D01*
X232791000Y-54356000D02*
X232791000Y-52070000D01*
X231140000Y-56007000D02*
X232791000Y-54356000D01*
X229743000Y-56007000D02*
X231140000Y-56007000D01*
X229616000Y-55880000D02*
X229743000Y-56007000D01*
X218567000Y-60325000D02*
X218567000Y-55245000D01*
X219837000Y-61595000D02*
X218567000Y-60325000D01*
X219837000Y-69723000D02*
X219837000Y-61595000D01*
X218186000Y-71374000D02*
X219837000Y-69723000D01*
X218186000Y-73914000D02*
X218186000Y-71374000D01*
X219710000Y-75438000D02*
X218186000Y-73914000D01*
X222123000Y-75438000D02*
X219710000Y-75438000D01*
X222504000Y-75057000D02*
X222123000Y-75438000D01*
X223393000Y-77216000D02*
X223393000Y-76454000D01*
X222885000Y-77724000D02*
X223393000Y-77216000D01*
X222885000Y-79756000D02*
X222885000Y-77724000D01*
X223520000Y-80391000D02*
X222885000Y-79756000D01*
X224028000Y-80391000D02*
X223520000Y-80391000D01*
X217424000Y-87757000D02*
X216408000Y-86741000D01*
X237236000Y-84328000D02*
X237236000Y-83693000D01*
X234442000Y-87122000D02*
X237236000Y-84328000D01*
X230251000Y-87122000D02*
X234442000Y-87122000D01*
X216408000Y-74676000D02*
X216408000Y-86741000D01*
X217424000Y-73660000D02*
X216408000Y-74676000D01*
X235077000Y-54737000D02*
X236982000Y-52832000D01*
X239204500Y-69659500D02*
X241046000Y-71501000D01*
X235077000Y-63627000D02*
X236347000Y-64897000D01*
X235077000Y-63627000D02*
X235077000Y-54737000D01*
X241046000Y-74041000D02*
X241046000Y-71501000D01*
X238760000Y-76327000D02*
X241046000Y-74041000D01*
X238760000Y-78359000D02*
X238760000Y-76327000D01*
X238506000Y-78613000D02*
X238760000Y-78359000D01*
X238379000Y-64897000D02*
X236347000Y-64897000D01*
X239204500Y-65722500D02*
X238379000Y-64897000D01*
X239204500Y-69659500D02*
X239204500Y-65722500D01*
X237871000Y-51943000D02*
X236982000Y-52832000D01*
X241427000Y-51943000D02*
X237871000Y-51943000D01*
X236220000Y-65532000D02*
X234569000Y-63881000D01*
X240538000Y-71628000D02*
X238506000Y-69596000D01*
X234569000Y-54483000D02*
X236728000Y-52324000D01*
X234569000Y-63881000D02*
X234569000Y-54483000D01*
X240538000Y-73787000D02*
X240538000Y-71628000D01*
X238125000Y-76200000D02*
X240538000Y-73787000D01*
X238125000Y-77851000D02*
X238125000Y-76200000D01*
X237363000Y-78613000D02*
X238125000Y-77851000D01*
X237998000Y-65532000D02*
X236220000Y-65532000D01*
X238506000Y-66040000D02*
X237998000Y-65532000D01*
X238506000Y-69596000D02*
X238506000Y-66040000D01*
X239522000Y-49530000D02*
X236728000Y-52324000D01*
X241427000Y-49530000D02*
X239522000Y-49530000D01*
D22*
X220346760Y-54321640D02*
X219548640Y-54321640D01*
X219548640Y-54321640D02*
X218059000Y-52832000D01*
X230039120Y-45974000D02*
X232283000Y-48217880D01*
X221234000Y-45974000D02*
X230039120Y-45974000D01*
X218059000Y-49149000D02*
X221234000Y-45974000D01*
X218059000Y-52832000D02*
X218059000Y-49149000D01*
D23*
X237045500Y-66103500D02*
X237617000Y-66675000D01*
X236601000Y-66103500D02*
X237045500Y-66103500D01*
X232337400Y-47371000D02*
X231886760Y-47821640D01*
X237363000Y-47371000D02*
X232337400Y-47371000D01*
X237998000Y-48006000D02*
X237363000Y-47371000D01*
X237998000Y-50419000D02*
X237998000Y-48006000D01*
X234061000Y-54356000D02*
X237998000Y-50419000D01*
X234061000Y-64262000D02*
X234061000Y-54356000D01*
X235902500Y-66103500D02*
X234061000Y-64262000D01*
X236601000Y-66103500D02*
X235902500Y-66103500D01*
D24*
X242062000Y-82042000D02*
X240284000Y-80264000D01*
X240284000Y-80264000D02*
X240284000Y-76835000D01*
X237871000Y-81788000D02*
X237236000Y-81788000D01*
X238760000Y-82677000D02*
X237871000Y-81788000D01*
X239014000Y-82677000D02*
X238760000Y-82677000D01*
X239141000Y-82804000D02*
X239014000Y-82677000D01*
X233553000Y-88392000D02*
X233172000Y-88773000D01*
X233172000Y-88773000D02*
X233172000Y-89154000D01*
D22*
X219014040Y-79314040D02*
X219014040Y-77282040D01*
X219014040Y-77282040D02*
X217805000Y-76073000D01*
X220913960Y-79314040D02*
X219014040Y-79314040D01*
X220913960Y-81213960D02*
X220913960Y-79314040D01*
X229870000Y-89154000D02*
X233172000Y-89154000D01*
X233172000Y-89154000D02*
X235712000Y-89154000D01*
X221996000Y-82997000D02*
X221996000Y-82296000D01*
X221996000Y-82296000D02*
X220913960Y-81213960D01*
D23*
X217805000Y-76073000D02*
X219014040Y-77282040D01*
X219014040Y-77282040D02*
X219014040Y-79314040D01*
X217551000Y-84455000D02*
X219014040Y-82991960D01*
X219014040Y-82991960D02*
X219014040Y-81213960D01*
D22*
X228092000Y-86614000D02*
X229489000Y-86614000D01*
X229489000Y-86614000D02*
X229997000Y-86106000D01*
X229997000Y-86106000D02*
X229997000Y-85347000D01*
X228092000Y-86614000D02*
X228854000Y-87376000D01*
X228854000Y-87376000D02*
X228854000Y-88138000D01*
X228854000Y-88138000D02*
X229870000Y-89154000D01*
D23*
X219014040Y-81213960D02*
X220913960Y-81213960D01*
X219014040Y-81213960D02*
X219014040Y-79314040D01*
X220913960Y-81213960D02*
X220913960Y-79314040D01*
X219014040Y-79314040D02*
X220913960Y-79314040D01*
D24*
X226314000Y-82423000D02*
X226611000Y-82720000D01*
X226611000Y-82720000D02*
X226949000Y-82720000D01*
D22*
X229997000Y-85347000D02*
X229997000Y-84328000D01*
X231521000Y-83947000D02*
X232471000Y-84897000D01*
X230378000Y-83947000D02*
X231521000Y-83947000D01*
X229997000Y-84328000D02*
X230378000Y-83947000D01*
X232471000Y-84897000D02*
X232664000Y-84897000D01*
X234061000Y-84897000D02*
X232664000Y-84897000D01*
X226738000Y-82720000D02*
X226949000Y-82720000D01*
X235712000Y-89154000D02*
X235712000Y-87442000D01*
X235712000Y-87442000D02*
X236540000Y-86614000D01*
X221996000Y-82997000D02*
X221996000Y-83312000D01*
X221996000Y-83312000D02*
X222504000Y-83820000D01*
X222504000Y-83820000D02*
X224282000Y-83820000D01*
X226949000Y-82720000D02*
X226949000Y-83058000D01*
X226949000Y-83058000D02*
X226187000Y-83820000D01*
X226187000Y-83820000D02*
X224409000Y-83820000D01*
X224409000Y-83820000D02*
X224282000Y-83820000D01*
X224282000Y-83820000D02*
X224409000Y-83820000D01*
X224409000Y-82547000D02*
X224409000Y-83820000D01*
X224409000Y-83820000D02*
X224409000Y-85979000D01*
X224409000Y-85979000D02*
X225044000Y-86614000D01*
X225044000Y-86614000D02*
X225232000Y-86614000D01*
X225232000Y-86614000D02*
X228092000Y-86614000D01*
D24*
X222647000Y-56306000D02*
X222377000Y-56576000D01*
X224672000Y-56306000D02*
X222647000Y-56306000D01*
X226269000Y-56306000D02*
X227457000Y-55118000D01*
X227457000Y-55118000D02*
X227457000Y-54229000D01*
X224672000Y-56306000D02*
X226269000Y-56306000D01*
X228854000Y-58801000D02*
X228092000Y-58039000D01*
X228854000Y-63500000D02*
X228854000Y-58801000D01*
X231013000Y-65659000D02*
X228854000Y-63500000D01*
X231521000Y-65659000D02*
X231013000Y-65659000D01*
X227457000Y-57404000D02*
X227457000Y-55118000D01*
X228092000Y-58039000D02*
X227457000Y-57404000D01*
X222504000Y-69596000D02*
X221107000Y-69596000D01*
X222885000Y-69215000D02*
X222504000Y-69596000D01*
X222885000Y-68072000D02*
X222885000Y-69215000D01*
D23*
X225552000Y-52324000D02*
X225425000Y-52197000D01*
X228219000Y-52324000D02*
X225552000Y-52324000D01*
X228346000Y-52197000D02*
X228219000Y-52324000D01*
X228346000Y-50800000D02*
X228346000Y-52197000D01*
X228938000Y-50208000D02*
X228346000Y-50800000D01*
X229362000Y-50208000D02*
X228938000Y-50208000D01*
X227457000Y-53086000D02*
X228219000Y-52324000D01*
X227457000Y-54229000D02*
X227457000Y-53086000D01*
X224917000Y-64171000D02*
X224672000Y-63926000D01*
X224917000Y-64897000D02*
X224917000Y-64171000D01*
X229997000Y-69977000D02*
X224917000Y-64897000D01*
X225851000Y-62656000D02*
X226314000Y-63119000D01*
X226314000Y-63119000D02*
X226314000Y-65278000D01*
X224672000Y-62656000D02*
X225851000Y-62656000D01*
X231521000Y-70485000D02*
X226314000Y-65278000D01*
X226486000Y-57576000D02*
X228346000Y-59436000D01*
X228346000Y-59436000D02*
X228346000Y-63754000D01*
X228346000Y-63754000D02*
X234696000Y-70104000D01*
X224672000Y-57576000D02*
X226486000Y-57576000D01*
X234696000Y-77343000D02*
X234696000Y-70104000D01*
X235839000Y-78486000D02*
X234696000Y-77343000D01*
X235839000Y-80010000D02*
X235839000Y-78486000D01*
X235712000Y-80137000D02*
X235839000Y-80010000D01*
X226359000Y-58846000D02*
X227838000Y-60325000D01*
X227838000Y-60325000D02*
X227838000Y-64008000D01*
X227838000Y-64008000D02*
X234188000Y-70358000D01*
X224672000Y-58846000D02*
X226359000Y-58846000D01*
X234188000Y-77597000D02*
X234188000Y-70358000D01*
X235077000Y-78486000D02*
X234188000Y-77597000D01*
X235077000Y-79248000D02*
X235077000Y-78486000D01*
X227330000Y-64262000D02*
X233680000Y-70612000D01*
X227330000Y-61722000D02*
X227330000Y-64262000D01*
X225724000Y-60116000D02*
X227330000Y-61722000D01*
X224672000Y-60116000D02*
X225724000Y-60116000D01*
X233680000Y-78105000D02*
X233680000Y-70612000D01*
X234188000Y-78613000D02*
X233680000Y-78105000D01*
X226105000Y-61386000D02*
X226822000Y-62103000D01*
X226822000Y-62103000D02*
X226822000Y-64770000D01*
X224672000Y-61386000D02*
X226105000Y-61386000D01*
X232664000Y-70612000D02*
X226822000Y-64770000D01*
X235458000Y-81661000D02*
X236347000Y-81661000D01*
X236347000Y-81661000D02*
X236982000Y-81026000D01*
X236982000Y-81026000D02*
X238379000Y-81026000D01*
X238379000Y-81026000D02*
X239141000Y-81788000D01*
X225298000Y-78994000D02*
X225679000Y-79375000D01*
X225679000Y-79375000D02*
X233172000Y-79375000D01*
X233172000Y-79375000D02*
X235458000Y-81661000D01*
X239014000Y-80518000D02*
X236855000Y-80518000D01*
X236855000Y-80518000D02*
X236220000Y-81153000D01*
X224536000Y-78486000D02*
X225044000Y-77978000D01*
X225044000Y-77978000D02*
X225806000Y-77978000D01*
X225806000Y-77978000D02*
X226695000Y-78867000D01*
X226695000Y-78867000D02*
X233426000Y-78867000D01*
X233426000Y-78867000D02*
X235712000Y-81153000D01*
X235712000Y-81153000D02*
X236220000Y-81153000D01*
D24*
X226786151Y-47842249D02*
X226806760Y-47821640D01*
X235077000Y-82804000D02*
X234884000Y-82997000D01*
X234884000Y-82997000D02*
X234061000Y-82997000D01*
X231855000Y-81026000D02*
X231855000Y-80471000D01*
X231855000Y-80471000D02*
X231267000Y-79883000D01*
X231267000Y-79883000D02*
X224282000Y-79883000D01*
X224282000Y-79883000D02*
X223520000Y-79121000D01*
D22*
X232664000Y-82997000D02*
X232664000Y-81835000D01*
X232664000Y-81835000D02*
X231855000Y-81026000D01*
X230947000Y-82547000D02*
X230947000Y-81934000D01*
X230947000Y-81934000D02*
X231855000Y-81026000D01*
D24*
X223520000Y-79121000D02*
X223520000Y-78232000D01*
X225234500Y-73469500D02*
X226187000Y-72517000D01*
X226187000Y-72517000D02*
X226187000Y-69977000D01*
X226187000Y-69977000D02*
X222504000Y-66294000D01*
X221627640Y-59321640D02*
X220346760Y-59321640D01*
X222504000Y-60198000D02*
X221627640Y-59321640D01*
X222504000Y-66294000D02*
X222504000Y-60198000D01*
D22*
X234061000Y-82997000D02*
X232664000Y-82997000D01*
X232664000Y-82997000D02*
X231397000Y-82997000D01*
X231397000Y-82997000D02*
X230947000Y-82547000D01*
D24*
X222737000Y-55036000D02*
X222377000Y-54676000D01*
X224672000Y-55036000D02*
X222737000Y-55036000D01*
X224672000Y-55036000D02*
X224672000Y-54855000D01*
X225234500Y-76517500D02*
X223520000Y-78232000D01*
X225234500Y-73469500D02*
X225234500Y-76517500D01*
X223704360Y-47821640D02*
X226806760Y-47821640D01*
X222377000Y-49149000D02*
X223704360Y-47821640D01*
X222377000Y-54676000D02*
X222377000Y-49149000D01*
D23*
X218313000Y-86868000D02*
X218059000Y-86868000D01*
X218059000Y-86868000D02*
X216789000Y-85598000D01*
X216789000Y-85598000D02*
X216789000Y-75819000D01*
X216789000Y-75819000D02*
X217297000Y-75311000D01*
X224790000Y-73025000D02*
X225298000Y-72517000D01*
X225298000Y-72517000D02*
X225298000Y-70739000D01*
D22*
X223459000Y-85347000D02*
X223459000Y-86487000D01*
X223459000Y-86487000D02*
X223332000Y-86614000D01*
X221996000Y-84897000D02*
X223009000Y-84897000D01*
X223009000Y-84897000D02*
X223459000Y-85347000D01*
X219964000Y-89154000D02*
X219964000Y-87630000D01*
X220980000Y-86614000D02*
X223332000Y-86614000D01*
X219964000Y-87630000D02*
X220980000Y-86614000D01*
D23*
X219964000Y-89154000D02*
X219964000Y-88519000D01*
X219964000Y-88519000D02*
X218313000Y-86868000D01*
X224790000Y-73914000D02*
X224790000Y-73025000D01*
X222631000Y-76073000D02*
X224790000Y-73914000D01*
X219075000Y-76073000D02*
X222631000Y-76073000D01*
X218313000Y-75311000D02*
X219075000Y-76073000D01*
X217297000Y-75311000D02*
X218313000Y-75311000D01*
D22*
X229047000Y-82547000D02*
X229047000Y-81134000D01*
X229047000Y-81134000D02*
X229155000Y-81026000D01*
D23*
X222123000Y-87376000D02*
X223266000Y-88519000D01*
X223266000Y-88519000D02*
X223266000Y-89154000D01*
X223266000Y-89027000D02*
X223266000Y-89154000D01*
X226568000Y-89154000D02*
X226568000Y-87503000D01*
X226568000Y-87503000D02*
X226441000Y-87376000D01*
D22*
X225359000Y-85347000D02*
X226522000Y-85347000D01*
X226522000Y-85347000D02*
X226949000Y-84920000D01*
D24*
X225359000Y-82547000D02*
X225359000Y-81600000D01*
X225359000Y-81600000D02*
X225679000Y-81280000D01*
X223901000Y-72644000D02*
X224536000Y-72009000D01*
X224536000Y-72009000D02*
X224536000Y-69977000D01*
D23*
X224155000Y-50419000D02*
X225425000Y-50419000D01*
X224028000Y-50546000D02*
X224155000Y-50419000D01*
X228727000Y-57404000D02*
X228727000Y-54483000D01*
X229489000Y-58166000D02*
X228727000Y-57404000D01*
X229489000Y-62230000D02*
X229489000Y-58166000D01*
X235204000Y-67945000D02*
X229489000Y-62230000D01*
X235204000Y-76962000D02*
X235204000Y-67945000D01*
X236474000Y-78232000D02*
X235204000Y-76962000D01*
X236474000Y-79121000D02*
X236474000Y-78232000D01*
X236982000Y-79629000D02*
X236474000Y-79121000D01*
X239014000Y-79629000D02*
X236982000Y-79629000D01*
X239522000Y-79121000D02*
X239014000Y-79629000D01*
X239522000Y-76454000D02*
X239522000Y-79121000D01*
X240030000Y-75946000D02*
X239522000Y-76454000D01*
X240792000Y-75946000D02*
X240030000Y-75946000D01*
X241300000Y-76454000D02*
X240792000Y-75946000D01*
X241300000Y-79883000D02*
X241300000Y-76454000D01*
X241935000Y-80518000D02*
X241300000Y-79883000D01*
X234358000Y-49741000D02*
X234358000Y-48641000D01*
X233807000Y-50292000D02*
X234358000Y-49741000D01*
X232791000Y-50292000D02*
X233807000Y-50292000D01*
X227457000Y-49657000D02*
X227457000Y-51308000D01*
X227965000Y-49149000D02*
X227457000Y-49657000D01*
X231902000Y-49149000D02*
X227965000Y-49149000D01*
X232791000Y-50038000D02*
X231902000Y-49149000D01*
X232791000Y-50292000D02*
X232791000Y-50038000D01*
X232113000Y-51181000D02*
X231140000Y-50208000D01*
X234823000Y-51181000D02*
X232113000Y-51181000D01*
X231140000Y-52408000D02*
X229362000Y-52408000D01*
X231140000Y-54356000D02*
X231140000Y-52408000D01*
X230632000Y-54864000D02*
X231140000Y-54356000D01*
X224409000Y-65659000D02*
X224155000Y-65659000D01*
X229489000Y-70739000D02*
X224409000Y-65659000D01*
X230759000Y-70739000D02*
X229489000Y-70739000D01*
X231267000Y-71247000D02*
X230759000Y-70739000D01*
X232283000Y-71247000D02*
X231267000Y-71247000D01*
X233299000Y-72263000D02*
X232283000Y-71247000D01*
X233299000Y-77089000D02*
X233299000Y-72263000D01*
X232791000Y-77597000D02*
X233299000Y-77089000D01*
D24*
G36*
X227507800Y-83953177D02*
X227436525Y-83939000D01*
X227361475Y-83939000D01*
X226917250Y-83939000D01*
X226917250Y-83567650D01*
X226917250Y-82751750D01*
X226917250Y-82688250D01*
X226917250Y-81872350D01*
X226834700Y-81789800D01*
X226531522Y-81789800D01*
X226466478Y-81789800D01*
X226402684Y-81802489D01*
X226342592Y-81827380D01*
X226288510Y-81863517D01*
X226242517Y-81909510D01*
X226206381Y-81963592D01*
X226181489Y-82023684D01*
X226168800Y-82087478D01*
X226168800Y-82605700D01*
X226251350Y-82688250D01*
X226917250Y-82688250D01*
X226917250Y-82751750D01*
X226251350Y-82751750D01*
X226168800Y-82834300D01*
X226168800Y-83352522D01*
X226181489Y-83416316D01*
X226206381Y-83476408D01*
X226242517Y-83530490D01*
X226288510Y-83576483D01*
X226342592Y-83612620D01*
X226402684Y-83637511D01*
X226466478Y-83650200D01*
X226531522Y-83650200D01*
X226834700Y-83650200D01*
X226917250Y-83567650D01*
X226917250Y-83939000D01*
X226461475Y-83939000D01*
X226387867Y-83953642D01*
X226318529Y-83982362D01*
X226256127Y-84024058D01*
X226203058Y-84077126D01*
X226161362Y-84139529D01*
X226132642Y-84208866D01*
X226118000Y-84282475D01*
X226118000Y-84357525D01*
X226118000Y-84762800D01*
X226040000Y-84762800D01*
X226040000Y-84759475D01*
X226025358Y-84685867D01*
X225996638Y-84616529D01*
X225954942Y-84554127D01*
X225901874Y-84501058D01*
X225839471Y-84459362D01*
X225770134Y-84430642D01*
X225696525Y-84416000D01*
X225621475Y-84416000D01*
X225021475Y-84416000D01*
X224947867Y-84430642D01*
X224878529Y-84459362D01*
X224816127Y-84501058D01*
X224763058Y-84554126D01*
X224721362Y-84616529D01*
X224692642Y-84685866D01*
X224678000Y-84759475D01*
X224678000Y-84834525D01*
X224678000Y-85908800D01*
X224599478Y-85908800D01*
X224535684Y-85921489D01*
X224475592Y-85946381D01*
X224421510Y-85982517D01*
X224375517Y-86028510D01*
X224339380Y-86082592D01*
X224314489Y-86142684D01*
X224307897Y-86175823D01*
X224298358Y-86127867D01*
X224269638Y-86058529D01*
X224227942Y-85996127D01*
X224174874Y-85943058D01*
X224140000Y-85919756D01*
X224140000Y-85859475D01*
X224140000Y-84759475D01*
X224125358Y-84685867D01*
X224096638Y-84616529D01*
X224054942Y-84554127D01*
X224001874Y-84501058D01*
X223939471Y-84459362D01*
X223870134Y-84430642D01*
X223796525Y-84416000D01*
X223721475Y-84416000D01*
X223340282Y-84416000D01*
X223339054Y-84414969D01*
X223336362Y-84413489D01*
X223333988Y-84411539D01*
X223286436Y-84386042D01*
X223239141Y-84360041D01*
X223236211Y-84359111D01*
X223233506Y-84357661D01*
X223181934Y-84341893D01*
X223130462Y-84325566D01*
X223127407Y-84325223D01*
X223124472Y-84324326D01*
X223070829Y-84318877D01*
X223017157Y-84312857D01*
X223011147Y-84312815D01*
X223011039Y-84312804D01*
X223010938Y-84312813D01*
X223009000Y-84312800D01*
X222752000Y-84312800D01*
X222752000Y-84259475D01*
X222737358Y-84185867D01*
X222708638Y-84116529D01*
X222666942Y-84054127D01*
X222613874Y-84001058D01*
X222551471Y-83959362D01*
X222482134Y-83930642D01*
X222434176Y-83921102D01*
X222467316Y-83914511D01*
X222527408Y-83889620D01*
X222581490Y-83853483D01*
X222627483Y-83807490D01*
X222663619Y-83753408D01*
X222688511Y-83693316D01*
X222701200Y-83629522D01*
X222701200Y-83111300D01*
X222701200Y-82882700D01*
X222701200Y-82364478D01*
X222688511Y-82300684D01*
X222663619Y-82240592D01*
X222627483Y-82186510D01*
X222581490Y-82140517D01*
X222527408Y-82104380D01*
X222467316Y-82079489D01*
X222403522Y-82066800D01*
X222338478Y-82066800D01*
X222110300Y-82066800D01*
X222027750Y-82149350D01*
X222027750Y-82965250D01*
X222618650Y-82965250D01*
X222701200Y-82882700D01*
X222701200Y-83111300D01*
X222618650Y-83028750D01*
X222027750Y-83028750D01*
X222027750Y-83048750D01*
X221964250Y-83048750D01*
X221964250Y-83028750D01*
X221964250Y-82965250D01*
X221964250Y-82149350D01*
X221881700Y-82066800D01*
X221653522Y-82066800D01*
X221588478Y-82066800D01*
X221524684Y-82079489D01*
X221464592Y-82104380D01*
X221410510Y-82140517D01*
X221364517Y-82186510D01*
X221328381Y-82240592D01*
X221303489Y-82300684D01*
X221290800Y-82364478D01*
X221290800Y-82882700D01*
X221373350Y-82965250D01*
X221964250Y-82965250D01*
X221964250Y-83028750D01*
X221373350Y-83028750D01*
X221290800Y-83111300D01*
X221290800Y-83629522D01*
X221303489Y-83693316D01*
X221328381Y-83753408D01*
X221364517Y-83807490D01*
X221410510Y-83853483D01*
X221464592Y-83889620D01*
X221524684Y-83914511D01*
X221557823Y-83921102D01*
X221509867Y-83930642D01*
X221440529Y-83959362D01*
X221378127Y-84001058D01*
X221325058Y-84054126D01*
X221283362Y-84116529D01*
X221254642Y-84185866D01*
X221240000Y-84259475D01*
X221240000Y-84334525D01*
X221240000Y-85534525D01*
X221254642Y-85608133D01*
X221283362Y-85677471D01*
X221325058Y-85739873D01*
X221378126Y-85792942D01*
X221440529Y-85834638D01*
X221509866Y-85863358D01*
X221583475Y-85878000D01*
X221658525Y-85878000D01*
X222408525Y-85878000D01*
X222482133Y-85863358D01*
X222551471Y-85834638D01*
X222613873Y-85792942D01*
X222666942Y-85739874D01*
X222708638Y-85677471D01*
X222737358Y-85608134D01*
X222752000Y-85534525D01*
X222752000Y-85481200D01*
X222767016Y-85481200D01*
X222778000Y-85492184D01*
X222778000Y-85858000D01*
X222694475Y-85858000D01*
X222620867Y-85872642D01*
X222551529Y-85901362D01*
X222489127Y-85943058D01*
X222436058Y-85996126D01*
X222413557Y-86029800D01*
X220980000Y-86029800D01*
X220926299Y-86035065D01*
X220872536Y-86039769D01*
X220869585Y-86040626D01*
X220866528Y-86040926D01*
X220814887Y-86056517D01*
X220763047Y-86071578D01*
X220760317Y-86072992D01*
X220757379Y-86073880D01*
X220709724Y-86099218D01*
X220661822Y-86124049D01*
X220659423Y-86125963D01*
X220656709Y-86127407D01*
X220614884Y-86161518D01*
X220572716Y-86195181D01*
X220568436Y-86199401D01*
X220568353Y-86199469D01*
X220568289Y-86199545D01*
X220566908Y-86200908D01*
X219550908Y-87216908D01*
X219516639Y-87258627D01*
X219481969Y-87299946D01*
X219480489Y-87302637D01*
X219478539Y-87305012D01*
X219462473Y-87334973D01*
X219072908Y-86945408D01*
X219075033Y-86793282D01*
X219046007Y-86646692D01*
X218989061Y-86508532D01*
X218906365Y-86384063D01*
X218801067Y-86278028D01*
X218677179Y-86194465D01*
X218539420Y-86136556D01*
X218393036Y-86106508D01*
X218243604Y-86105464D01*
X218096815Y-86133466D01*
X218032820Y-86159320D01*
X217271600Y-85398100D01*
X217271600Y-76018899D01*
X217496899Y-75793600D01*
X218113100Y-75793600D01*
X218733750Y-76414250D01*
X218768175Y-76442526D01*
X218802347Y-76471200D01*
X218804572Y-76472423D01*
X218806532Y-76474033D01*
X218845808Y-76495093D01*
X218884884Y-76516575D01*
X218887302Y-76517342D01*
X218889540Y-76518542D01*
X218932188Y-76531580D01*
X218974662Y-76545054D01*
X218977183Y-76545336D01*
X218979611Y-76546079D01*
X219023965Y-76550584D01*
X219068262Y-76555553D01*
X219073222Y-76555587D01*
X219073315Y-76555597D01*
X219073401Y-76555588D01*
X219075000Y-76555600D01*
X222631000Y-76555600D01*
X222636781Y-76555033D01*
X222656974Y-76665052D01*
X222711985Y-76803994D01*
X222792936Y-76929605D01*
X222893135Y-77033364D01*
X222543750Y-77382750D01*
X222515454Y-77417197D01*
X222486800Y-77451347D01*
X222485578Y-77453569D01*
X222483967Y-77455531D01*
X222462885Y-77494848D01*
X222441425Y-77533884D01*
X222440658Y-77536299D01*
X222439458Y-77538539D01*
X222426414Y-77581202D01*
X222412946Y-77623662D01*
X222412663Y-77626183D01*
X222411921Y-77628611D01*
X222407415Y-77672965D01*
X222402447Y-77717262D01*
X222402412Y-77722222D01*
X222402403Y-77722315D01*
X222402411Y-77722401D01*
X222402400Y-77724000D01*
X222402400Y-79756000D01*
X222406746Y-79800325D01*
X222410635Y-79844775D01*
X222411343Y-79847214D01*
X222411591Y-79849737D01*
X222424471Y-79892400D01*
X222436913Y-79935223D01*
X222438080Y-79937475D01*
X222438814Y-79939905D01*
X222459757Y-79979294D01*
X222480258Y-80018843D01*
X222481839Y-80020823D01*
X222483032Y-80023067D01*
X222511216Y-80057624D01*
X222539019Y-80092452D01*
X222542505Y-80095987D01*
X222542561Y-80096056D01*
X222542624Y-80096108D01*
X222543750Y-80097250D01*
X223022232Y-80575731D01*
X223011639Y-80588627D01*
X222976969Y-80629946D01*
X222975489Y-80632637D01*
X222973539Y-80635012D01*
X222948042Y-80682563D01*
X222922041Y-80729859D01*
X222921111Y-80732788D01*
X222919661Y-80735494D01*
X222903893Y-80787065D01*
X222887566Y-80838538D01*
X222887223Y-80841592D01*
X222886326Y-80844528D01*
X222880877Y-80898170D01*
X222874857Y-80951843D01*
X222874815Y-80957852D01*
X222874804Y-80957961D01*
X222874813Y-80958061D01*
X222874800Y-80960000D01*
X222874800Y-81742384D01*
X222863058Y-81754126D01*
X222821362Y-81816529D01*
X222792642Y-81885866D01*
X222778000Y-81959475D01*
X222778000Y-82034525D01*
X222778000Y-83134525D01*
X222792642Y-83208133D01*
X222821362Y-83277471D01*
X222863058Y-83339873D01*
X222916126Y-83392942D01*
X222978529Y-83434638D01*
X223047866Y-83463358D01*
X223121475Y-83478000D01*
X223196525Y-83478000D01*
X223796525Y-83478000D01*
X223870133Y-83463358D01*
X223939471Y-83434638D01*
X223986083Y-83403492D01*
X224012684Y-83414511D01*
X224076478Y-83427200D01*
X224294700Y-83427200D01*
X224377250Y-83344650D01*
X224377250Y-82578750D01*
X224357250Y-82578750D01*
X224357250Y-82515250D01*
X224377250Y-82515250D01*
X224377250Y-81749350D01*
X224294700Y-81666800D01*
X224076478Y-81666800D01*
X224043200Y-81673419D01*
X224043200Y-81201983D01*
X224269983Y-80975200D01*
X224980561Y-80975200D01*
X224949154Y-81048479D01*
X224918085Y-81194650D01*
X224915998Y-81344071D01*
X224917671Y-81353188D01*
X224914689Y-81358749D01*
X224892079Y-81399878D01*
X224891271Y-81402423D01*
X224890009Y-81404778D01*
X224876284Y-81449670D01*
X224862101Y-81494381D01*
X224861803Y-81497034D01*
X224861022Y-81499590D01*
X224856276Y-81546312D01*
X224851050Y-81592907D01*
X224851013Y-81598126D01*
X224851003Y-81598227D01*
X224851011Y-81598320D01*
X224851000Y-81600000D01*
X224851000Y-81677756D01*
X224831916Y-81690507D01*
X224805316Y-81679489D01*
X224741522Y-81666800D01*
X224523300Y-81666800D01*
X224440750Y-81749350D01*
X224440750Y-82515250D01*
X224460750Y-82515250D01*
X224460750Y-82578750D01*
X224440750Y-82578750D01*
X224440750Y-83344650D01*
X224523300Y-83427200D01*
X224741522Y-83427200D01*
X224805316Y-83414511D01*
X224831915Y-83403492D01*
X224878529Y-83434638D01*
X224947866Y-83463358D01*
X225021475Y-83478000D01*
X225096525Y-83478000D01*
X225696525Y-83478000D01*
X225770133Y-83463358D01*
X225839471Y-83434638D01*
X225901873Y-83392942D01*
X225954942Y-83339874D01*
X225996638Y-83277471D01*
X226025358Y-83208134D01*
X226040000Y-83134525D01*
X226040000Y-83059475D01*
X226040000Y-81959475D01*
X226038932Y-81954110D01*
X226150404Y-81883370D01*
X226258621Y-81780316D01*
X226344761Y-81658205D01*
X226405542Y-81521688D01*
X226438649Y-81375966D01*
X226441033Y-81205282D01*
X226412623Y-81061807D01*
X227140616Y-81789800D01*
X227063300Y-81789800D01*
X226980750Y-81872350D01*
X226980750Y-82688250D01*
X227000750Y-82688250D01*
X227000750Y-82751750D01*
X226980750Y-82751750D01*
X226980750Y-83567650D01*
X227063300Y-83650200D01*
X227366478Y-83650200D01*
X227431522Y-83650200D01*
X227495316Y-83637511D01*
X227507800Y-83632339D01*
X227507800Y-83953177D01*
X227507800Y-83953177D01*
G37*
X227507800Y-83953177D02*
X227436525Y-83939000D01*
X227361475Y-83939000D01*
X226917250Y-83939000D01*
X226917250Y-83567650D01*
X226917250Y-82751750D01*
X226917250Y-82688250D01*
X226917250Y-81872350D01*
X226834700Y-81789800D01*
X226531522Y-81789800D01*
X226466478Y-81789800D01*
X226402684Y-81802489D01*
X226342592Y-81827380D01*
X226288510Y-81863517D01*
X226242517Y-81909510D01*
X226206381Y-81963592D01*
X226181489Y-82023684D01*
X226168800Y-82087478D01*
X226168800Y-82605700D01*
X226251350Y-82688250D01*
X226917250Y-82688250D01*
X226917250Y-82751750D01*
X226251350Y-82751750D01*
X226168800Y-82834300D01*
X226168800Y-83352522D01*
X226181489Y-83416316D01*
X226206381Y-83476408D01*
X226242517Y-83530490D01*
X226288510Y-83576483D01*
X226342592Y-83612620D01*
X226402684Y-83637511D01*
X226466478Y-83650200D01*
X226531522Y-83650200D01*
X226834700Y-83650200D01*
X226917250Y-83567650D01*
X226917250Y-83939000D01*
X226461475Y-83939000D01*
X226387867Y-83953642D01*
X226318529Y-83982362D01*
X226256127Y-84024058D01*
X226203058Y-84077126D01*
X226161362Y-84139529D01*
X226132642Y-84208866D01*
X226118000Y-84282475D01*
X226118000Y-84357525D01*
X226118000Y-84762800D01*
X226040000Y-84762800D01*
X226040000Y-84759475D01*
X226025358Y-84685867D01*
X225996638Y-84616529D01*
X225954942Y-84554127D01*
X225901874Y-84501058D01*
X225839471Y-84459362D01*
X225770134Y-84430642D01*
X225696525Y-84416000D01*
X225621475Y-84416000D01*
X225021475Y-84416000D01*
X224947867Y-84430642D01*
X224878529Y-84459362D01*
X224816127Y-84501058D01*
X224763058Y-84554126D01*
X224721362Y-84616529D01*
X224692642Y-84685866D01*
X224678000Y-84759475D01*
X224678000Y-84834525D01*
X224678000Y-85908800D01*
X224599478Y-85908800D01*
X224535684Y-85921489D01*
X224475592Y-85946381D01*
X224421510Y-85982517D01*
X224375517Y-86028510D01*
X224339380Y-86082592D01*
X224314489Y-86142684D01*
X224307897Y-86175823D01*
X224298358Y-86127867D01*
X224269638Y-86058529D01*
X224227942Y-85996127D01*
X224174874Y-85943058D01*
X224140000Y-85919756D01*
X224140000Y-85859475D01*
X224140000Y-84759475D01*
X224125358Y-84685867D01*
X224096638Y-84616529D01*
X224054942Y-84554127D01*
X224001874Y-84501058D01*
X223939471Y-84459362D01*
X223870134Y-84430642D01*
X223796525Y-84416000D01*
X223721475Y-84416000D01*
X223340282Y-84416000D01*
X223339054Y-84414969D01*
X223336362Y-84413489D01*
X223333988Y-84411539D01*
X223286436Y-84386042D01*
X223239141Y-84360041D01*
X223236211Y-84359111D01*
X223233506Y-84357661D01*
X223181934Y-84341893D01*
X223130462Y-84325566D01*
X223127407Y-84325223D01*
X223124472Y-84324326D01*
X223070829Y-84318877D01*
X223017157Y-84312857D01*
X223011147Y-84312815D01*
X223011039Y-84312804D01*
X223010938Y-84312813D01*
X223009000Y-84312800D01*
X222752000Y-84312800D01*
X222752000Y-84259475D01*
X222737358Y-84185867D01*
X222708638Y-84116529D01*
X222666942Y-84054127D01*
X222613874Y-84001058D01*
X222551471Y-83959362D01*
X222482134Y-83930642D01*
X222434176Y-83921102D01*
X222467316Y-83914511D01*
X222527408Y-83889620D01*
X222581490Y-83853483D01*
X222627483Y-83807490D01*
X222663619Y-83753408D01*
X222688511Y-83693316D01*
X222701200Y-83629522D01*
X222701200Y-83111300D01*
X222701200Y-82882700D01*
X222701200Y-82364478D01*
X222688511Y-82300684D01*
X222663619Y-82240592D01*
X222627483Y-82186510D01*
X222581490Y-82140517D01*
X222527408Y-82104380D01*
X222467316Y-82079489D01*
X222403522Y-82066800D01*
X222338478Y-82066800D01*
X222110300Y-82066800D01*
X222027750Y-82149350D01*
X222027750Y-82965250D01*
X222618650Y-82965250D01*
X222701200Y-82882700D01*
X222701200Y-83111300D01*
X222618650Y-83028750D01*
X222027750Y-83028750D01*
X222027750Y-83048750D01*
X221964250Y-83048750D01*
X221964250Y-83028750D01*
X221964250Y-82965250D01*
X221964250Y-82149350D01*
X221881700Y-82066800D01*
X221653522Y-82066800D01*
X221588478Y-82066800D01*
X221524684Y-82079489D01*
X221464592Y-82104380D01*
X221410510Y-82140517D01*
X221364517Y-82186510D01*
X221328381Y-82240592D01*
X221303489Y-82300684D01*
X221290800Y-82364478D01*
X221290800Y-82882700D01*
X221373350Y-82965250D01*
X221964250Y-82965250D01*
X221964250Y-83028750D01*
X221373350Y-83028750D01*
X221290800Y-83111300D01*
X221290800Y-83629522D01*
X221303489Y-83693316D01*
X221328381Y-83753408D01*
X221364517Y-83807490D01*
X221410510Y-83853483D01*
X221464592Y-83889620D01*
X221524684Y-83914511D01*
X221557823Y-83921102D01*
X221509867Y-83930642D01*
X221440529Y-83959362D01*
X221378127Y-84001058D01*
X221325058Y-84054126D01*
X221283362Y-84116529D01*
X221254642Y-84185866D01*
X221240000Y-84259475D01*
X221240000Y-84334525D01*
X221240000Y-85534525D01*
X221254642Y-85608133D01*
X221283362Y-85677471D01*
X221325058Y-85739873D01*
X221378126Y-85792942D01*
X221440529Y-85834638D01*
X221509866Y-85863358D01*
X221583475Y-85878000D01*
X221658525Y-85878000D01*
X222408525Y-85878000D01*
X222482133Y-85863358D01*
X222551471Y-85834638D01*
X222613873Y-85792942D01*
X222666942Y-85739874D01*
X222708638Y-85677471D01*
X222737358Y-85608134D01*
X222752000Y-85534525D01*
X222752000Y-85481200D01*
X222767016Y-85481200D01*
X222778000Y-85492184D01*
X222778000Y-85858000D01*
X222694475Y-85858000D01*
X222620867Y-85872642D01*
X222551529Y-85901362D01*
X222489127Y-85943058D01*
X222436058Y-85996126D01*
X222413557Y-86029800D01*
X220980000Y-86029800D01*
X220926299Y-86035065D01*
X220872536Y-86039769D01*
X220869585Y-86040626D01*
X220866528Y-86040926D01*
X220814887Y-86056517D01*
X220763047Y-86071578D01*
X220760317Y-86072992D01*
X220757379Y-86073880D01*
X220709724Y-86099218D01*
X220661822Y-86124049D01*
X220659423Y-86125963D01*
X220656709Y-86127407D01*
X220614884Y-86161518D01*
X220572716Y-86195181D01*
X220568436Y-86199401D01*
X220568353Y-86199469D01*
X220568289Y-86199545D01*
X220566908Y-86200908D01*
X219550908Y-87216908D01*
X219516639Y-87258627D01*
X219481969Y-87299946D01*
X219480489Y-87302637D01*
X219478539Y-87305012D01*
X219462473Y-87334973D01*
X219072908Y-86945408D01*
X219075033Y-86793282D01*
X219046007Y-86646692D01*
X218989061Y-86508532D01*
X218906365Y-86384063D01*
X218801067Y-86278028D01*
X218677179Y-86194465D01*
X218539420Y-86136556D01*
X218393036Y-86106508D01*
X218243604Y-86105464D01*
X218096815Y-86133466D01*
X218032820Y-86159320D01*
X217271600Y-85398100D01*
X217271600Y-76018899D01*
X217496899Y-75793600D01*
X218113100Y-75793600D01*
X218733750Y-76414250D01*
X218768175Y-76442526D01*
X218802347Y-76471200D01*
X218804572Y-76472423D01*
X218806532Y-76474033D01*
X218845808Y-76495093D01*
X218884884Y-76516575D01*
X218887302Y-76517342D01*
X218889540Y-76518542D01*
X218932188Y-76531580D01*
X218974662Y-76545054D01*
X218977183Y-76545336D01*
X218979611Y-76546079D01*
X219023965Y-76550584D01*
X219068262Y-76555553D01*
X219073222Y-76555587D01*
X219073315Y-76555597D01*
X219073401Y-76555588D01*
X219075000Y-76555600D01*
X222631000Y-76555600D01*
X222636781Y-76555033D01*
X222656974Y-76665052D01*
X222711985Y-76803994D01*
X222792936Y-76929605D01*
X222893135Y-77033364D01*
X222543750Y-77382750D01*
X222515454Y-77417197D01*
X222486800Y-77451347D01*
X222485578Y-77453569D01*
X222483967Y-77455531D01*
X222462885Y-77494848D01*
X222441425Y-77533884D01*
X222440658Y-77536299D01*
X222439458Y-77538539D01*
X222426414Y-77581202D01*
X222412946Y-77623662D01*
X222412663Y-77626183D01*
X222411921Y-77628611D01*
X222407415Y-77672965D01*
X222402447Y-77717262D01*
X222402412Y-77722222D01*
X222402403Y-77722315D01*
X222402411Y-77722401D01*
X222402400Y-77724000D01*
X222402400Y-79756000D01*
X222406746Y-79800325D01*
X222410635Y-79844775D01*
X222411343Y-79847214D01*
X222411591Y-79849737D01*
X222424471Y-79892400D01*
X222436913Y-79935223D01*
X222438080Y-79937475D01*
X222438814Y-79939905D01*
X222459757Y-79979294D01*
X222480258Y-80018843D01*
X222481839Y-80020823D01*
X222483032Y-80023067D01*
X222511216Y-80057624D01*
X222539019Y-80092452D01*
X222542505Y-80095987D01*
X222542561Y-80096056D01*
X222542624Y-80096108D01*
X222543750Y-80097250D01*
X223022232Y-80575731D01*
X223011639Y-80588627D01*
X222976969Y-80629946D01*
X222975489Y-80632637D01*
X222973539Y-80635012D01*
X222948042Y-80682563D01*
X222922041Y-80729859D01*
X222921111Y-80732788D01*
X222919661Y-80735494D01*
X222903893Y-80787065D01*
X222887566Y-80838538D01*
X222887223Y-80841592D01*
X222886326Y-80844528D01*
X222880877Y-80898170D01*
X222874857Y-80951843D01*
X222874815Y-80957852D01*
X222874804Y-80957961D01*
X222874813Y-80958061D01*
X222874800Y-80960000D01*
X222874800Y-81742384D01*
X222863058Y-81754126D01*
X222821362Y-81816529D01*
X222792642Y-81885866D01*
X222778000Y-81959475D01*
X222778000Y-82034525D01*
X222778000Y-83134525D01*
X222792642Y-83208133D01*
X222821362Y-83277471D01*
X222863058Y-83339873D01*
X222916126Y-83392942D01*
X222978529Y-83434638D01*
X223047866Y-83463358D01*
X223121475Y-83478000D01*
X223196525Y-83478000D01*
X223796525Y-83478000D01*
X223870133Y-83463358D01*
X223939471Y-83434638D01*
X223986083Y-83403492D01*
X224012684Y-83414511D01*
X224076478Y-83427200D01*
X224294700Y-83427200D01*
X224377250Y-83344650D01*
X224377250Y-82578750D01*
X224357250Y-82578750D01*
X224357250Y-82515250D01*
X224377250Y-82515250D01*
X224377250Y-81749350D01*
X224294700Y-81666800D01*
X224076478Y-81666800D01*
X224043200Y-81673419D01*
X224043200Y-81201983D01*
X224269983Y-80975200D01*
X224980561Y-80975200D01*
X224949154Y-81048479D01*
X224918085Y-81194650D01*
X224915998Y-81344071D01*
X224917671Y-81353188D01*
X224914689Y-81358749D01*
X224892079Y-81399878D01*
X224891271Y-81402423D01*
X224890009Y-81404778D01*
X224876284Y-81449670D01*
X224862101Y-81494381D01*
X224861803Y-81497034D01*
X224861022Y-81499590D01*
X224856276Y-81546312D01*
X224851050Y-81592907D01*
X224851013Y-81598126D01*
X224851003Y-81598227D01*
X224851011Y-81598320D01*
X224851000Y-81600000D01*
X224851000Y-81677756D01*
X224831916Y-81690507D01*
X224805316Y-81679489D01*
X224741522Y-81666800D01*
X224523300Y-81666800D01*
X224440750Y-81749350D01*
X224440750Y-82515250D01*
X224460750Y-82515250D01*
X224460750Y-82578750D01*
X224440750Y-82578750D01*
X224440750Y-83344650D01*
X224523300Y-83427200D01*
X224741522Y-83427200D01*
X224805316Y-83414511D01*
X224831915Y-83403492D01*
X224878529Y-83434638D01*
X224947866Y-83463358D01*
X225021475Y-83478000D01*
X225096525Y-83478000D01*
X225696525Y-83478000D01*
X225770133Y-83463358D01*
X225839471Y-83434638D01*
X225901873Y-83392942D01*
X225954942Y-83339874D01*
X225996638Y-83277471D01*
X226025358Y-83208134D01*
X226040000Y-83134525D01*
X226040000Y-83059475D01*
X226040000Y-81959475D01*
X226038932Y-81954110D01*
X226150404Y-81883370D01*
X226258621Y-81780316D01*
X226344761Y-81658205D01*
X226405542Y-81521688D01*
X226438649Y-81375966D01*
X226441033Y-81205282D01*
X226412623Y-81061807D01*
X227140616Y-81789800D01*
X227063300Y-81789800D01*
X226980750Y-81872350D01*
X226980750Y-82688250D01*
X227000750Y-82688250D01*
X227000750Y-82751750D01*
X226980750Y-82751750D01*
X226980750Y-83567650D01*
X227063300Y-83650200D01*
X227366478Y-83650200D01*
X227431522Y-83650200D01*
X227495316Y-83637511D01*
X227507800Y-83632339D01*
X227507800Y-83953177D01*
G36*
X234721400Y-69446900D02*
X228828600Y-63554100D01*
X228828600Y-59436000D01*
X228824253Y-59391674D01*
X228820365Y-59347225D01*
X228819656Y-59344785D01*
X228819409Y-59342263D01*
X228806528Y-59299599D01*
X228794087Y-59256777D01*
X228792919Y-59254524D01*
X228792186Y-59252095D01*
X228771242Y-59212705D01*
X228750742Y-59173157D01*
X228749160Y-59171176D01*
X228747968Y-59168933D01*
X228719783Y-59134375D01*
X228691981Y-59099548D01*
X228688494Y-59096012D01*
X228688439Y-59095944D01*
X228688375Y-59095891D01*
X228687250Y-59094750D01*
X226827250Y-57234750D01*
X226792802Y-57206454D01*
X226758653Y-57177800D01*
X226756430Y-57176578D01*
X226754469Y-57174967D01*
X226715151Y-57153885D01*
X226676116Y-57132425D01*
X226673700Y-57131658D01*
X226671461Y-57130458D01*
X226628797Y-57117414D01*
X226586338Y-57103946D01*
X226583816Y-57103663D01*
X226581389Y-57102921D01*
X226537034Y-57098415D01*
X226492738Y-57093447D01*
X226487777Y-57093412D01*
X226487685Y-57093403D01*
X226487598Y-57093411D01*
X226486000Y-57093400D01*
X226263200Y-57093400D01*
X226263200Y-50913725D01*
X226263200Y-50838675D01*
X226263200Y-49924275D01*
X226248558Y-49850667D01*
X226219838Y-49781329D01*
X226178142Y-49718927D01*
X226125074Y-49665858D01*
X226062671Y-49624162D01*
X225993334Y-49595442D01*
X225919725Y-49580800D01*
X225844675Y-49580800D01*
X224930275Y-49580800D01*
X224856667Y-49595442D01*
X224787329Y-49624162D01*
X224724927Y-49665858D01*
X224671858Y-49718926D01*
X224630162Y-49781329D01*
X224601442Y-49850666D01*
X224586800Y-49924275D01*
X224586800Y-49936400D01*
X224486967Y-49936400D01*
X224392179Y-49872465D01*
X224254420Y-49814556D01*
X224108036Y-49784508D01*
X223958604Y-49783464D01*
X223811815Y-49811466D01*
X223673260Y-49867445D01*
X223548218Y-49949271D01*
X223441450Y-50053826D01*
X223357023Y-50177127D01*
X223298154Y-50314479D01*
X223267085Y-50460650D01*
X223264998Y-50610071D01*
X223291974Y-50757052D01*
X223346985Y-50895994D01*
X223427936Y-51021605D01*
X223531743Y-51129100D01*
X223654452Y-51214385D01*
X223791390Y-51274212D01*
X223937340Y-51306301D01*
X224086743Y-51309430D01*
X224233908Y-51283481D01*
X224373231Y-51229441D01*
X224499404Y-51149370D01*
X224607621Y-51046316D01*
X224619120Y-51030014D01*
X224630162Y-51056671D01*
X224671858Y-51119073D01*
X224724926Y-51172142D01*
X224787329Y-51213838D01*
X224856666Y-51242558D01*
X224930275Y-51257200D01*
X225005325Y-51257200D01*
X225919725Y-51257200D01*
X225993333Y-51242558D01*
X226062671Y-51213838D01*
X226125073Y-51172142D01*
X226178142Y-51119074D01*
X226219838Y-51056671D01*
X226248558Y-50987334D01*
X226263200Y-50913725D01*
X226263200Y-57093400D01*
X226212400Y-57093400D01*
X226212400Y-52686722D01*
X226212400Y-52311300D01*
X226212400Y-52082700D01*
X226212400Y-51707278D01*
X226199711Y-51643484D01*
X226174819Y-51583392D01*
X226138683Y-51529310D01*
X226092690Y-51483317D01*
X226038608Y-51447180D01*
X225978516Y-51422289D01*
X225914722Y-51409600D01*
X225849678Y-51409600D01*
X225539300Y-51409600D01*
X225456750Y-51492150D01*
X225456750Y-52165250D01*
X226129850Y-52165250D01*
X226212400Y-52082700D01*
X226212400Y-52311300D01*
X226129850Y-52228750D01*
X225456750Y-52228750D01*
X225456750Y-52901850D01*
X225539300Y-52984400D01*
X225849678Y-52984400D01*
X225914722Y-52984400D01*
X225978516Y-52971711D01*
X226038608Y-52946820D01*
X226092690Y-52910683D01*
X226138683Y-52864690D01*
X226174819Y-52810608D01*
X226199711Y-52750516D01*
X226212400Y-52686722D01*
X226212400Y-57093400D01*
X226129466Y-57093400D01*
X226109638Y-57045529D01*
X226067942Y-56983127D01*
X226014874Y-56930058D01*
X225984925Y-56910047D01*
X226028483Y-56866490D01*
X226064620Y-56812408D01*
X226089511Y-56752316D01*
X226102200Y-56688522D01*
X226102200Y-56623478D01*
X226102200Y-56420300D01*
X226019650Y-56337750D01*
X224703750Y-56337750D01*
X224703750Y-56357750D01*
X224640250Y-56357750D01*
X224640250Y-56337750D01*
X223324350Y-56337750D01*
X223241800Y-56420300D01*
X223241800Y-56623478D01*
X223241800Y-56688522D01*
X223254489Y-56752316D01*
X223279380Y-56812408D01*
X223315517Y-56866490D01*
X223359074Y-56910047D01*
X223329127Y-56930058D01*
X223276058Y-56983126D01*
X223234362Y-57045529D01*
X223205642Y-57114866D01*
X223191000Y-57188475D01*
X223191000Y-57263525D01*
X223191000Y-57963525D01*
X223205642Y-58037133D01*
X223234362Y-58106471D01*
X223276058Y-58168873D01*
X223318184Y-58211000D01*
X223276058Y-58253126D01*
X223234362Y-58315529D01*
X223205642Y-58384866D01*
X223191000Y-58458475D01*
X223191000Y-58533525D01*
X223191000Y-59233525D01*
X223205642Y-59307133D01*
X223234362Y-59376471D01*
X223276058Y-59438873D01*
X223318184Y-59481000D01*
X223276058Y-59523126D01*
X223234362Y-59585529D01*
X223205642Y-59654866D01*
X223191000Y-59728475D01*
X223191000Y-59803525D01*
X223191000Y-60503525D01*
X223205642Y-60577133D01*
X223234362Y-60646471D01*
X223276058Y-60708873D01*
X223318184Y-60751000D01*
X223276058Y-60793126D01*
X223234362Y-60855529D01*
X223205642Y-60924866D01*
X223191000Y-60998475D01*
X223191000Y-61073525D01*
X223191000Y-61773525D01*
X223205642Y-61847133D01*
X223234362Y-61916471D01*
X223276058Y-61978873D01*
X223318184Y-62021000D01*
X223276058Y-62063126D01*
X223234362Y-62125529D01*
X223205642Y-62194866D01*
X223191000Y-62268475D01*
X223191000Y-62343525D01*
X223191000Y-63043525D01*
X223205642Y-63117133D01*
X223234362Y-63186471D01*
X223276058Y-63248873D01*
X223318184Y-63291000D01*
X223276058Y-63333126D01*
X223234362Y-63395529D01*
X223205642Y-63464866D01*
X223191000Y-63538475D01*
X223191000Y-63613525D01*
X223191000Y-64313525D01*
X223205642Y-64387133D01*
X223234362Y-64456471D01*
X223276058Y-64518873D01*
X223329126Y-64571942D01*
X223391529Y-64613638D01*
X223460866Y-64642358D01*
X223534475Y-64657000D01*
X223609525Y-64657000D01*
X224434400Y-64657000D01*
X224434400Y-64897000D01*
X224438746Y-64941325D01*
X224439684Y-64952048D01*
X224381420Y-64927556D01*
X224235036Y-64897508D01*
X224085604Y-64896464D01*
X223938815Y-64924466D01*
X223800260Y-64980445D01*
X223675218Y-65062271D01*
X223568450Y-65166826D01*
X223484023Y-65290127D01*
X223425154Y-65427479D01*
X223394085Y-65573650D01*
X223391998Y-65723071D01*
X223418974Y-65870052D01*
X223473985Y-66008994D01*
X223554936Y-66134605D01*
X223658743Y-66242100D01*
X223781452Y-66327385D01*
X223918390Y-66387212D01*
X224064340Y-66419301D01*
X224213743Y-66422430D01*
X224360908Y-66396481D01*
X224435174Y-66367674D01*
X229147750Y-71080250D01*
X229182197Y-71108545D01*
X229211036Y-71132744D01*
X228528613Y-71214118D01*
X227818620Y-71444809D01*
X227166956Y-71809011D01*
X226695000Y-72210677D01*
X226695000Y-69977000D01*
X226690425Y-69930341D01*
X226686332Y-69883553D01*
X226685585Y-69880982D01*
X226685325Y-69878329D01*
X226671782Y-69833473D01*
X226658671Y-69788345D01*
X226657440Y-69785970D01*
X226656669Y-69783416D01*
X226634649Y-69742002D01*
X226613045Y-69700324D01*
X226611378Y-69698236D01*
X226610124Y-69695877D01*
X226580455Y-69659499D01*
X226551191Y-69622841D01*
X226547522Y-69619120D01*
X226547462Y-69619046D01*
X226547393Y-69618989D01*
X226546211Y-69617790D01*
X223082200Y-66153779D01*
X223082200Y-57208522D01*
X223082200Y-56690300D01*
X222999650Y-56607750D01*
X222408750Y-56607750D01*
X222408750Y-57423650D01*
X222491300Y-57506200D01*
X222719478Y-57506200D01*
X222784522Y-57506200D01*
X222848316Y-57493511D01*
X222908408Y-57468620D01*
X222962490Y-57432483D01*
X223008483Y-57386490D01*
X223044619Y-57332408D01*
X223069511Y-57272316D01*
X223082200Y-57208522D01*
X223082200Y-66153779D01*
X223012000Y-66083579D01*
X223012000Y-60198000D01*
X223007420Y-60151300D01*
X223003331Y-60104552D01*
X223002585Y-60101986D01*
X223002325Y-60099329D01*
X222988763Y-60054410D01*
X222975670Y-60009344D01*
X222974441Y-60006973D01*
X222973669Y-60004416D01*
X222951630Y-59962966D01*
X222930044Y-59921323D01*
X222928378Y-59919237D01*
X222927124Y-59916877D01*
X222897445Y-59880487D01*
X222868190Y-59843840D01*
X222864526Y-59840124D01*
X222864462Y-59840046D01*
X222864389Y-59839985D01*
X222863210Y-59838790D01*
X222345250Y-59320830D01*
X222345250Y-57423650D01*
X222345250Y-56607750D01*
X221754350Y-56607750D01*
X221671800Y-56690300D01*
X221671800Y-57208522D01*
X221684489Y-57272316D01*
X221709381Y-57332408D01*
X221745517Y-57386490D01*
X221791510Y-57432483D01*
X221845592Y-57468620D01*
X221905684Y-57493511D01*
X221969478Y-57506200D01*
X222034522Y-57506200D01*
X222262700Y-57506200D01*
X222345250Y-57423650D01*
X222345250Y-59320830D01*
X221986850Y-58962430D01*
X221950611Y-58932663D01*
X221914643Y-58902482D01*
X221912300Y-58901194D01*
X221910238Y-58899500D01*
X221868890Y-58877329D01*
X221827762Y-58854719D01*
X221825216Y-58853911D01*
X221822862Y-58852649D01*
X221777969Y-58838924D01*
X221733259Y-58824741D01*
X221730605Y-58824443D01*
X221728050Y-58823662D01*
X221681327Y-58818916D01*
X221634733Y-58813690D01*
X221629513Y-58813653D01*
X221629413Y-58813643D01*
X221629319Y-58813651D01*
X221627640Y-58813640D01*
X221577813Y-58813640D01*
X221577813Y-56700934D01*
X221530922Y-56464120D01*
X221438927Y-56240924D01*
X221305332Y-56039848D01*
X221135225Y-55868549D01*
X220935086Y-55733553D01*
X220712538Y-55640003D01*
X220476057Y-55591460D01*
X220234651Y-55589775D01*
X219997516Y-55635011D01*
X219773683Y-55725445D01*
X219571679Y-55857633D01*
X219399197Y-56026540D01*
X219262807Y-56225732D01*
X219167705Y-56447622D01*
X219117513Y-56683758D01*
X219114142Y-56925146D01*
X219157722Y-57162591D01*
X219246591Y-57387050D01*
X219377366Y-57589972D01*
X219545064Y-57763629D01*
X219743299Y-57901406D01*
X219964520Y-57998055D01*
X220200300Y-58049895D01*
X220441658Y-58054950D01*
X220679402Y-58013030D01*
X220904476Y-57925729D01*
X221108306Y-57796375D01*
X221283130Y-57629893D01*
X221422287Y-57432624D01*
X221520478Y-57212084D01*
X221573962Y-56976672D01*
X221577813Y-56700934D01*
X221577813Y-58813640D01*
X221468898Y-58813640D01*
X221438927Y-58740924D01*
X221305332Y-58539848D01*
X221135225Y-58368549D01*
X220935086Y-58233553D01*
X220712538Y-58140003D01*
X220476057Y-58091460D01*
X220234651Y-58089775D01*
X219997516Y-58135011D01*
X219773683Y-58225445D01*
X219571679Y-58357633D01*
X219399197Y-58526540D01*
X219262807Y-58725732D01*
X219167705Y-58947622D01*
X219117513Y-59183758D01*
X219114142Y-59425146D01*
X219157722Y-59662591D01*
X219246591Y-59887050D01*
X219377366Y-60089972D01*
X219545064Y-60263629D01*
X219743299Y-60401406D01*
X219964520Y-60498055D01*
X220200300Y-60549895D01*
X220441658Y-60554950D01*
X220679402Y-60513030D01*
X220904476Y-60425729D01*
X221108306Y-60296375D01*
X221283130Y-60129893D01*
X221422287Y-59932624D01*
X221452452Y-59864872D01*
X221996000Y-60408420D01*
X221996000Y-66294000D01*
X222000579Y-66340703D01*
X222004669Y-66387448D01*
X222005414Y-66390013D01*
X222005675Y-66392671D01*
X222019226Y-66437556D01*
X222032329Y-66482655D01*
X222033559Y-66485029D01*
X222034331Y-66487584D01*
X222056339Y-66528977D01*
X222077955Y-66570677D01*
X222079622Y-66572766D01*
X222080876Y-66575123D01*
X222110551Y-66611508D01*
X222139810Y-66648159D01*
X222143472Y-66651873D01*
X222143538Y-66651954D01*
X222143612Y-66652015D01*
X222144790Y-66653210D01*
X224730604Y-69239025D01*
X224616036Y-69215508D01*
X224466604Y-69214464D01*
X224319815Y-69242466D01*
X224181260Y-69298445D01*
X224056218Y-69380271D01*
X223949450Y-69484826D01*
X223865023Y-69608127D01*
X223806154Y-69745479D01*
X223775085Y-69891650D01*
X223772998Y-70041071D01*
X223799974Y-70188052D01*
X223854985Y-70326994D01*
X223935936Y-70452605D01*
X224028000Y-70547939D01*
X224028000Y-71798579D01*
X223944327Y-71882251D01*
X223831604Y-71881464D01*
X223684815Y-71909466D01*
X223546260Y-71965445D01*
X223483005Y-72006838D01*
X223331660Y-71551878D01*
X223085615Y-71118760D01*
X222760130Y-70741682D01*
X222367601Y-70435005D01*
X221922982Y-70210411D01*
X221443206Y-70076455D01*
X220946548Y-70038240D01*
X220451927Y-70097220D01*
X219997688Y-70244810D01*
X220178250Y-70064249D01*
X220206506Y-70029849D01*
X220235200Y-69995653D01*
X220236423Y-69993427D01*
X220238033Y-69991468D01*
X220259093Y-69952191D01*
X220280575Y-69913116D01*
X220281342Y-69910697D01*
X220282542Y-69908460D01*
X220295580Y-69865811D01*
X220309054Y-69823338D01*
X220309336Y-69820816D01*
X220310079Y-69818389D01*
X220314584Y-69774034D01*
X220319553Y-69729738D01*
X220319587Y-69724777D01*
X220319597Y-69724685D01*
X220319588Y-69724598D01*
X220319600Y-69723000D01*
X220319600Y-61595000D01*
X220315253Y-61550674D01*
X220311365Y-61506225D01*
X220310656Y-61503785D01*
X220310409Y-61501263D01*
X220297528Y-61458599D01*
X220285087Y-61415777D01*
X220283919Y-61413524D01*
X220283186Y-61411095D01*
X220262242Y-61371705D01*
X220241742Y-61332157D01*
X220240160Y-61330176D01*
X220238968Y-61327933D01*
X220210783Y-61293375D01*
X220182981Y-61258548D01*
X220179494Y-61255012D01*
X220179439Y-61254944D01*
X220179375Y-61254891D01*
X220178250Y-61253750D01*
X219049600Y-60125100D01*
X219049600Y-55837708D01*
X219146621Y-55745316D01*
X219232761Y-55623205D01*
X219293542Y-55486688D01*
X219326649Y-55340966D01*
X219329033Y-55170282D01*
X219300007Y-55023692D01*
X219243061Y-54885532D01*
X219160365Y-54761063D01*
X219055067Y-54655028D01*
X218931179Y-54571465D01*
X218793420Y-54513556D01*
X218647036Y-54483508D01*
X218497604Y-54482464D01*
X218350815Y-54510466D01*
X218212260Y-54566445D01*
X218087218Y-54648271D01*
X217980450Y-54752826D01*
X217896023Y-54876127D01*
X217837154Y-55013479D01*
X217806085Y-55159650D01*
X217803998Y-55309071D01*
X217830974Y-55456052D01*
X217885985Y-55594994D01*
X217966936Y-55720605D01*
X218070743Y-55828100D01*
X218084400Y-55837591D01*
X218084400Y-60325000D01*
X218088746Y-60369325D01*
X218092635Y-60413775D01*
X218093343Y-60416214D01*
X218093591Y-60418737D01*
X218106471Y-60461400D01*
X218118913Y-60504223D01*
X218120080Y-60506475D01*
X218120814Y-60508905D01*
X218141757Y-60548294D01*
X218162258Y-60587843D01*
X218163839Y-60589823D01*
X218165032Y-60592067D01*
X218193216Y-60626624D01*
X218221019Y-60661452D01*
X218224505Y-60664987D01*
X218224561Y-60665056D01*
X218224624Y-60665108D01*
X218225750Y-60666250D01*
X219354400Y-61794900D01*
X219354400Y-65393594D01*
X219347616Y-65370545D01*
X219346915Y-65369205D01*
X219346479Y-65367759D01*
X219327428Y-65331929D01*
X219308645Y-65296000D01*
X219307699Y-65294823D01*
X219306989Y-65293488D01*
X219281362Y-65262067D01*
X219255938Y-65230445D01*
X219254778Y-65229471D01*
X219253825Y-65228303D01*
X219222624Y-65202491D01*
X219191501Y-65176376D01*
X219190174Y-65175646D01*
X219189012Y-65174685D01*
X219153348Y-65155401D01*
X219117789Y-65135853D01*
X219116349Y-65135396D01*
X219115019Y-65134677D01*
X219076272Y-65122682D01*
X219037610Y-65110418D01*
X219036107Y-65110249D01*
X219034665Y-65109803D01*
X218994381Y-65105569D01*
X218954018Y-65101042D01*
X218951110Y-65101021D01*
X218951009Y-65101011D01*
X218950906Y-65101020D01*
X218948000Y-65101000D01*
X216331000Y-65101000D01*
X216331000Y-47167000D01*
X217932000Y-47167000D01*
X217972412Y-47163037D01*
X218012761Y-47159366D01*
X218014209Y-47158939D01*
X218015715Y-47158792D01*
X218054558Y-47147064D01*
X218093455Y-47135616D01*
X218094794Y-47134915D01*
X218096241Y-47134479D01*
X218132070Y-47115428D01*
X218168000Y-47096645D01*
X218169176Y-47095699D01*
X218170512Y-47094989D01*
X218201932Y-47069362D01*
X218233555Y-47043938D01*
X218234528Y-47042778D01*
X218235697Y-47041825D01*
X218261508Y-47010624D01*
X218287624Y-46979501D01*
X218288353Y-46978174D01*
X218289315Y-46977012D01*
X218308598Y-46941348D01*
X218328147Y-46905789D01*
X218328603Y-46904349D01*
X218329323Y-46903019D01*
X218341317Y-46864272D01*
X218353582Y-46825610D01*
X218353750Y-46824107D01*
X218354197Y-46822665D01*
X218358430Y-46782381D01*
X218362958Y-46742018D01*
X218362978Y-46739110D01*
X218362989Y-46739009D01*
X218362979Y-46738906D01*
X218363000Y-46736000D01*
X218363000Y-45135000D01*
X233249000Y-45135000D01*
X233249000Y-46736000D01*
X233252962Y-46776412D01*
X233256634Y-46816761D01*
X233257060Y-46818209D01*
X233257208Y-46819715D01*
X233268935Y-46858558D01*
X233277718Y-46888400D01*
X232694937Y-46888400D01*
X232675225Y-46868549D01*
X232475086Y-46733553D01*
X232252538Y-46640003D01*
X232016057Y-46591460D01*
X231774651Y-46589775D01*
X231537516Y-46635011D01*
X231529537Y-46638234D01*
X230452212Y-45560908D01*
X230410492Y-45526639D01*
X230369174Y-45491969D01*
X230366482Y-45490489D01*
X230364108Y-45488539D01*
X230316556Y-45463042D01*
X230269261Y-45437041D01*
X230266331Y-45436111D01*
X230263626Y-45434661D01*
X230212054Y-45418893D01*
X230160582Y-45402566D01*
X230157527Y-45402223D01*
X230154592Y-45401326D01*
X230100949Y-45395877D01*
X230047277Y-45389857D01*
X230041267Y-45389815D01*
X230041159Y-45389804D01*
X230041058Y-45389813D01*
X230039120Y-45389800D01*
X221234000Y-45389800D01*
X221180299Y-45395065D01*
X221126536Y-45399769D01*
X221123585Y-45400626D01*
X221120528Y-45400926D01*
X221068887Y-45416517D01*
X221017047Y-45431578D01*
X221014317Y-45432992D01*
X221011379Y-45433880D01*
X220963724Y-45459218D01*
X220915822Y-45484049D01*
X220913423Y-45485963D01*
X220910709Y-45487407D01*
X220868884Y-45521518D01*
X220826716Y-45555181D01*
X220822436Y-45559401D01*
X220822353Y-45559469D01*
X220822289Y-45559545D01*
X220820908Y-45560908D01*
X217645908Y-48735908D01*
X217611639Y-48777627D01*
X217576969Y-48818946D01*
X217575489Y-48821637D01*
X217573539Y-48824012D01*
X217548042Y-48871563D01*
X217522041Y-48918859D01*
X217521111Y-48921788D01*
X217519661Y-48924494D01*
X217503893Y-48976065D01*
X217487566Y-49027538D01*
X217487223Y-49030592D01*
X217486326Y-49033528D01*
X217480877Y-49087170D01*
X217474857Y-49140843D01*
X217474815Y-49146852D01*
X217474804Y-49146961D01*
X217474813Y-49147061D01*
X217474800Y-49149000D01*
X217474800Y-52832000D01*
X217480065Y-52885700D01*
X217484769Y-52939464D01*
X217485626Y-52942414D01*
X217485926Y-52945472D01*
X217501517Y-52997112D01*
X217516578Y-53048953D01*
X217517992Y-53051682D01*
X217518880Y-53054621D01*
X217544218Y-53102275D01*
X217569049Y-53150178D01*
X217570963Y-53152576D01*
X217572407Y-53155291D01*
X217606518Y-53197115D01*
X217640181Y-53239284D01*
X217644401Y-53243563D01*
X217644469Y-53243647D01*
X217644545Y-53243710D01*
X217645908Y-53245092D01*
X219135548Y-54734732D01*
X219177267Y-54769000D01*
X219211088Y-54797379D01*
X219246591Y-54887050D01*
X219377366Y-55089972D01*
X219545064Y-55263629D01*
X219743299Y-55401406D01*
X219964520Y-55498055D01*
X220200300Y-55549895D01*
X220441658Y-55554950D01*
X220679402Y-55513030D01*
X220904476Y-55425729D01*
X221108306Y-55296375D01*
X221283130Y-55129893D01*
X221422287Y-54932624D01*
X221520478Y-54712084D01*
X221573962Y-54476672D01*
X221577813Y-54200934D01*
X221530922Y-53964120D01*
X221438927Y-53740924D01*
X221305332Y-53539848D01*
X221135225Y-53368549D01*
X220935086Y-53233553D01*
X220712538Y-53140003D01*
X220476057Y-53091460D01*
X220234651Y-53089775D01*
X219997516Y-53135011D01*
X219773683Y-53225445D01*
X219571679Y-53357633D01*
X219490405Y-53437221D01*
X218643200Y-52590016D01*
X218643200Y-49390984D01*
X221475984Y-46558200D01*
X229797136Y-46558200D01*
X230049999Y-46811063D01*
X229935086Y-46733553D01*
X229712538Y-46640003D01*
X229476057Y-46591460D01*
X229234651Y-46589775D01*
X228997516Y-46635011D01*
X228773683Y-46725445D01*
X228571679Y-46857633D01*
X228399197Y-47026540D01*
X228262807Y-47225732D01*
X228167705Y-47447622D01*
X228117513Y-47683758D01*
X228114142Y-47925146D01*
X228157722Y-48162591D01*
X228246591Y-48387050D01*
X228377366Y-48589972D01*
X228451171Y-48666400D01*
X228037813Y-48666400D01*
X228037813Y-47700934D01*
X227990922Y-47464120D01*
X227898927Y-47240924D01*
X227765332Y-47039848D01*
X227595225Y-46868549D01*
X227395086Y-46733553D01*
X227172538Y-46640003D01*
X226936057Y-46591460D01*
X226694651Y-46589775D01*
X226457516Y-46635011D01*
X226233683Y-46725445D01*
X226031679Y-46857633D01*
X225859197Y-47026540D01*
X225722807Y-47225732D01*
X225685129Y-47313640D01*
X223704360Y-47313640D01*
X223657701Y-47318214D01*
X223610913Y-47322308D01*
X223608342Y-47323054D01*
X223605689Y-47323315D01*
X223560833Y-47336857D01*
X223515705Y-47349969D01*
X223513330Y-47351199D01*
X223510776Y-47351971D01*
X223469362Y-47373990D01*
X223427684Y-47395595D01*
X223425596Y-47397261D01*
X223423237Y-47398516D01*
X223386859Y-47428184D01*
X223350201Y-47457449D01*
X223346480Y-47461117D01*
X223346406Y-47461178D01*
X223346349Y-47461246D01*
X223345150Y-47462429D01*
X222017790Y-48789790D01*
X221988023Y-48826028D01*
X221957842Y-48861997D01*
X221956554Y-48864339D01*
X221954860Y-48866402D01*
X221932689Y-48907749D01*
X221910079Y-48948878D01*
X221909271Y-48951423D01*
X221908009Y-48953778D01*
X221894284Y-48998670D01*
X221880101Y-49043381D01*
X221879803Y-49046034D01*
X221879022Y-49048590D01*
X221874276Y-49095312D01*
X221869050Y-49141907D01*
X221869013Y-49147126D01*
X221869003Y-49147227D01*
X221869011Y-49147320D01*
X221869000Y-49149000D01*
X221869000Y-53718699D01*
X221821529Y-53738362D01*
X221759127Y-53780058D01*
X221706058Y-53833126D01*
X221664362Y-53895529D01*
X221635642Y-53964866D01*
X221621000Y-54038475D01*
X221621000Y-54113525D01*
X221621000Y-55313525D01*
X221635642Y-55387133D01*
X221664362Y-55456471D01*
X221706058Y-55518873D01*
X221759126Y-55571942D01*
X221821529Y-55613638D01*
X221890866Y-55642358D01*
X221938823Y-55651897D01*
X221905684Y-55658489D01*
X221845592Y-55683380D01*
X221791510Y-55719517D01*
X221745517Y-55765510D01*
X221709381Y-55819592D01*
X221684489Y-55879684D01*
X221671800Y-55943478D01*
X221671800Y-56461700D01*
X221754350Y-56544250D01*
X222345250Y-56544250D01*
X222345250Y-56524250D01*
X222408750Y-56524250D01*
X222408750Y-56544250D01*
X222999650Y-56544250D01*
X223082200Y-56461700D01*
X223082200Y-55943478D01*
X223069511Y-55879684D01*
X223044619Y-55819592D01*
X223008483Y-55765510D01*
X222962490Y-55719517D01*
X222908408Y-55683380D01*
X222848316Y-55658489D01*
X222815176Y-55651897D01*
X222863133Y-55642358D01*
X222932471Y-55613638D01*
X222994873Y-55571942D01*
X223022815Y-55544000D01*
X223225054Y-55544000D01*
X223234362Y-55566471D01*
X223276058Y-55628873D01*
X223329126Y-55681942D01*
X223359074Y-55701952D01*
X223315517Y-55745510D01*
X223279380Y-55799592D01*
X223254489Y-55859684D01*
X223241800Y-55923478D01*
X223241800Y-55988522D01*
X223241800Y-56191700D01*
X223324350Y-56274250D01*
X224640250Y-56274250D01*
X224640250Y-56254250D01*
X224703750Y-56254250D01*
X224703750Y-56274250D01*
X226019650Y-56274250D01*
X226102200Y-56191700D01*
X226102200Y-55988522D01*
X226102200Y-55923478D01*
X226089511Y-55859684D01*
X226064620Y-55799592D01*
X226028483Y-55745510D01*
X225984925Y-55701952D01*
X226014873Y-55681942D01*
X226067942Y-55628874D01*
X226109638Y-55566471D01*
X226138358Y-55497134D01*
X226153000Y-55423525D01*
X226153000Y-55348475D01*
X226153000Y-54648475D01*
X226138358Y-54574867D01*
X226109638Y-54505529D01*
X226067942Y-54443127D01*
X226014874Y-54390058D01*
X225952471Y-54348362D01*
X225883134Y-54319642D01*
X225809525Y-54305000D01*
X225734475Y-54305000D01*
X225393250Y-54305000D01*
X225393250Y-52901850D01*
X225393250Y-52228750D01*
X225393250Y-52165250D01*
X225393250Y-51492150D01*
X225310700Y-51409600D01*
X225000322Y-51409600D01*
X224935278Y-51409600D01*
X224871484Y-51422289D01*
X224811392Y-51447180D01*
X224757310Y-51483317D01*
X224711317Y-51529310D01*
X224675181Y-51583392D01*
X224650289Y-51643484D01*
X224637600Y-51707278D01*
X224637600Y-52082700D01*
X224720150Y-52165250D01*
X225393250Y-52165250D01*
X225393250Y-52228750D01*
X224720150Y-52228750D01*
X224637600Y-52311300D01*
X224637600Y-52686722D01*
X224650289Y-52750516D01*
X224675181Y-52810608D01*
X224711317Y-52864690D01*
X224757310Y-52910683D01*
X224811392Y-52946820D01*
X224871484Y-52971711D01*
X224935278Y-52984400D01*
X225000322Y-52984400D01*
X225310700Y-52984400D01*
X225393250Y-52901850D01*
X225393250Y-54305000D01*
X223534475Y-54305000D01*
X223460867Y-54319642D01*
X223391529Y-54348362D01*
X223329127Y-54390058D01*
X223276058Y-54443126D01*
X223234362Y-54505529D01*
X223225054Y-54528000D01*
X223133000Y-54528000D01*
X223133000Y-54038475D01*
X223118358Y-53964867D01*
X223089638Y-53895529D01*
X223047942Y-53833127D01*
X222994874Y-53780058D01*
X222932471Y-53738362D01*
X222885000Y-53718699D01*
X222885000Y-49359420D01*
X223914780Y-48329640D01*
X225683860Y-48329640D01*
X225706591Y-48387050D01*
X225837366Y-48589972D01*
X226005064Y-48763629D01*
X226203299Y-48901406D01*
X226424520Y-48998055D01*
X226660300Y-49049895D01*
X226901658Y-49054950D01*
X227139402Y-49013030D01*
X227364476Y-48925729D01*
X227568306Y-48796375D01*
X227743130Y-48629893D01*
X227882287Y-48432624D01*
X227980478Y-48212084D01*
X228033962Y-47976672D01*
X228037813Y-47700934D01*
X228037813Y-48666400D01*
X227965000Y-48666400D01*
X227920628Y-48670750D01*
X227876225Y-48674636D01*
X227873790Y-48675343D01*
X227871263Y-48675591D01*
X227828558Y-48688484D01*
X227785777Y-48700913D01*
X227783524Y-48702080D01*
X227781095Y-48702814D01*
X227741705Y-48723757D01*
X227702157Y-48744258D01*
X227700176Y-48745839D01*
X227697933Y-48747032D01*
X227663375Y-48775216D01*
X227628548Y-48803019D01*
X227625016Y-48806501D01*
X227624944Y-48806561D01*
X227624888Y-48806628D01*
X227623750Y-48807751D01*
X227115750Y-49315750D01*
X227087454Y-49350197D01*
X227058800Y-49384347D01*
X227057578Y-49386569D01*
X227055967Y-49388531D01*
X227034885Y-49427848D01*
X227013425Y-49466884D01*
X227012658Y-49469299D01*
X227011458Y-49471539D01*
X226998414Y-49514202D01*
X226984946Y-49556662D01*
X226984663Y-49559183D01*
X226983921Y-49561611D01*
X226979415Y-49605965D01*
X226974447Y-49650262D01*
X226974412Y-49655222D01*
X226974403Y-49655315D01*
X226974411Y-49655401D01*
X226974400Y-49657000D01*
X226974400Y-50469800D01*
X226962275Y-50469800D01*
X226888667Y-50484442D01*
X226819329Y-50513162D01*
X226756927Y-50554858D01*
X226703858Y-50607926D01*
X226662162Y-50670329D01*
X226633442Y-50739666D01*
X226618800Y-50813275D01*
X226618800Y-50888325D01*
X226618800Y-51802725D01*
X226633442Y-51876333D01*
X226662162Y-51945671D01*
X226703858Y-52008073D01*
X226756926Y-52061142D01*
X226819329Y-52102838D01*
X226888666Y-52131558D01*
X226962275Y-52146200D01*
X227037325Y-52146200D01*
X227951725Y-52146200D01*
X228025333Y-52131558D01*
X228094671Y-52102838D01*
X228157073Y-52061142D01*
X228210142Y-52008074D01*
X228251838Y-51945671D01*
X228280558Y-51876334D01*
X228295200Y-51802725D01*
X228295200Y-51727675D01*
X228295200Y-50813275D01*
X228280558Y-50739667D01*
X228251838Y-50670329D01*
X228210142Y-50607927D01*
X228157074Y-50554858D01*
X228094671Y-50513162D01*
X228025334Y-50484442D01*
X227951725Y-50469800D01*
X227939600Y-50469800D01*
X227939600Y-49856899D01*
X228164899Y-49631600D01*
X228581800Y-49631600D01*
X228581800Y-50093700D01*
X228664350Y-50176250D01*
X229330250Y-50176250D01*
X229330250Y-50156250D01*
X229393750Y-50156250D01*
X229393750Y-50176250D01*
X230059650Y-50176250D01*
X230142200Y-50093700D01*
X230142200Y-49631600D01*
X230309000Y-49631600D01*
X230309000Y-49645525D01*
X230309000Y-50845525D01*
X230323642Y-50919133D01*
X230352362Y-50988471D01*
X230394058Y-51050873D01*
X230447126Y-51103942D01*
X230509529Y-51145638D01*
X230578866Y-51174358D01*
X230652475Y-51189000D01*
X230727525Y-51189000D01*
X231438500Y-51189000D01*
X231688660Y-51439160D01*
X231627525Y-51427000D01*
X231552475Y-51427000D01*
X230652475Y-51427000D01*
X230578867Y-51441642D01*
X230509529Y-51470362D01*
X230447127Y-51512058D01*
X230394058Y-51565126D01*
X230352362Y-51627529D01*
X230323642Y-51696866D01*
X230309000Y-51770475D01*
X230309000Y-51845525D01*
X230309000Y-51925400D01*
X230193000Y-51925400D01*
X230193000Y-51770475D01*
X230178358Y-51696867D01*
X230149638Y-51627529D01*
X230142200Y-51616397D01*
X230142200Y-50840522D01*
X230142200Y-50322300D01*
X230059650Y-50239750D01*
X229393750Y-50239750D01*
X229393750Y-51055650D01*
X229476300Y-51138200D01*
X229779478Y-51138200D01*
X229844522Y-51138200D01*
X229908316Y-51125511D01*
X229968408Y-51100620D01*
X230022490Y-51064483D01*
X230068483Y-51018490D01*
X230104619Y-50964408D01*
X230129511Y-50904316D01*
X230142200Y-50840522D01*
X230142200Y-51616397D01*
X230107942Y-51565127D01*
X230054874Y-51512058D01*
X229992471Y-51470362D01*
X229923134Y-51441642D01*
X229849525Y-51427000D01*
X229774475Y-51427000D01*
X229330250Y-51427000D01*
X229330250Y-51055650D01*
X229330250Y-50239750D01*
X228664350Y-50239750D01*
X228581800Y-50322300D01*
X228581800Y-50840522D01*
X228594489Y-50904316D01*
X228619381Y-50964408D01*
X228655517Y-51018490D01*
X228701510Y-51064483D01*
X228755592Y-51100620D01*
X228815684Y-51125511D01*
X228879478Y-51138200D01*
X228944522Y-51138200D01*
X229247700Y-51138200D01*
X229330250Y-51055650D01*
X229330250Y-51427000D01*
X228874475Y-51427000D01*
X228800867Y-51441642D01*
X228731529Y-51470362D01*
X228669127Y-51512058D01*
X228616058Y-51565126D01*
X228574362Y-51627529D01*
X228545642Y-51696866D01*
X228531000Y-51770475D01*
X228531000Y-51845525D01*
X228531000Y-53045525D01*
X228545642Y-53119133D01*
X228574362Y-53188471D01*
X228616058Y-53250873D01*
X228669126Y-53303942D01*
X228731529Y-53345638D01*
X228800866Y-53374358D01*
X228874475Y-53389000D01*
X228949525Y-53389000D01*
X229849525Y-53389000D01*
X229923133Y-53374358D01*
X229992471Y-53345638D01*
X230054873Y-53303942D01*
X230107942Y-53250874D01*
X230149638Y-53188471D01*
X230178358Y-53119134D01*
X230193000Y-53045525D01*
X230193000Y-52970475D01*
X230193000Y-52890600D01*
X230309000Y-52890600D01*
X230309000Y-53045525D01*
X230323642Y-53119133D01*
X230352362Y-53188471D01*
X230394058Y-53250873D01*
X230447126Y-53303942D01*
X230509529Y-53345638D01*
X230578866Y-53374358D01*
X230652475Y-53389000D01*
X230657400Y-53389000D01*
X230657400Y-54102126D01*
X230562604Y-54101464D01*
X230415815Y-54129466D01*
X230277260Y-54185445D01*
X230152218Y-54267271D01*
X230045450Y-54371826D01*
X229961023Y-54495127D01*
X229902154Y-54632479D01*
X229871085Y-54778650D01*
X229868998Y-54928071D01*
X229895974Y-55075052D01*
X229941579Y-55190239D01*
X229842420Y-55148556D01*
X229696036Y-55118508D01*
X229546604Y-55117464D01*
X229399815Y-55145466D01*
X229261260Y-55201445D01*
X229209600Y-55235250D01*
X229209600Y-55075708D01*
X229306621Y-54983316D01*
X229392761Y-54861205D01*
X229453542Y-54724688D01*
X229486649Y-54578966D01*
X229489033Y-54408282D01*
X229460007Y-54261692D01*
X229403061Y-54123532D01*
X229320365Y-53999063D01*
X229215067Y-53893028D01*
X229091179Y-53809465D01*
X228953420Y-53751556D01*
X228807036Y-53721508D01*
X228657604Y-53720464D01*
X228510815Y-53748466D01*
X228372260Y-53804445D01*
X228247218Y-53886271D01*
X228140450Y-53990826D01*
X228056023Y-54114127D01*
X227997154Y-54251479D01*
X227966085Y-54397650D01*
X227963998Y-54547071D01*
X227990974Y-54694052D01*
X228045985Y-54832994D01*
X228126936Y-54958605D01*
X228230743Y-55066100D01*
X228244400Y-55075591D01*
X228244400Y-57404000D01*
X228248746Y-57448325D01*
X228252635Y-57492775D01*
X228253343Y-57495214D01*
X228253591Y-57497737D01*
X228266471Y-57540400D01*
X228278913Y-57583223D01*
X228280080Y-57585475D01*
X228280814Y-57587905D01*
X228301757Y-57627294D01*
X228322258Y-57666843D01*
X228323839Y-57668823D01*
X228325032Y-57671067D01*
X228353216Y-57705624D01*
X228381019Y-57740452D01*
X228384505Y-57743987D01*
X228384561Y-57744056D01*
X228384624Y-57744108D01*
X228385750Y-57745250D01*
X229006400Y-58365900D01*
X229006400Y-62230000D01*
X229010746Y-62274325D01*
X229014635Y-62318775D01*
X229015343Y-62321214D01*
X229015591Y-62323737D01*
X229028471Y-62366400D01*
X229040913Y-62409223D01*
X229042080Y-62411475D01*
X229042814Y-62413905D01*
X229063757Y-62453294D01*
X229084258Y-62492843D01*
X229085839Y-62494823D01*
X229087032Y-62497067D01*
X229115216Y-62531624D01*
X229143019Y-62566452D01*
X229146505Y-62569987D01*
X229146561Y-62570056D01*
X229146624Y-62570108D01*
X229147750Y-62571250D01*
X234721400Y-68144899D01*
X234721400Y-69446900D01*
X234721400Y-69446900D01*
G37*
X234721400Y-69446900D02*
X228828600Y-63554100D01*
X228828600Y-59436000D01*
X228824253Y-59391674D01*
X228820365Y-59347225D01*
X228819656Y-59344785D01*
X228819409Y-59342263D01*
X228806528Y-59299599D01*
X228794087Y-59256777D01*
X228792919Y-59254524D01*
X228792186Y-59252095D01*
X228771242Y-59212705D01*
X228750742Y-59173157D01*
X228749160Y-59171176D01*
X228747968Y-59168933D01*
X228719783Y-59134375D01*
X228691981Y-59099548D01*
X228688494Y-59096012D01*
X228688439Y-59095944D01*
X228688375Y-59095891D01*
X228687250Y-59094750D01*
X226827250Y-57234750D01*
X226792802Y-57206454D01*
X226758653Y-57177800D01*
X226756430Y-57176578D01*
X226754469Y-57174967D01*
X226715151Y-57153885D01*
X226676116Y-57132425D01*
X226673700Y-57131658D01*
X226671461Y-57130458D01*
X226628797Y-57117414D01*
X226586338Y-57103946D01*
X226583816Y-57103663D01*
X226581389Y-57102921D01*
X226537034Y-57098415D01*
X226492738Y-57093447D01*
X226487777Y-57093412D01*
X226487685Y-57093403D01*
X226487598Y-57093411D01*
X226486000Y-57093400D01*
X226263200Y-57093400D01*
X226263200Y-50913725D01*
X226263200Y-50838675D01*
X226263200Y-49924275D01*
X226248558Y-49850667D01*
X226219838Y-49781329D01*
X226178142Y-49718927D01*
X226125074Y-49665858D01*
X226062671Y-49624162D01*
X225993334Y-49595442D01*
X225919725Y-49580800D01*
X225844675Y-49580800D01*
X224930275Y-49580800D01*
X224856667Y-49595442D01*
X224787329Y-49624162D01*
X224724927Y-49665858D01*
X224671858Y-49718926D01*
X224630162Y-49781329D01*
X224601442Y-49850666D01*
X224586800Y-49924275D01*
X224586800Y-49936400D01*
X224486967Y-49936400D01*
X224392179Y-49872465D01*
X224254420Y-49814556D01*
X224108036Y-49784508D01*
X223958604Y-49783464D01*
X223811815Y-49811466D01*
X223673260Y-49867445D01*
X223548218Y-49949271D01*
X223441450Y-50053826D01*
X223357023Y-50177127D01*
X223298154Y-50314479D01*
X223267085Y-50460650D01*
X223264998Y-50610071D01*
X223291974Y-50757052D01*
X223346985Y-50895994D01*
X223427936Y-51021605D01*
X223531743Y-51129100D01*
X223654452Y-51214385D01*
X223791390Y-51274212D01*
X223937340Y-51306301D01*
X224086743Y-51309430D01*
X224233908Y-51283481D01*
X224373231Y-51229441D01*
X224499404Y-51149370D01*
X224607621Y-51046316D01*
X224619120Y-51030014D01*
X224630162Y-51056671D01*
X224671858Y-51119073D01*
X224724926Y-51172142D01*
X224787329Y-51213838D01*
X224856666Y-51242558D01*
X224930275Y-51257200D01*
X225005325Y-51257200D01*
X225919725Y-51257200D01*
X225993333Y-51242558D01*
X226062671Y-51213838D01*
X226125073Y-51172142D01*
X226178142Y-51119074D01*
X226219838Y-51056671D01*
X226248558Y-50987334D01*
X226263200Y-50913725D01*
X226263200Y-57093400D01*
X226212400Y-57093400D01*
X226212400Y-52686722D01*
X226212400Y-52311300D01*
X226212400Y-52082700D01*
X226212400Y-51707278D01*
X226199711Y-51643484D01*
X226174819Y-51583392D01*
X226138683Y-51529310D01*
X226092690Y-51483317D01*
X226038608Y-51447180D01*
X225978516Y-51422289D01*
X225914722Y-51409600D01*
X225849678Y-51409600D01*
X225539300Y-51409600D01*
X225456750Y-51492150D01*
X225456750Y-52165250D01*
X226129850Y-52165250D01*
X226212400Y-52082700D01*
X226212400Y-52311300D01*
X226129850Y-52228750D01*
X225456750Y-52228750D01*
X225456750Y-52901850D01*
X225539300Y-52984400D01*
X225849678Y-52984400D01*
X225914722Y-52984400D01*
X225978516Y-52971711D01*
X226038608Y-52946820D01*
X226092690Y-52910683D01*
X226138683Y-52864690D01*
X226174819Y-52810608D01*
X226199711Y-52750516D01*
X226212400Y-52686722D01*
X226212400Y-57093400D01*
X226129466Y-57093400D01*
X226109638Y-57045529D01*
X226067942Y-56983127D01*
X226014874Y-56930058D01*
X225984925Y-56910047D01*
X226028483Y-56866490D01*
X226064620Y-56812408D01*
X226089511Y-56752316D01*
X226102200Y-56688522D01*
X226102200Y-56623478D01*
X226102200Y-56420300D01*
X226019650Y-56337750D01*
X224703750Y-56337750D01*
X224703750Y-56357750D01*
X224640250Y-56357750D01*
X224640250Y-56337750D01*
X223324350Y-56337750D01*
X223241800Y-56420300D01*
X223241800Y-56623478D01*
X223241800Y-56688522D01*
X223254489Y-56752316D01*
X223279380Y-56812408D01*
X223315517Y-56866490D01*
X223359074Y-56910047D01*
X223329127Y-56930058D01*
X223276058Y-56983126D01*
X223234362Y-57045529D01*
X223205642Y-57114866D01*
X223191000Y-57188475D01*
X223191000Y-57263525D01*
X223191000Y-57963525D01*
X223205642Y-58037133D01*
X223234362Y-58106471D01*
X223276058Y-58168873D01*
X223318184Y-58211000D01*
X223276058Y-58253126D01*
X223234362Y-58315529D01*
X223205642Y-58384866D01*
X223191000Y-58458475D01*
X223191000Y-58533525D01*
X223191000Y-59233525D01*
X223205642Y-59307133D01*
X223234362Y-59376471D01*
X223276058Y-59438873D01*
X223318184Y-59481000D01*
X223276058Y-59523126D01*
X223234362Y-59585529D01*
X223205642Y-59654866D01*
X223191000Y-59728475D01*
X223191000Y-59803525D01*
X223191000Y-60503525D01*
X223205642Y-60577133D01*
X223234362Y-60646471D01*
X223276058Y-60708873D01*
X223318184Y-60751000D01*
X223276058Y-60793126D01*
X223234362Y-60855529D01*
X223205642Y-60924866D01*
X223191000Y-60998475D01*
X223191000Y-61073525D01*
X223191000Y-61773525D01*
X223205642Y-61847133D01*
X223234362Y-61916471D01*
X223276058Y-61978873D01*
X223318184Y-62021000D01*
X223276058Y-62063126D01*
X223234362Y-62125529D01*
X223205642Y-62194866D01*
X223191000Y-62268475D01*
X223191000Y-62343525D01*
X223191000Y-63043525D01*
X223205642Y-63117133D01*
X223234362Y-63186471D01*
X223276058Y-63248873D01*
X223318184Y-63291000D01*
X223276058Y-63333126D01*
X223234362Y-63395529D01*
X223205642Y-63464866D01*
X223191000Y-63538475D01*
X223191000Y-63613525D01*
X223191000Y-64313525D01*
X223205642Y-64387133D01*
X223234362Y-64456471D01*
X223276058Y-64518873D01*
X223329126Y-64571942D01*
X223391529Y-64613638D01*
X223460866Y-64642358D01*
X223534475Y-64657000D01*
X223609525Y-64657000D01*
X224434400Y-64657000D01*
X224434400Y-64897000D01*
X224438746Y-64941325D01*
X224439684Y-64952048D01*
X224381420Y-64927556D01*
X224235036Y-64897508D01*
X224085604Y-64896464D01*
X223938815Y-64924466D01*
X223800260Y-64980445D01*
X223675218Y-65062271D01*
X223568450Y-65166826D01*
X223484023Y-65290127D01*
X223425154Y-65427479D01*
X223394085Y-65573650D01*
X223391998Y-65723071D01*
X223418974Y-65870052D01*
X223473985Y-66008994D01*
X223554936Y-66134605D01*
X223658743Y-66242100D01*
X223781452Y-66327385D01*
X223918390Y-66387212D01*
X224064340Y-66419301D01*
X224213743Y-66422430D01*
X224360908Y-66396481D01*
X224435174Y-66367674D01*
X229147750Y-71080250D01*
X229182197Y-71108545D01*
X229211036Y-71132744D01*
X228528613Y-71214118D01*
X227818620Y-71444809D01*
X227166956Y-71809011D01*
X226695000Y-72210677D01*
X226695000Y-69977000D01*
X226690425Y-69930341D01*
X226686332Y-69883553D01*
X226685585Y-69880982D01*
X226685325Y-69878329D01*
X226671782Y-69833473D01*
X226658671Y-69788345D01*
X226657440Y-69785970D01*
X226656669Y-69783416D01*
X226634649Y-69742002D01*
X226613045Y-69700324D01*
X226611378Y-69698236D01*
X226610124Y-69695877D01*
X226580455Y-69659499D01*
X226551191Y-69622841D01*
X226547522Y-69619120D01*
X226547462Y-69619046D01*
X226547393Y-69618989D01*
X226546211Y-69617790D01*
X223082200Y-66153779D01*
X223082200Y-57208522D01*
X223082200Y-56690300D01*
X222999650Y-56607750D01*
X222408750Y-56607750D01*
X222408750Y-57423650D01*
X222491300Y-57506200D01*
X222719478Y-57506200D01*
X222784522Y-57506200D01*
X222848316Y-57493511D01*
X222908408Y-57468620D01*
X222962490Y-57432483D01*
X223008483Y-57386490D01*
X223044619Y-57332408D01*
X223069511Y-57272316D01*
X223082200Y-57208522D01*
X223082200Y-66153779D01*
X223012000Y-66083579D01*
X223012000Y-60198000D01*
X223007420Y-60151300D01*
X223003331Y-60104552D01*
X223002585Y-60101986D01*
X223002325Y-60099329D01*
X222988763Y-60054410D01*
X222975670Y-60009344D01*
X222974441Y-60006973D01*
X222973669Y-60004416D01*
X222951630Y-59962966D01*
X222930044Y-59921323D01*
X222928378Y-59919237D01*
X222927124Y-59916877D01*
X222897445Y-59880487D01*
X222868190Y-59843840D01*
X222864526Y-59840124D01*
X222864462Y-59840046D01*
X222864389Y-59839985D01*
X222863210Y-59838790D01*
X222345250Y-59320830D01*
X222345250Y-57423650D01*
X222345250Y-56607750D01*
X221754350Y-56607750D01*
X221671800Y-56690300D01*
X221671800Y-57208522D01*
X221684489Y-57272316D01*
X221709381Y-57332408D01*
X221745517Y-57386490D01*
X221791510Y-57432483D01*
X221845592Y-57468620D01*
X221905684Y-57493511D01*
X221969478Y-57506200D01*
X222034522Y-57506200D01*
X222262700Y-57506200D01*
X222345250Y-57423650D01*
X222345250Y-59320830D01*
X221986850Y-58962430D01*
X221950611Y-58932663D01*
X221914643Y-58902482D01*
X221912300Y-58901194D01*
X221910238Y-58899500D01*
X221868890Y-58877329D01*
X221827762Y-58854719D01*
X221825216Y-58853911D01*
X221822862Y-58852649D01*
X221777969Y-58838924D01*
X221733259Y-58824741D01*
X221730605Y-58824443D01*
X221728050Y-58823662D01*
X221681327Y-58818916D01*
X221634733Y-58813690D01*
X221629513Y-58813653D01*
X221629413Y-58813643D01*
X221629319Y-58813651D01*
X221627640Y-58813640D01*
X221577813Y-58813640D01*
X221577813Y-56700934D01*
X221530922Y-56464120D01*
X221438927Y-56240924D01*
X221305332Y-56039848D01*
X221135225Y-55868549D01*
X220935086Y-55733553D01*
X220712538Y-55640003D01*
X220476057Y-55591460D01*
X220234651Y-55589775D01*
X219997516Y-55635011D01*
X219773683Y-55725445D01*
X219571679Y-55857633D01*
X219399197Y-56026540D01*
X219262807Y-56225732D01*
X219167705Y-56447622D01*
X219117513Y-56683758D01*
X219114142Y-56925146D01*
X219157722Y-57162591D01*
X219246591Y-57387050D01*
X219377366Y-57589972D01*
X219545064Y-57763629D01*
X219743299Y-57901406D01*
X219964520Y-57998055D01*
X220200300Y-58049895D01*
X220441658Y-58054950D01*
X220679402Y-58013030D01*
X220904476Y-57925729D01*
X221108306Y-57796375D01*
X221283130Y-57629893D01*
X221422287Y-57432624D01*
X221520478Y-57212084D01*
X221573962Y-56976672D01*
X221577813Y-56700934D01*
X221577813Y-58813640D01*
X221468898Y-58813640D01*
X221438927Y-58740924D01*
X221305332Y-58539848D01*
X221135225Y-58368549D01*
X220935086Y-58233553D01*
X220712538Y-58140003D01*
X220476057Y-58091460D01*
X220234651Y-58089775D01*
X219997516Y-58135011D01*
X219773683Y-58225445D01*
X219571679Y-58357633D01*
X219399197Y-58526540D01*
X219262807Y-58725732D01*
X219167705Y-58947622D01*
X219117513Y-59183758D01*
X219114142Y-59425146D01*
X219157722Y-59662591D01*
X219246591Y-59887050D01*
X219377366Y-60089972D01*
X219545064Y-60263629D01*
X219743299Y-60401406D01*
X219964520Y-60498055D01*
X220200300Y-60549895D01*
X220441658Y-60554950D01*
X220679402Y-60513030D01*
X220904476Y-60425729D01*
X221108306Y-60296375D01*
X221283130Y-60129893D01*
X221422287Y-59932624D01*
X221452452Y-59864872D01*
X221996000Y-60408420D01*
X221996000Y-66294000D01*
X222000579Y-66340703D01*
X222004669Y-66387448D01*
X222005414Y-66390013D01*
X222005675Y-66392671D01*
X222019226Y-66437556D01*
X222032329Y-66482655D01*
X222033559Y-66485029D01*
X222034331Y-66487584D01*
X222056339Y-66528977D01*
X222077955Y-66570677D01*
X222079622Y-66572766D01*
X222080876Y-66575123D01*
X222110551Y-66611508D01*
X222139810Y-66648159D01*
X222143472Y-66651873D01*
X222143538Y-66651954D01*
X222143612Y-66652015D01*
X222144790Y-66653210D01*
X224730604Y-69239025D01*
X224616036Y-69215508D01*
X224466604Y-69214464D01*
X224319815Y-69242466D01*
X224181260Y-69298445D01*
X224056218Y-69380271D01*
X223949450Y-69484826D01*
X223865023Y-69608127D01*
X223806154Y-69745479D01*
X223775085Y-69891650D01*
X223772998Y-70041071D01*
X223799974Y-70188052D01*
X223854985Y-70326994D01*
X223935936Y-70452605D01*
X224028000Y-70547939D01*
X224028000Y-71798579D01*
X223944327Y-71882251D01*
X223831604Y-71881464D01*
X223684815Y-71909466D01*
X223546260Y-71965445D01*
X223483005Y-72006838D01*
X223331660Y-71551878D01*
X223085615Y-71118760D01*
X222760130Y-70741682D01*
X222367601Y-70435005D01*
X221922982Y-70210411D01*
X221443206Y-70076455D01*
X220946548Y-70038240D01*
X220451927Y-70097220D01*
X219997688Y-70244810D01*
X220178250Y-70064249D01*
X220206506Y-70029849D01*
X220235200Y-69995653D01*
X220236423Y-69993427D01*
X220238033Y-69991468D01*
X220259093Y-69952191D01*
X220280575Y-69913116D01*
X220281342Y-69910697D01*
X220282542Y-69908460D01*
X220295580Y-69865811D01*
X220309054Y-69823338D01*
X220309336Y-69820816D01*
X220310079Y-69818389D01*
X220314584Y-69774034D01*
X220319553Y-69729738D01*
X220319587Y-69724777D01*
X220319597Y-69724685D01*
X220319588Y-69724598D01*
X220319600Y-69723000D01*
X220319600Y-61595000D01*
X220315253Y-61550674D01*
X220311365Y-61506225D01*
X220310656Y-61503785D01*
X220310409Y-61501263D01*
X220297528Y-61458599D01*
X220285087Y-61415777D01*
X220283919Y-61413524D01*
X220283186Y-61411095D01*
X220262242Y-61371705D01*
X220241742Y-61332157D01*
X220240160Y-61330176D01*
X220238968Y-61327933D01*
X220210783Y-61293375D01*
X220182981Y-61258548D01*
X220179494Y-61255012D01*
X220179439Y-61254944D01*
X220179375Y-61254891D01*
X220178250Y-61253750D01*
X219049600Y-60125100D01*
X219049600Y-55837708D01*
X219146621Y-55745316D01*
X219232761Y-55623205D01*
X219293542Y-55486688D01*
X219326649Y-55340966D01*
X219329033Y-55170282D01*
X219300007Y-55023692D01*
X219243061Y-54885532D01*
X219160365Y-54761063D01*
X219055067Y-54655028D01*
X218931179Y-54571465D01*
X218793420Y-54513556D01*
X218647036Y-54483508D01*
X218497604Y-54482464D01*
X218350815Y-54510466D01*
X218212260Y-54566445D01*
X218087218Y-54648271D01*
X217980450Y-54752826D01*
X217896023Y-54876127D01*
X217837154Y-55013479D01*
X217806085Y-55159650D01*
X217803998Y-55309071D01*
X217830974Y-55456052D01*
X217885985Y-55594994D01*
X217966936Y-55720605D01*
X218070743Y-55828100D01*
X218084400Y-55837591D01*
X218084400Y-60325000D01*
X218088746Y-60369325D01*
X218092635Y-60413775D01*
X218093343Y-60416214D01*
X218093591Y-60418737D01*
X218106471Y-60461400D01*
X218118913Y-60504223D01*
X218120080Y-60506475D01*
X218120814Y-60508905D01*
X218141757Y-60548294D01*
X218162258Y-60587843D01*
X218163839Y-60589823D01*
X218165032Y-60592067D01*
X218193216Y-60626624D01*
X218221019Y-60661452D01*
X218224505Y-60664987D01*
X218224561Y-60665056D01*
X218224624Y-60665108D01*
X218225750Y-60666250D01*
X219354400Y-61794900D01*
X219354400Y-65393594D01*
X219347616Y-65370545D01*
X219346915Y-65369205D01*
X219346479Y-65367759D01*
X219327428Y-65331929D01*
X219308645Y-65296000D01*
X219307699Y-65294823D01*
X219306989Y-65293488D01*
X219281362Y-65262067D01*
X219255938Y-65230445D01*
X219254778Y-65229471D01*
X219253825Y-65228303D01*
X219222624Y-65202491D01*
X219191501Y-65176376D01*
X219190174Y-65175646D01*
X219189012Y-65174685D01*
X219153348Y-65155401D01*
X219117789Y-65135853D01*
X219116349Y-65135396D01*
X219115019Y-65134677D01*
X219076272Y-65122682D01*
X219037610Y-65110418D01*
X219036107Y-65110249D01*
X219034665Y-65109803D01*
X218994381Y-65105569D01*
X218954018Y-65101042D01*
X218951110Y-65101021D01*
X218951009Y-65101011D01*
X218950906Y-65101020D01*
X218948000Y-65101000D01*
X216331000Y-65101000D01*
X216331000Y-47167000D01*
X217932000Y-47167000D01*
X217972412Y-47163037D01*
X218012761Y-47159366D01*
X218014209Y-47158939D01*
X218015715Y-47158792D01*
X218054558Y-47147064D01*
X218093455Y-47135616D01*
X218094794Y-47134915D01*
X218096241Y-47134479D01*
X218132070Y-47115428D01*
X218168000Y-47096645D01*
X218169176Y-47095699D01*
X218170512Y-47094989D01*
X218201932Y-47069362D01*
X218233555Y-47043938D01*
X218234528Y-47042778D01*
X218235697Y-47041825D01*
X218261508Y-47010624D01*
X218287624Y-46979501D01*
X218288353Y-46978174D01*
X218289315Y-46977012D01*
X218308598Y-46941348D01*
X218328147Y-46905789D01*
X218328603Y-46904349D01*
X218329323Y-46903019D01*
X218341317Y-46864272D01*
X218353582Y-46825610D01*
X218353750Y-46824107D01*
X218354197Y-46822665D01*
X218358430Y-46782381D01*
X218362958Y-46742018D01*
X218362978Y-46739110D01*
X218362989Y-46739009D01*
X218362979Y-46738906D01*
X218363000Y-46736000D01*
X218363000Y-45135000D01*
X233249000Y-45135000D01*
X233249000Y-46736000D01*
X233252962Y-46776412D01*
X233256634Y-46816761D01*
X233257060Y-46818209D01*
X233257208Y-46819715D01*
X233268935Y-46858558D01*
X233277718Y-46888400D01*
X232694937Y-46888400D01*
X232675225Y-46868549D01*
X232475086Y-46733553D01*
X232252538Y-46640003D01*
X232016057Y-46591460D01*
X231774651Y-46589775D01*
X231537516Y-46635011D01*
X231529537Y-46638234D01*
X230452212Y-45560908D01*
X230410492Y-45526639D01*
X230369174Y-45491969D01*
X230366482Y-45490489D01*
X230364108Y-45488539D01*
X230316556Y-45463042D01*
X230269261Y-45437041D01*
X230266331Y-45436111D01*
X230263626Y-45434661D01*
X230212054Y-45418893D01*
X230160582Y-45402566D01*
X230157527Y-45402223D01*
X230154592Y-45401326D01*
X230100949Y-45395877D01*
X230047277Y-45389857D01*
X230041267Y-45389815D01*
X230041159Y-45389804D01*
X230041058Y-45389813D01*
X230039120Y-45389800D01*
X221234000Y-45389800D01*
X221180299Y-45395065D01*
X221126536Y-45399769D01*
X221123585Y-45400626D01*
X221120528Y-45400926D01*
X221068887Y-45416517D01*
X221017047Y-45431578D01*
X221014317Y-45432992D01*
X221011379Y-45433880D01*
X220963724Y-45459218D01*
X220915822Y-45484049D01*
X220913423Y-45485963D01*
X220910709Y-45487407D01*
X220868884Y-45521518D01*
X220826716Y-45555181D01*
X220822436Y-45559401D01*
X220822353Y-45559469D01*
X220822289Y-45559545D01*
X220820908Y-45560908D01*
X217645908Y-48735908D01*
X217611639Y-48777627D01*
X217576969Y-48818946D01*
X217575489Y-48821637D01*
X217573539Y-48824012D01*
X217548042Y-48871563D01*
X217522041Y-48918859D01*
X217521111Y-48921788D01*
X217519661Y-48924494D01*
X217503893Y-48976065D01*
X217487566Y-49027538D01*
X217487223Y-49030592D01*
X217486326Y-49033528D01*
X217480877Y-49087170D01*
X217474857Y-49140843D01*
X217474815Y-49146852D01*
X217474804Y-49146961D01*
X217474813Y-49147061D01*
X217474800Y-49149000D01*
X217474800Y-52832000D01*
X217480065Y-52885700D01*
X217484769Y-52939464D01*
X217485626Y-52942414D01*
X217485926Y-52945472D01*
X217501517Y-52997112D01*
X217516578Y-53048953D01*
X217517992Y-53051682D01*
X217518880Y-53054621D01*
X217544218Y-53102275D01*
X217569049Y-53150178D01*
X217570963Y-53152576D01*
X217572407Y-53155291D01*
X217606518Y-53197115D01*
X217640181Y-53239284D01*
X217644401Y-53243563D01*
X217644469Y-53243647D01*
X217644545Y-53243710D01*
X217645908Y-53245092D01*
X219135548Y-54734732D01*
X219177267Y-54769000D01*
X219211088Y-54797379D01*
X219246591Y-54887050D01*
X219377366Y-55089972D01*
X219545064Y-55263629D01*
X219743299Y-55401406D01*
X219964520Y-55498055D01*
X220200300Y-55549895D01*
X220441658Y-55554950D01*
X220679402Y-55513030D01*
X220904476Y-55425729D01*
X221108306Y-55296375D01*
X221283130Y-55129893D01*
X221422287Y-54932624D01*
X221520478Y-54712084D01*
X221573962Y-54476672D01*
X221577813Y-54200934D01*
X221530922Y-53964120D01*
X221438927Y-53740924D01*
X221305332Y-53539848D01*
X221135225Y-53368549D01*
X220935086Y-53233553D01*
X220712538Y-53140003D01*
X220476057Y-53091460D01*
X220234651Y-53089775D01*
X219997516Y-53135011D01*
X219773683Y-53225445D01*
X219571679Y-53357633D01*
X219490405Y-53437221D01*
X218643200Y-52590016D01*
X218643200Y-49390984D01*
X221475984Y-46558200D01*
X229797136Y-46558200D01*
X230049999Y-46811063D01*
X229935086Y-46733553D01*
X229712538Y-46640003D01*
X229476057Y-46591460D01*
X229234651Y-46589775D01*
X228997516Y-46635011D01*
X228773683Y-46725445D01*
X228571679Y-46857633D01*
X228399197Y-47026540D01*
X228262807Y-47225732D01*
X228167705Y-47447622D01*
X228117513Y-47683758D01*
X228114142Y-47925146D01*
X228157722Y-48162591D01*
X228246591Y-48387050D01*
X228377366Y-48589972D01*
X228451171Y-48666400D01*
X228037813Y-48666400D01*
X228037813Y-47700934D01*
X227990922Y-47464120D01*
X227898927Y-47240924D01*
X227765332Y-47039848D01*
X227595225Y-46868549D01*
X227395086Y-46733553D01*
X227172538Y-46640003D01*
X226936057Y-46591460D01*
X226694651Y-46589775D01*
X226457516Y-46635011D01*
X226233683Y-46725445D01*
X226031679Y-46857633D01*
X225859197Y-47026540D01*
X225722807Y-47225732D01*
X225685129Y-47313640D01*
X223704360Y-47313640D01*
X223657701Y-47318214D01*
X223610913Y-47322308D01*
X223608342Y-47323054D01*
X223605689Y-47323315D01*
X223560833Y-47336857D01*
X223515705Y-47349969D01*
X223513330Y-47351199D01*
X223510776Y-47351971D01*
X223469362Y-47373990D01*
X223427684Y-47395595D01*
X223425596Y-47397261D01*
X223423237Y-47398516D01*
X223386859Y-47428184D01*
X223350201Y-47457449D01*
X223346480Y-47461117D01*
X223346406Y-47461178D01*
X223346349Y-47461246D01*
X223345150Y-47462429D01*
X222017790Y-48789790D01*
X221988023Y-48826028D01*
X221957842Y-48861997D01*
X221956554Y-48864339D01*
X221954860Y-48866402D01*
X221932689Y-48907749D01*
X221910079Y-48948878D01*
X221909271Y-48951423D01*
X221908009Y-48953778D01*
X221894284Y-48998670D01*
X221880101Y-49043381D01*
X221879803Y-49046034D01*
X221879022Y-49048590D01*
X221874276Y-49095312D01*
X221869050Y-49141907D01*
X221869013Y-49147126D01*
X221869003Y-49147227D01*
X221869011Y-49147320D01*
X221869000Y-49149000D01*
X221869000Y-53718699D01*
X221821529Y-53738362D01*
X221759127Y-53780058D01*
X221706058Y-53833126D01*
X221664362Y-53895529D01*
X221635642Y-53964866D01*
X221621000Y-54038475D01*
X221621000Y-54113525D01*
X221621000Y-55313525D01*
X221635642Y-55387133D01*
X221664362Y-55456471D01*
X221706058Y-55518873D01*
X221759126Y-55571942D01*
X221821529Y-55613638D01*
X221890866Y-55642358D01*
X221938823Y-55651897D01*
X221905684Y-55658489D01*
X221845592Y-55683380D01*
X221791510Y-55719517D01*
X221745517Y-55765510D01*
X221709381Y-55819592D01*
X221684489Y-55879684D01*
X221671800Y-55943478D01*
X221671800Y-56461700D01*
X221754350Y-56544250D01*
X222345250Y-56544250D01*
X222345250Y-56524250D01*
X222408750Y-56524250D01*
X222408750Y-56544250D01*
X222999650Y-56544250D01*
X223082200Y-56461700D01*
X223082200Y-55943478D01*
X223069511Y-55879684D01*
X223044619Y-55819592D01*
X223008483Y-55765510D01*
X222962490Y-55719517D01*
X222908408Y-55683380D01*
X222848316Y-55658489D01*
X222815176Y-55651897D01*
X222863133Y-55642358D01*
X222932471Y-55613638D01*
X222994873Y-55571942D01*
X223022815Y-55544000D01*
X223225054Y-55544000D01*
X223234362Y-55566471D01*
X223276058Y-55628873D01*
X223329126Y-55681942D01*
X223359074Y-55701952D01*
X223315517Y-55745510D01*
X223279380Y-55799592D01*
X223254489Y-55859684D01*
X223241800Y-55923478D01*
X223241800Y-55988522D01*
X223241800Y-56191700D01*
X223324350Y-56274250D01*
X224640250Y-56274250D01*
X224640250Y-56254250D01*
X224703750Y-56254250D01*
X224703750Y-56274250D01*
X226019650Y-56274250D01*
X226102200Y-56191700D01*
X226102200Y-55988522D01*
X226102200Y-55923478D01*
X226089511Y-55859684D01*
X226064620Y-55799592D01*
X226028483Y-55745510D01*
X225984925Y-55701952D01*
X226014873Y-55681942D01*
X226067942Y-55628874D01*
X226109638Y-55566471D01*
X226138358Y-55497134D01*
X226153000Y-55423525D01*
X226153000Y-55348475D01*
X226153000Y-54648475D01*
X226138358Y-54574867D01*
X226109638Y-54505529D01*
X226067942Y-54443127D01*
X226014874Y-54390058D01*
X225952471Y-54348362D01*
X225883134Y-54319642D01*
X225809525Y-54305000D01*
X225734475Y-54305000D01*
X225393250Y-54305000D01*
X225393250Y-52901850D01*
X225393250Y-52228750D01*
X225393250Y-52165250D01*
X225393250Y-51492150D01*
X225310700Y-51409600D01*
X225000322Y-51409600D01*
X224935278Y-51409600D01*
X224871484Y-51422289D01*
X224811392Y-51447180D01*
X224757310Y-51483317D01*
X224711317Y-51529310D01*
X224675181Y-51583392D01*
X224650289Y-51643484D01*
X224637600Y-51707278D01*
X224637600Y-52082700D01*
X224720150Y-52165250D01*
X225393250Y-52165250D01*
X225393250Y-52228750D01*
X224720150Y-52228750D01*
X224637600Y-52311300D01*
X224637600Y-52686722D01*
X224650289Y-52750516D01*
X224675181Y-52810608D01*
X224711317Y-52864690D01*
X224757310Y-52910683D01*
X224811392Y-52946820D01*
X224871484Y-52971711D01*
X224935278Y-52984400D01*
X225000322Y-52984400D01*
X225310700Y-52984400D01*
X225393250Y-52901850D01*
X225393250Y-54305000D01*
X223534475Y-54305000D01*
X223460867Y-54319642D01*
X223391529Y-54348362D01*
X223329127Y-54390058D01*
X223276058Y-54443126D01*
X223234362Y-54505529D01*
X223225054Y-54528000D01*
X223133000Y-54528000D01*
X223133000Y-54038475D01*
X223118358Y-53964867D01*
X223089638Y-53895529D01*
X223047942Y-53833127D01*
X222994874Y-53780058D01*
X222932471Y-53738362D01*
X222885000Y-53718699D01*
X222885000Y-49359420D01*
X223914780Y-48329640D01*
X225683860Y-48329640D01*
X225706591Y-48387050D01*
X225837366Y-48589972D01*
X226005064Y-48763629D01*
X226203299Y-48901406D01*
X226424520Y-48998055D01*
X226660300Y-49049895D01*
X226901658Y-49054950D01*
X227139402Y-49013030D01*
X227364476Y-48925729D01*
X227568306Y-48796375D01*
X227743130Y-48629893D01*
X227882287Y-48432624D01*
X227980478Y-48212084D01*
X228033962Y-47976672D01*
X228037813Y-47700934D01*
X228037813Y-48666400D01*
X227965000Y-48666400D01*
X227920628Y-48670750D01*
X227876225Y-48674636D01*
X227873790Y-48675343D01*
X227871263Y-48675591D01*
X227828558Y-48688484D01*
X227785777Y-48700913D01*
X227783524Y-48702080D01*
X227781095Y-48702814D01*
X227741705Y-48723757D01*
X227702157Y-48744258D01*
X227700176Y-48745839D01*
X227697933Y-48747032D01*
X227663375Y-48775216D01*
X227628548Y-48803019D01*
X227625016Y-48806501D01*
X227624944Y-48806561D01*
X227624888Y-48806628D01*
X227623750Y-48807751D01*
X227115750Y-49315750D01*
X227087454Y-49350197D01*
X227058800Y-49384347D01*
X227057578Y-49386569D01*
X227055967Y-49388531D01*
X227034885Y-49427848D01*
X227013425Y-49466884D01*
X227012658Y-49469299D01*
X227011458Y-49471539D01*
X226998414Y-49514202D01*
X226984946Y-49556662D01*
X226984663Y-49559183D01*
X226983921Y-49561611D01*
X226979415Y-49605965D01*
X226974447Y-49650262D01*
X226974412Y-49655222D01*
X226974403Y-49655315D01*
X226974411Y-49655401D01*
X226974400Y-49657000D01*
X226974400Y-50469800D01*
X226962275Y-50469800D01*
X226888667Y-50484442D01*
X226819329Y-50513162D01*
X226756927Y-50554858D01*
X226703858Y-50607926D01*
X226662162Y-50670329D01*
X226633442Y-50739666D01*
X226618800Y-50813275D01*
X226618800Y-50888325D01*
X226618800Y-51802725D01*
X226633442Y-51876333D01*
X226662162Y-51945671D01*
X226703858Y-52008073D01*
X226756926Y-52061142D01*
X226819329Y-52102838D01*
X226888666Y-52131558D01*
X226962275Y-52146200D01*
X227037325Y-52146200D01*
X227951725Y-52146200D01*
X228025333Y-52131558D01*
X228094671Y-52102838D01*
X228157073Y-52061142D01*
X228210142Y-52008074D01*
X228251838Y-51945671D01*
X228280558Y-51876334D01*
X228295200Y-51802725D01*
X228295200Y-51727675D01*
X228295200Y-50813275D01*
X228280558Y-50739667D01*
X228251838Y-50670329D01*
X228210142Y-50607927D01*
X228157074Y-50554858D01*
X228094671Y-50513162D01*
X228025334Y-50484442D01*
X227951725Y-50469800D01*
X227939600Y-50469800D01*
X227939600Y-49856899D01*
X228164899Y-49631600D01*
X228581800Y-49631600D01*
X228581800Y-50093700D01*
X228664350Y-50176250D01*
X229330250Y-50176250D01*
X229330250Y-50156250D01*
X229393750Y-50156250D01*
X229393750Y-50176250D01*
X230059650Y-50176250D01*
X230142200Y-50093700D01*
X230142200Y-49631600D01*
X230309000Y-49631600D01*
X230309000Y-49645525D01*
X230309000Y-50845525D01*
X230323642Y-50919133D01*
X230352362Y-50988471D01*
X230394058Y-51050873D01*
X230447126Y-51103942D01*
X230509529Y-51145638D01*
X230578866Y-51174358D01*
X230652475Y-51189000D01*
X230727525Y-51189000D01*
X231438500Y-51189000D01*
X231688660Y-51439160D01*
X231627525Y-51427000D01*
X231552475Y-51427000D01*
X230652475Y-51427000D01*
X230578867Y-51441642D01*
X230509529Y-51470362D01*
X230447127Y-51512058D01*
X230394058Y-51565126D01*
X230352362Y-51627529D01*
X230323642Y-51696866D01*
X230309000Y-51770475D01*
X230309000Y-51845525D01*
X230309000Y-51925400D01*
X230193000Y-51925400D01*
X230193000Y-51770475D01*
X230178358Y-51696867D01*
X230149638Y-51627529D01*
X230142200Y-51616397D01*
X230142200Y-50840522D01*
X230142200Y-50322300D01*
X230059650Y-50239750D01*
X229393750Y-50239750D01*
X229393750Y-51055650D01*
X229476300Y-51138200D01*
X229779478Y-51138200D01*
X229844522Y-51138200D01*
X229908316Y-51125511D01*
X229968408Y-51100620D01*
X230022490Y-51064483D01*
X230068483Y-51018490D01*
X230104619Y-50964408D01*
X230129511Y-50904316D01*
X230142200Y-50840522D01*
X230142200Y-51616397D01*
X230107942Y-51565127D01*
X230054874Y-51512058D01*
X229992471Y-51470362D01*
X229923134Y-51441642D01*
X229849525Y-51427000D01*
X229774475Y-51427000D01*
X229330250Y-51427000D01*
X229330250Y-51055650D01*
X229330250Y-50239750D01*
X228664350Y-50239750D01*
X228581800Y-50322300D01*
X228581800Y-50840522D01*
X228594489Y-50904316D01*
X228619381Y-50964408D01*
X228655517Y-51018490D01*
X228701510Y-51064483D01*
X228755592Y-51100620D01*
X228815684Y-51125511D01*
X228879478Y-51138200D01*
X228944522Y-51138200D01*
X229247700Y-51138200D01*
X229330250Y-51055650D01*
X229330250Y-51427000D01*
X228874475Y-51427000D01*
X228800867Y-51441642D01*
X228731529Y-51470362D01*
X228669127Y-51512058D01*
X228616058Y-51565126D01*
X228574362Y-51627529D01*
X228545642Y-51696866D01*
X228531000Y-51770475D01*
X228531000Y-51845525D01*
X228531000Y-53045525D01*
X228545642Y-53119133D01*
X228574362Y-53188471D01*
X228616058Y-53250873D01*
X228669126Y-53303942D01*
X228731529Y-53345638D01*
X228800866Y-53374358D01*
X228874475Y-53389000D01*
X228949525Y-53389000D01*
X229849525Y-53389000D01*
X229923133Y-53374358D01*
X229992471Y-53345638D01*
X230054873Y-53303942D01*
X230107942Y-53250874D01*
X230149638Y-53188471D01*
X230178358Y-53119134D01*
X230193000Y-53045525D01*
X230193000Y-52970475D01*
X230193000Y-52890600D01*
X230309000Y-52890600D01*
X230309000Y-53045525D01*
X230323642Y-53119133D01*
X230352362Y-53188471D01*
X230394058Y-53250873D01*
X230447126Y-53303942D01*
X230509529Y-53345638D01*
X230578866Y-53374358D01*
X230652475Y-53389000D01*
X230657400Y-53389000D01*
X230657400Y-54102126D01*
X230562604Y-54101464D01*
X230415815Y-54129466D01*
X230277260Y-54185445D01*
X230152218Y-54267271D01*
X230045450Y-54371826D01*
X229961023Y-54495127D01*
X229902154Y-54632479D01*
X229871085Y-54778650D01*
X229868998Y-54928071D01*
X229895974Y-55075052D01*
X229941579Y-55190239D01*
X229842420Y-55148556D01*
X229696036Y-55118508D01*
X229546604Y-55117464D01*
X229399815Y-55145466D01*
X229261260Y-55201445D01*
X229209600Y-55235250D01*
X229209600Y-55075708D01*
X229306621Y-54983316D01*
X229392761Y-54861205D01*
X229453542Y-54724688D01*
X229486649Y-54578966D01*
X229489033Y-54408282D01*
X229460007Y-54261692D01*
X229403061Y-54123532D01*
X229320365Y-53999063D01*
X229215067Y-53893028D01*
X229091179Y-53809465D01*
X228953420Y-53751556D01*
X228807036Y-53721508D01*
X228657604Y-53720464D01*
X228510815Y-53748466D01*
X228372260Y-53804445D01*
X228247218Y-53886271D01*
X228140450Y-53990826D01*
X228056023Y-54114127D01*
X227997154Y-54251479D01*
X227966085Y-54397650D01*
X227963998Y-54547071D01*
X227990974Y-54694052D01*
X228045985Y-54832994D01*
X228126936Y-54958605D01*
X228230743Y-55066100D01*
X228244400Y-55075591D01*
X228244400Y-57404000D01*
X228248746Y-57448325D01*
X228252635Y-57492775D01*
X228253343Y-57495214D01*
X228253591Y-57497737D01*
X228266471Y-57540400D01*
X228278913Y-57583223D01*
X228280080Y-57585475D01*
X228280814Y-57587905D01*
X228301757Y-57627294D01*
X228322258Y-57666843D01*
X228323839Y-57668823D01*
X228325032Y-57671067D01*
X228353216Y-57705624D01*
X228381019Y-57740452D01*
X228384505Y-57743987D01*
X228384561Y-57744056D01*
X228384624Y-57744108D01*
X228385750Y-57745250D01*
X229006400Y-58365900D01*
X229006400Y-62230000D01*
X229010746Y-62274325D01*
X229014635Y-62318775D01*
X229015343Y-62321214D01*
X229015591Y-62323737D01*
X229028471Y-62366400D01*
X229040913Y-62409223D01*
X229042080Y-62411475D01*
X229042814Y-62413905D01*
X229063757Y-62453294D01*
X229084258Y-62492843D01*
X229085839Y-62494823D01*
X229087032Y-62497067D01*
X229115216Y-62531624D01*
X229143019Y-62566452D01*
X229146505Y-62569987D01*
X229146561Y-62570056D01*
X229146624Y-62570108D01*
X229147750Y-62571250D01*
X234721400Y-68144899D01*
X234721400Y-69446900D01*
G36*
X242393000Y-87274255D02*
X240525627Y-91009000D01*
X237312200Y-91009000D01*
X237312200Y-90456522D01*
X237312200Y-90391478D01*
X237312200Y-89268300D01*
X237312200Y-89039700D01*
X237312200Y-87916522D01*
X237312200Y-87851478D01*
X237299511Y-87787684D01*
X237274620Y-87727592D01*
X237238483Y-87673510D01*
X237192490Y-87627517D01*
X237138408Y-87591381D01*
X237078316Y-87566489D01*
X237014522Y-87553800D01*
X236508250Y-87553800D01*
X235826300Y-87553800D01*
X235743750Y-87636350D01*
X235743750Y-89122250D01*
X237229650Y-89122250D01*
X237312200Y-89039700D01*
X237312200Y-89268300D01*
X237229650Y-89185750D01*
X235743750Y-89185750D01*
X235743750Y-90671650D01*
X235826300Y-90754200D01*
X237014522Y-90754200D01*
X237078316Y-90741511D01*
X237138408Y-90716619D01*
X237192490Y-90680483D01*
X237238483Y-90634490D01*
X237274620Y-90580408D01*
X237299511Y-90520316D01*
X237312200Y-90456522D01*
X237312200Y-91009000D01*
X235680250Y-91009000D01*
X235680250Y-90671650D01*
X235680250Y-89185750D01*
X234194350Y-89185750D01*
X234111800Y-89268300D01*
X234111800Y-90391478D01*
X234111800Y-90456522D01*
X234124489Y-90520316D01*
X234149380Y-90580408D01*
X234185517Y-90634490D01*
X234231510Y-90680483D01*
X234285592Y-90716619D01*
X234345684Y-90741511D01*
X234409478Y-90754200D01*
X235597700Y-90754200D01*
X235680250Y-90671650D01*
X235680250Y-91009000D01*
X231470200Y-91009000D01*
X231470200Y-90456522D01*
X231470200Y-90391478D01*
X231470200Y-89268300D01*
X231387650Y-89185750D01*
X229901750Y-89185750D01*
X229901750Y-90671650D01*
X229984300Y-90754200D01*
X231172522Y-90754200D01*
X231236316Y-90741511D01*
X231296408Y-90716619D01*
X231350490Y-90680483D01*
X231396483Y-90634490D01*
X231432620Y-90580408D01*
X231457511Y-90520316D01*
X231470200Y-90456522D01*
X231470200Y-91009000D01*
X229838250Y-91009000D01*
X229838250Y-90671650D01*
X229838250Y-89185750D01*
X228352350Y-89185750D01*
X228269800Y-89268300D01*
X228269800Y-90391478D01*
X228269800Y-90456522D01*
X228282489Y-90520316D01*
X228307380Y-90580408D01*
X228343517Y-90634490D01*
X228389510Y-90680483D01*
X228443592Y-90716619D01*
X228503684Y-90741511D01*
X228567478Y-90754200D01*
X229755700Y-90754200D01*
X229838250Y-90671650D01*
X229838250Y-91009000D01*
X218198372Y-91009000D01*
X216762545Y-88137345D01*
X216823936Y-88232605D01*
X216927743Y-88340100D01*
X217050452Y-88425385D01*
X217187390Y-88485212D01*
X217333340Y-88517301D01*
X217482743Y-88520430D01*
X217629908Y-88494481D01*
X217769231Y-88440441D01*
X217895404Y-88360370D01*
X218003621Y-88257316D01*
X218089761Y-88135205D01*
X218150542Y-87998688D01*
X218183649Y-87852966D01*
X218186033Y-87682282D01*
X218173205Y-87617498D01*
X218222340Y-87628301D01*
X218371743Y-87631430D01*
X218390604Y-87628104D01*
X218400842Y-87638341D01*
X218398058Y-87641126D01*
X218356362Y-87703529D01*
X218327642Y-87772866D01*
X218313000Y-87846475D01*
X218313000Y-87921525D01*
X218313000Y-90461525D01*
X218327642Y-90535133D01*
X218356362Y-90604471D01*
X218398058Y-90666873D01*
X218451126Y-90719942D01*
X218513529Y-90761638D01*
X218582866Y-90790358D01*
X218656475Y-90805000D01*
X218731525Y-90805000D01*
X221271525Y-90805000D01*
X221345133Y-90790358D01*
X221414471Y-90761638D01*
X221476873Y-90719942D01*
X221529942Y-90666874D01*
X221571638Y-90604471D01*
X221600358Y-90535134D01*
X221615000Y-90461525D01*
X221629642Y-90535133D01*
X221658362Y-90604471D01*
X221700058Y-90666873D01*
X221753126Y-90719942D01*
X221815529Y-90761638D01*
X221884866Y-90790358D01*
X221958475Y-90805000D01*
X222033525Y-90805000D01*
X224573525Y-90805000D01*
X224647133Y-90790358D01*
X224716471Y-90761638D01*
X224778873Y-90719942D01*
X224831942Y-90666874D01*
X224873638Y-90604471D01*
X224902358Y-90535134D01*
X224917000Y-90461525D01*
X224931642Y-90535133D01*
X224960362Y-90604471D01*
X225002058Y-90666873D01*
X225055126Y-90719942D01*
X225117529Y-90761638D01*
X225186866Y-90790358D01*
X225260475Y-90805000D01*
X225335525Y-90805000D01*
X227875525Y-90805000D01*
X227949133Y-90790358D01*
X228018471Y-90761638D01*
X228080873Y-90719942D01*
X228133942Y-90666874D01*
X228175638Y-90604471D01*
X228204358Y-90535134D01*
X228219000Y-90461525D01*
X228219000Y-90386475D01*
X228219000Y-87846475D01*
X228204358Y-87772867D01*
X228175638Y-87703529D01*
X228133942Y-87641127D01*
X228080874Y-87588058D01*
X228018471Y-87546362D01*
X227949134Y-87517642D01*
X227875525Y-87503000D01*
X227800475Y-87503000D01*
X227193598Y-87503000D01*
X227200649Y-87471966D01*
X227203033Y-87301282D01*
X227174007Y-87154692D01*
X227117061Y-87016532D01*
X227034365Y-86892063D01*
X226929067Y-86786028D01*
X226805179Y-86702465D01*
X226667420Y-86644556D01*
X226521036Y-86614508D01*
X226371604Y-86613464D01*
X226224815Y-86641466D01*
X226118371Y-86684471D01*
X226079650Y-86645750D01*
X225263750Y-86645750D01*
X225263750Y-87236650D01*
X225346300Y-87319200D01*
X225679686Y-87319200D01*
X225677998Y-87440071D01*
X225689547Y-87503000D01*
X225260475Y-87503000D01*
X225186867Y-87517642D01*
X225117529Y-87546362D01*
X225055127Y-87588058D01*
X225002058Y-87641126D01*
X224960362Y-87703529D01*
X224931642Y-87772866D01*
X224917000Y-87846475D01*
X224902358Y-87772867D01*
X224873638Y-87703529D01*
X224831942Y-87641127D01*
X224778874Y-87588058D01*
X224716471Y-87546362D01*
X224647134Y-87517642D01*
X224573525Y-87503000D01*
X224498475Y-87503000D01*
X222932500Y-87503000D01*
X222882908Y-87453408D01*
X222884073Y-87370000D01*
X223969525Y-87370000D01*
X224043133Y-87355358D01*
X224112471Y-87326638D01*
X224174873Y-87284942D01*
X224227942Y-87231874D01*
X224269638Y-87169471D01*
X224298358Y-87100134D01*
X224307897Y-87052176D01*
X224314489Y-87085316D01*
X224339380Y-87145408D01*
X224375517Y-87199490D01*
X224421510Y-87245483D01*
X224475592Y-87281619D01*
X224535684Y-87306511D01*
X224599478Y-87319200D01*
X225117700Y-87319200D01*
X225200250Y-87236650D01*
X225200250Y-86645750D01*
X225180250Y-86645750D01*
X225180250Y-86582250D01*
X225200250Y-86582250D01*
X225200250Y-86562250D01*
X225263750Y-86562250D01*
X225263750Y-86582250D01*
X226079650Y-86582250D01*
X226162200Y-86499700D01*
X226162200Y-86271522D01*
X226162200Y-86206478D01*
X226149511Y-86142684D01*
X226124620Y-86082592D01*
X226088483Y-86028510D01*
X226042490Y-85982517D01*
X226031865Y-85975418D01*
X226040000Y-85934525D01*
X226040000Y-85931200D01*
X226522000Y-85931200D01*
X226575700Y-85925934D01*
X226629464Y-85921231D01*
X226632414Y-85920373D01*
X226635472Y-85920074D01*
X226687112Y-85904482D01*
X226699100Y-85901000D01*
X227329208Y-85901000D01*
X227328998Y-85916071D01*
X227355974Y-86063052D01*
X227410985Y-86201994D01*
X227491936Y-86327605D01*
X227595743Y-86435100D01*
X227718452Y-86520385D01*
X227855390Y-86580212D01*
X228001340Y-86612301D01*
X228150743Y-86615430D01*
X228297908Y-86589481D01*
X228437231Y-86535441D01*
X228563404Y-86455370D01*
X228671621Y-86352316D01*
X228724045Y-86278000D01*
X228784525Y-86278000D01*
X229384525Y-86278000D01*
X229458133Y-86263358D01*
X229527471Y-86234638D01*
X229574083Y-86203492D01*
X229600684Y-86214511D01*
X229664478Y-86227200D01*
X229882700Y-86227200D01*
X229965250Y-86144650D01*
X229965250Y-85378750D01*
X229945250Y-85378750D01*
X229945250Y-85315250D01*
X229965250Y-85315250D01*
X229965250Y-84549350D01*
X229882700Y-84466800D01*
X229664478Y-84466800D01*
X229600684Y-84479489D01*
X229574084Y-84490507D01*
X229527471Y-84459362D01*
X229458134Y-84430642D01*
X229384525Y-84416000D01*
X229309475Y-84416000D01*
X228709475Y-84416000D01*
X228676200Y-84422619D01*
X228676200Y-83471381D01*
X228709475Y-83478000D01*
X228784525Y-83478000D01*
X229384525Y-83478000D01*
X229458133Y-83463358D01*
X229527471Y-83434638D01*
X229589873Y-83392942D01*
X229642942Y-83339874D01*
X229684638Y-83277471D01*
X229713358Y-83208134D01*
X229728000Y-83134525D01*
X229728000Y-83059475D01*
X229728000Y-82057000D01*
X229942525Y-82057000D01*
X230016133Y-82042358D01*
X230085471Y-82013638D01*
X230147873Y-81971942D01*
X230200942Y-81918874D01*
X230242638Y-81856471D01*
X230271358Y-81787134D01*
X230286000Y-81713525D01*
X230286000Y-81638475D01*
X230286000Y-80391000D01*
X230724000Y-80391000D01*
X230724000Y-80413525D01*
X230724000Y-81330816D01*
X230533908Y-81520908D01*
X230499639Y-81562627D01*
X230464969Y-81603946D01*
X230463489Y-81606637D01*
X230461539Y-81609012D01*
X230436042Y-81656563D01*
X230415908Y-81693185D01*
X230404127Y-81701058D01*
X230351058Y-81754126D01*
X230309362Y-81816529D01*
X230280642Y-81885866D01*
X230266000Y-81959475D01*
X230266000Y-82034525D01*
X230266000Y-83134525D01*
X230280642Y-83208133D01*
X230309362Y-83277471D01*
X230351058Y-83339873D01*
X230404126Y-83392942D01*
X230466529Y-83434638D01*
X230535866Y-83463358D01*
X230609475Y-83478000D01*
X230684525Y-83478000D01*
X231065717Y-83478000D01*
X231066946Y-83479031D01*
X231069637Y-83480510D01*
X231072012Y-83482461D01*
X231119563Y-83507957D01*
X231166859Y-83533959D01*
X231169788Y-83534888D01*
X231172494Y-83536339D01*
X231224065Y-83552106D01*
X231275538Y-83568434D01*
X231278592Y-83568776D01*
X231281528Y-83569674D01*
X231335170Y-83575122D01*
X231388843Y-83581143D01*
X231394852Y-83581184D01*
X231394961Y-83581196D01*
X231395061Y-83581186D01*
X231397000Y-83581200D01*
X231908000Y-83581200D01*
X231908000Y-83634525D01*
X231922642Y-83708133D01*
X231951362Y-83777471D01*
X231993058Y-83839873D01*
X232046126Y-83892942D01*
X232108529Y-83934638D01*
X232177866Y-83963358D01*
X232225823Y-83972897D01*
X232192684Y-83979489D01*
X232132592Y-84004380D01*
X232078510Y-84040517D01*
X232032517Y-84086510D01*
X231996381Y-84140592D01*
X231971489Y-84200684D01*
X231958800Y-84264478D01*
X231958800Y-84782700D01*
X232041350Y-84865250D01*
X232632250Y-84865250D01*
X232632250Y-84845250D01*
X232695750Y-84845250D01*
X232695750Y-84865250D01*
X233286650Y-84865250D01*
X233362500Y-84789400D01*
X233438350Y-84865250D01*
X234029250Y-84865250D01*
X234029250Y-84845250D01*
X234092750Y-84845250D01*
X234092750Y-84865250D01*
X234683650Y-84865250D01*
X234766200Y-84782700D01*
X234766200Y-84264478D01*
X234753511Y-84200684D01*
X234728619Y-84140592D01*
X234692483Y-84086510D01*
X234646490Y-84040517D01*
X234592408Y-84004380D01*
X234532316Y-83979489D01*
X234499176Y-83972897D01*
X234547133Y-83963358D01*
X234616471Y-83934638D01*
X234678873Y-83892942D01*
X234731942Y-83839874D01*
X234773638Y-83777471D01*
X234802358Y-83708134D01*
X234817000Y-83634525D01*
X234817000Y-83559475D01*
X234817000Y-83521993D01*
X234840390Y-83532212D01*
X234986340Y-83564301D01*
X235135743Y-83567430D01*
X235282908Y-83541481D01*
X235388237Y-83500626D01*
X235387877Y-83504170D01*
X235381857Y-83557843D01*
X235381815Y-83563852D01*
X235381804Y-83563961D01*
X235381813Y-83564061D01*
X235381800Y-83566000D01*
X235381800Y-84467016D01*
X234766200Y-85082616D01*
X234766200Y-85011300D01*
X234683650Y-84928750D01*
X234092750Y-84928750D01*
X234092750Y-84948750D01*
X234029250Y-84948750D01*
X234029250Y-84928750D01*
X233438350Y-84928750D01*
X233362500Y-85004600D01*
X233286650Y-84928750D01*
X232695750Y-84928750D01*
X232695750Y-85744650D01*
X232778300Y-85827200D01*
X233006478Y-85827200D01*
X233071522Y-85827200D01*
X233135316Y-85814511D01*
X233195408Y-85789620D01*
X233249490Y-85753483D01*
X233295483Y-85707490D01*
X233331619Y-85653408D01*
X233356511Y-85593316D01*
X233362500Y-85563206D01*
X233368489Y-85593316D01*
X233393381Y-85653408D01*
X233429517Y-85707490D01*
X233475510Y-85753483D01*
X233529592Y-85789620D01*
X233589684Y-85814511D01*
X233653478Y-85827200D01*
X233718522Y-85827200D01*
X233946700Y-85827200D01*
X234029248Y-85744652D01*
X234029248Y-85819568D01*
X233946016Y-85902800D01*
X232282739Y-85902800D01*
X232267770Y-85827200D01*
X232321522Y-85827200D01*
X232549700Y-85827200D01*
X232632250Y-85744650D01*
X232632250Y-84928750D01*
X232041350Y-84928750D01*
X231958800Y-85011300D01*
X231958800Y-85355122D01*
X231885179Y-85305465D01*
X231747420Y-85247556D01*
X231628000Y-85223042D01*
X231628000Y-84759475D01*
X231613358Y-84685867D01*
X231584638Y-84616529D01*
X231542942Y-84554127D01*
X231489874Y-84501058D01*
X231427471Y-84459362D01*
X231358134Y-84430642D01*
X231284525Y-84416000D01*
X231209475Y-84416000D01*
X230609475Y-84416000D01*
X230535867Y-84430642D01*
X230466529Y-84459362D01*
X230419916Y-84490507D01*
X230393316Y-84479489D01*
X230329522Y-84466800D01*
X230111300Y-84466800D01*
X230028750Y-84549350D01*
X230028750Y-85315250D01*
X230048750Y-85315250D01*
X230048750Y-85378750D01*
X230028750Y-85378750D01*
X230028750Y-86144650D01*
X230111300Y-86227200D01*
X230329522Y-86227200D01*
X230393316Y-86214511D01*
X230419915Y-86203492D01*
X230466529Y-86234638D01*
X230535866Y-86263358D01*
X230609475Y-86278000D01*
X230684525Y-86278000D01*
X230819795Y-86278000D01*
X230839985Y-86328994D01*
X230920936Y-86454605D01*
X231024743Y-86562100D01*
X231135963Y-86639400D01*
X230845253Y-86639400D01*
X230844365Y-86638063D01*
X230739067Y-86532028D01*
X230615179Y-86448465D01*
X230477420Y-86390556D01*
X230331036Y-86360508D01*
X230181604Y-86359464D01*
X230034815Y-86387466D01*
X229896260Y-86443445D01*
X229771218Y-86525271D01*
X229664450Y-86629826D01*
X229580023Y-86753127D01*
X229521154Y-86890479D01*
X229490085Y-87036650D01*
X229487998Y-87186071D01*
X229514974Y-87333052D01*
X229569985Y-87471994D01*
X229622705Y-87553800D01*
X228567478Y-87553800D01*
X228503684Y-87566489D01*
X228443592Y-87591381D01*
X228389510Y-87627517D01*
X228343517Y-87673510D01*
X228307380Y-87727592D01*
X228282489Y-87787684D01*
X228269800Y-87851478D01*
X228269800Y-87916522D01*
X228269800Y-89039700D01*
X228352350Y-89122250D01*
X229838250Y-89122250D01*
X229838250Y-89102250D01*
X229901750Y-89102250D01*
X229901750Y-89122250D01*
X231387650Y-89122250D01*
X231470200Y-89039700D01*
X231470200Y-87916522D01*
X231470200Y-87851478D01*
X231457511Y-87787684D01*
X231432620Y-87727592D01*
X231396483Y-87673510D01*
X231350490Y-87627517D01*
X231316191Y-87604600D01*
X234265808Y-87604600D01*
X234231510Y-87627517D01*
X234185517Y-87673510D01*
X234149380Y-87727592D01*
X234124489Y-87787684D01*
X234111800Y-87851478D01*
X234111800Y-87916522D01*
X234111800Y-89039700D01*
X234194350Y-89122250D01*
X235680250Y-89122250D01*
X235680250Y-87636350D01*
X235597700Y-87553800D01*
X234652961Y-87553800D01*
X234665294Y-87547242D01*
X234704843Y-87526742D01*
X234706823Y-87525160D01*
X234709067Y-87523968D01*
X234743624Y-87495783D01*
X234778452Y-87467981D01*
X234781987Y-87464494D01*
X234782056Y-87464439D01*
X234782108Y-87464375D01*
X234783250Y-87463250D01*
X235609800Y-86636700D01*
X235609800Y-86645752D01*
X235692348Y-86645752D01*
X235609800Y-86728300D01*
X235609800Y-86956478D01*
X235609800Y-87021522D01*
X235622489Y-87085316D01*
X235647380Y-87145408D01*
X235683517Y-87199490D01*
X235729510Y-87245483D01*
X235783592Y-87281619D01*
X235843684Y-87306511D01*
X235907478Y-87319200D01*
X236425700Y-87319200D01*
X236508250Y-87236650D01*
X236508250Y-86645750D01*
X236488250Y-86645750D01*
X236488250Y-86582250D01*
X236508250Y-86582250D01*
X236508250Y-85991350D01*
X236425700Y-85908800D01*
X236337700Y-85908800D01*
X237577250Y-84669250D01*
X237605526Y-84634824D01*
X237634200Y-84600653D01*
X237635423Y-84598427D01*
X237637033Y-84596468D01*
X237658093Y-84557191D01*
X237679575Y-84518116D01*
X237680342Y-84515697D01*
X237681542Y-84513460D01*
X237694580Y-84470811D01*
X237708054Y-84428338D01*
X237708336Y-84425816D01*
X237709079Y-84423389D01*
X237713584Y-84379034D01*
X237718553Y-84334738D01*
X237718587Y-84329777D01*
X237718597Y-84329685D01*
X237718588Y-84329598D01*
X237718600Y-84328000D01*
X237718600Y-84285708D01*
X237815621Y-84193316D01*
X237855800Y-84136358D01*
X237855800Y-85858000D01*
X237802475Y-85858000D01*
X237728867Y-85872642D01*
X237659529Y-85901362D01*
X237597127Y-85943058D01*
X237544058Y-85996126D01*
X237502362Y-86058529D01*
X237473642Y-86127866D01*
X237464102Y-86175823D01*
X237457511Y-86142684D01*
X237432620Y-86082592D01*
X237396483Y-86028510D01*
X237350490Y-85982517D01*
X237296408Y-85946381D01*
X237236316Y-85921489D01*
X237172522Y-85908800D01*
X236654300Y-85908800D01*
X236571750Y-85991350D01*
X236571750Y-86582250D01*
X236591750Y-86582250D01*
X236591750Y-86645750D01*
X236571750Y-86645750D01*
X236571750Y-87236650D01*
X236654300Y-87319200D01*
X237172522Y-87319200D01*
X237236316Y-87306511D01*
X237296408Y-87281619D01*
X237350490Y-87245483D01*
X237396483Y-87199490D01*
X237432620Y-87145408D01*
X237457511Y-87085316D01*
X237464102Y-87052176D01*
X237473642Y-87100133D01*
X237502362Y-87169471D01*
X237544058Y-87231873D01*
X237597126Y-87284942D01*
X237659529Y-87326638D01*
X237728866Y-87355358D01*
X237802475Y-87370000D01*
X237877525Y-87370000D01*
X238369816Y-87370000D01*
X238429800Y-87429983D01*
X238429800Y-87503000D01*
X237706475Y-87503000D01*
X237632867Y-87517642D01*
X237563529Y-87546362D01*
X237501127Y-87588058D01*
X237448058Y-87641126D01*
X237406362Y-87703529D01*
X237377642Y-87772866D01*
X237363000Y-87846475D01*
X237363000Y-87921525D01*
X237363000Y-90461525D01*
X237377642Y-90535133D01*
X237406362Y-90604471D01*
X237448058Y-90666873D01*
X237501126Y-90719942D01*
X237563529Y-90761638D01*
X237632866Y-90790358D01*
X237706475Y-90805000D01*
X237781525Y-90805000D01*
X240321525Y-90805000D01*
X240395133Y-90790358D01*
X240464471Y-90761638D01*
X240526873Y-90719942D01*
X240579942Y-90666874D01*
X240621638Y-90604471D01*
X240650358Y-90535134D01*
X240665000Y-90461525D01*
X240665000Y-90386475D01*
X240665000Y-87846475D01*
X240650358Y-87772867D01*
X240621638Y-87703529D01*
X240579942Y-87641127D01*
X240526874Y-87588058D01*
X240464471Y-87546362D01*
X240395134Y-87517642D01*
X240321525Y-87503000D01*
X240246475Y-87503000D01*
X239598200Y-87503000D01*
X239598200Y-87188000D01*
X239592934Y-87134299D01*
X239588231Y-87080536D01*
X239587373Y-87077585D01*
X239587074Y-87074528D01*
X239571482Y-87022887D01*
X239556422Y-86971047D01*
X239555007Y-86968317D01*
X239554120Y-86965379D01*
X239528802Y-86917764D01*
X239503952Y-86869822D01*
X239502034Y-86867419D01*
X239500593Y-86864709D01*
X239466509Y-86822918D01*
X239432820Y-86780717D01*
X239428602Y-86776440D01*
X239428531Y-86776353D01*
X239428450Y-86776286D01*
X239427092Y-86774909D01*
X239421000Y-86768816D01*
X239421000Y-86201475D01*
X239406358Y-86127867D01*
X239377638Y-86058529D01*
X239335942Y-85996127D01*
X239282874Y-85943058D01*
X239220471Y-85901362D01*
X239151134Y-85872642D01*
X239077525Y-85858000D01*
X239024200Y-85858000D01*
X239024200Y-83500000D01*
X239018934Y-83446299D01*
X239014231Y-83392536D01*
X239013373Y-83389585D01*
X239013074Y-83386528D01*
X238997482Y-83334887D01*
X238982422Y-83283047D01*
X238981007Y-83280317D01*
X238980120Y-83277379D01*
X238954802Y-83229764D01*
X238929952Y-83181822D01*
X238928034Y-83179419D01*
X238926593Y-83176709D01*
X238892509Y-83134918D01*
X238858820Y-83092717D01*
X238854598Y-83088435D01*
X238854531Y-83088353D01*
X238854454Y-83088289D01*
X238853092Y-83086908D01*
X238030092Y-82263908D01*
X237988372Y-82229639D01*
X237947054Y-82194969D01*
X237944362Y-82193489D01*
X237941988Y-82191539D01*
X237894436Y-82166042D01*
X237847141Y-82140041D01*
X237844211Y-82139111D01*
X237841506Y-82137661D01*
X237789934Y-82121893D01*
X237738462Y-82105566D01*
X237735407Y-82105223D01*
X237732472Y-82104326D01*
X237678829Y-82098877D01*
X237625157Y-82092857D01*
X237619147Y-82092815D01*
X237619039Y-82092804D01*
X237618938Y-82092813D01*
X237617000Y-82092800D01*
X236855000Y-82092800D01*
X236801299Y-82098065D01*
X236747536Y-82102769D01*
X236744585Y-82103626D01*
X236741528Y-82103926D01*
X236689887Y-82119517D01*
X236638047Y-82134578D01*
X236635317Y-82135992D01*
X236632379Y-82136880D01*
X236584764Y-82162197D01*
X236536822Y-82187048D01*
X236534419Y-82188965D01*
X236531709Y-82190407D01*
X236489912Y-82224495D01*
X236447716Y-82258181D01*
X236443436Y-82262401D01*
X236443353Y-82262469D01*
X236443289Y-82262545D01*
X236441908Y-82263908D01*
X235837085Y-82868730D01*
X235839033Y-82729282D01*
X235810007Y-82582692D01*
X235753061Y-82444532D01*
X235670365Y-82320063D01*
X235565067Y-82214028D01*
X235460652Y-82143600D01*
X236347000Y-82143600D01*
X236391325Y-82139253D01*
X236435775Y-82135365D01*
X236438214Y-82134656D01*
X236440737Y-82134409D01*
X236483400Y-82121528D01*
X236526223Y-82109087D01*
X236528475Y-82107919D01*
X236530905Y-82107186D01*
X236570294Y-82086242D01*
X236609843Y-82065742D01*
X236611823Y-82064160D01*
X236614067Y-82062968D01*
X236648624Y-82034783D01*
X236683452Y-82006981D01*
X236686987Y-82003494D01*
X236687056Y-82003439D01*
X236687108Y-82003375D01*
X236688250Y-82002250D01*
X237181899Y-81508600D01*
X238179100Y-81508600D01*
X238379989Y-81709489D01*
X238377998Y-81852071D01*
X238404974Y-81999052D01*
X238459985Y-82137994D01*
X238540936Y-82263605D01*
X238644743Y-82371100D01*
X238767452Y-82456385D01*
X238904390Y-82516212D01*
X239050340Y-82548301D01*
X239199743Y-82551430D01*
X239346908Y-82525481D01*
X239486231Y-82471441D01*
X239612404Y-82391370D01*
X239720621Y-82288316D01*
X239806761Y-82166205D01*
X239867542Y-82029688D01*
X239900649Y-81883966D01*
X239903033Y-81713282D01*
X239874007Y-81566692D01*
X239817061Y-81428532D01*
X239734365Y-81304063D01*
X239629067Y-81198028D01*
X239505179Y-81114465D01*
X239496490Y-81110812D01*
X239593621Y-81018316D01*
X239679761Y-80896205D01*
X239740542Y-80759688D01*
X239773649Y-80613966D01*
X239776033Y-80443282D01*
X239747007Y-80296692D01*
X239690061Y-80158532D01*
X239607365Y-80034063D01*
X239502067Y-79928028D01*
X239439603Y-79885896D01*
X239863249Y-79462250D01*
X239891497Y-79427859D01*
X239920200Y-79393653D01*
X239921423Y-79391426D01*
X239923032Y-79389469D01*
X239944074Y-79350225D01*
X239965575Y-79311116D01*
X239966342Y-79308695D01*
X239967541Y-79306461D01*
X239980574Y-79263830D01*
X239994054Y-79221338D01*
X239994336Y-79218818D01*
X239995079Y-79216390D01*
X239999579Y-79172073D01*
X240004553Y-79127738D01*
X240004587Y-79122766D01*
X240004596Y-79122685D01*
X240004588Y-79122608D01*
X240004600Y-79121000D01*
X240004600Y-76653899D01*
X240229899Y-76428600D01*
X240592100Y-76428600D01*
X240817400Y-76653899D01*
X240817400Y-79883000D01*
X240821746Y-79927325D01*
X240825635Y-79971775D01*
X240826343Y-79974214D01*
X240826591Y-79976737D01*
X240839471Y-80019400D01*
X240851913Y-80062223D01*
X240853080Y-80064475D01*
X240853814Y-80066905D01*
X240874757Y-80106294D01*
X240895258Y-80145843D01*
X240896839Y-80147823D01*
X240898032Y-80150067D01*
X240926216Y-80184624D01*
X240954019Y-80219452D01*
X240957505Y-80222987D01*
X240957561Y-80223056D01*
X240957624Y-80223108D01*
X240958750Y-80224250D01*
X241173989Y-80439489D01*
X241171998Y-80582071D01*
X241198974Y-80729052D01*
X241253985Y-80867994D01*
X241334936Y-80993605D01*
X241438743Y-81101100D01*
X241561452Y-81186385D01*
X241698390Y-81246212D01*
X241844340Y-81278301D01*
X241993743Y-81281430D01*
X242140908Y-81255481D01*
X242280231Y-81201441D01*
X242393000Y-81129876D01*
X242393000Y-87274255D01*
X242393000Y-87274255D01*
G37*
X242393000Y-87274255D02*
X240525627Y-91009000D01*
X237312200Y-91009000D01*
X237312200Y-90456522D01*
X237312200Y-90391478D01*
X237312200Y-89268300D01*
X237312200Y-89039700D01*
X237312200Y-87916522D01*
X237312200Y-87851478D01*
X237299511Y-87787684D01*
X237274620Y-87727592D01*
X237238483Y-87673510D01*
X237192490Y-87627517D01*
X237138408Y-87591381D01*
X237078316Y-87566489D01*
X237014522Y-87553800D01*
X236508250Y-87553800D01*
X235826300Y-87553800D01*
X235743750Y-87636350D01*
X235743750Y-89122250D01*
X237229650Y-89122250D01*
X237312200Y-89039700D01*
X237312200Y-89268300D01*
X237229650Y-89185750D01*
X235743750Y-89185750D01*
X235743750Y-90671650D01*
X235826300Y-90754200D01*
X237014522Y-90754200D01*
X237078316Y-90741511D01*
X237138408Y-90716619D01*
X237192490Y-90680483D01*
X237238483Y-90634490D01*
X237274620Y-90580408D01*
X237299511Y-90520316D01*
X237312200Y-90456522D01*
X237312200Y-91009000D01*
X235680250Y-91009000D01*
X235680250Y-90671650D01*
X235680250Y-89185750D01*
X234194350Y-89185750D01*
X234111800Y-89268300D01*
X234111800Y-90391478D01*
X234111800Y-90456522D01*
X234124489Y-90520316D01*
X234149380Y-90580408D01*
X234185517Y-90634490D01*
X234231510Y-90680483D01*
X234285592Y-90716619D01*
X234345684Y-90741511D01*
X234409478Y-90754200D01*
X235597700Y-90754200D01*
X235680250Y-90671650D01*
X235680250Y-91009000D01*
X231470200Y-91009000D01*
X231470200Y-90456522D01*
X231470200Y-90391478D01*
X231470200Y-89268300D01*
X231387650Y-89185750D01*
X229901750Y-89185750D01*
X229901750Y-90671650D01*
X229984300Y-90754200D01*
X231172522Y-90754200D01*
X231236316Y-90741511D01*
X231296408Y-90716619D01*
X231350490Y-90680483D01*
X231396483Y-90634490D01*
X231432620Y-90580408D01*
X231457511Y-90520316D01*
X231470200Y-90456522D01*
X231470200Y-91009000D01*
X229838250Y-91009000D01*
X229838250Y-90671650D01*
X229838250Y-89185750D01*
X228352350Y-89185750D01*
X228269800Y-89268300D01*
X228269800Y-90391478D01*
X228269800Y-90456522D01*
X228282489Y-90520316D01*
X228307380Y-90580408D01*
X228343517Y-90634490D01*
X228389510Y-90680483D01*
X228443592Y-90716619D01*
X228503684Y-90741511D01*
X228567478Y-90754200D01*
X229755700Y-90754200D01*
X229838250Y-90671650D01*
X229838250Y-91009000D01*
X218198372Y-91009000D01*
X216762545Y-88137345D01*
X216823936Y-88232605D01*
X216927743Y-88340100D01*
X217050452Y-88425385D01*
X217187390Y-88485212D01*
X217333340Y-88517301D01*
X217482743Y-88520430D01*
X217629908Y-88494481D01*
X217769231Y-88440441D01*
X217895404Y-88360370D01*
X218003621Y-88257316D01*
X218089761Y-88135205D01*
X218150542Y-87998688D01*
X218183649Y-87852966D01*
X218186033Y-87682282D01*
X218173205Y-87617498D01*
X218222340Y-87628301D01*
X218371743Y-87631430D01*
X218390604Y-87628104D01*
X218400842Y-87638341D01*
X218398058Y-87641126D01*
X218356362Y-87703529D01*
X218327642Y-87772866D01*
X218313000Y-87846475D01*
X218313000Y-87921525D01*
X218313000Y-90461525D01*
X218327642Y-90535133D01*
X218356362Y-90604471D01*
X218398058Y-90666873D01*
X218451126Y-90719942D01*
X218513529Y-90761638D01*
X218582866Y-90790358D01*
X218656475Y-90805000D01*
X218731525Y-90805000D01*
X221271525Y-90805000D01*
X221345133Y-90790358D01*
X221414471Y-90761638D01*
X221476873Y-90719942D01*
X221529942Y-90666874D01*
X221571638Y-90604471D01*
X221600358Y-90535134D01*
X221615000Y-90461525D01*
X221629642Y-90535133D01*
X221658362Y-90604471D01*
X221700058Y-90666873D01*
X221753126Y-90719942D01*
X221815529Y-90761638D01*
X221884866Y-90790358D01*
X221958475Y-90805000D01*
X222033525Y-90805000D01*
X224573525Y-90805000D01*
X224647133Y-90790358D01*
X224716471Y-90761638D01*
X224778873Y-90719942D01*
X224831942Y-90666874D01*
X224873638Y-90604471D01*
X224902358Y-90535134D01*
X224917000Y-90461525D01*
X224931642Y-90535133D01*
X224960362Y-90604471D01*
X225002058Y-90666873D01*
X225055126Y-90719942D01*
X225117529Y-90761638D01*
X225186866Y-90790358D01*
X225260475Y-90805000D01*
X225335525Y-90805000D01*
X227875525Y-90805000D01*
X227949133Y-90790358D01*
X228018471Y-90761638D01*
X228080873Y-90719942D01*
X228133942Y-90666874D01*
X228175638Y-90604471D01*
X228204358Y-90535134D01*
X228219000Y-90461525D01*
X228219000Y-90386475D01*
X228219000Y-87846475D01*
X228204358Y-87772867D01*
X228175638Y-87703529D01*
X228133942Y-87641127D01*
X228080874Y-87588058D01*
X228018471Y-87546362D01*
X227949134Y-87517642D01*
X227875525Y-87503000D01*
X227800475Y-87503000D01*
X227193598Y-87503000D01*
X227200649Y-87471966D01*
X227203033Y-87301282D01*
X227174007Y-87154692D01*
X227117061Y-87016532D01*
X227034365Y-86892063D01*
X226929067Y-86786028D01*
X226805179Y-86702465D01*
X226667420Y-86644556D01*
X226521036Y-86614508D01*
X226371604Y-86613464D01*
X226224815Y-86641466D01*
X226118371Y-86684471D01*
X226079650Y-86645750D01*
X225263750Y-86645750D01*
X225263750Y-87236650D01*
X225346300Y-87319200D01*
X225679686Y-87319200D01*
X225677998Y-87440071D01*
X225689547Y-87503000D01*
X225260475Y-87503000D01*
X225186867Y-87517642D01*
X225117529Y-87546362D01*
X225055127Y-87588058D01*
X225002058Y-87641126D01*
X224960362Y-87703529D01*
X224931642Y-87772866D01*
X224917000Y-87846475D01*
X224902358Y-87772867D01*
X224873638Y-87703529D01*
X224831942Y-87641127D01*
X224778874Y-87588058D01*
X224716471Y-87546362D01*
X224647134Y-87517642D01*
X224573525Y-87503000D01*
X224498475Y-87503000D01*
X222932500Y-87503000D01*
X222882908Y-87453408D01*
X222884073Y-87370000D01*
X223969525Y-87370000D01*
X224043133Y-87355358D01*
X224112471Y-87326638D01*
X224174873Y-87284942D01*
X224227942Y-87231874D01*
X224269638Y-87169471D01*
X224298358Y-87100134D01*
X224307897Y-87052176D01*
X224314489Y-87085316D01*
X224339380Y-87145408D01*
X224375517Y-87199490D01*
X224421510Y-87245483D01*
X224475592Y-87281619D01*
X224535684Y-87306511D01*
X224599478Y-87319200D01*
X225117700Y-87319200D01*
X225200250Y-87236650D01*
X225200250Y-86645750D01*
X225180250Y-86645750D01*
X225180250Y-86582250D01*
X225200250Y-86582250D01*
X225200250Y-86562250D01*
X225263750Y-86562250D01*
X225263750Y-86582250D01*
X226079650Y-86582250D01*
X226162200Y-86499700D01*
X226162200Y-86271522D01*
X226162200Y-86206478D01*
X226149511Y-86142684D01*
X226124620Y-86082592D01*
X226088483Y-86028510D01*
X226042490Y-85982517D01*
X226031865Y-85975418D01*
X226040000Y-85934525D01*
X226040000Y-85931200D01*
X226522000Y-85931200D01*
X226575700Y-85925934D01*
X226629464Y-85921231D01*
X226632414Y-85920373D01*
X226635472Y-85920074D01*
X226687112Y-85904482D01*
X226699100Y-85901000D01*
X227329208Y-85901000D01*
X227328998Y-85916071D01*
X227355974Y-86063052D01*
X227410985Y-86201994D01*
X227491936Y-86327605D01*
X227595743Y-86435100D01*
X227718452Y-86520385D01*
X227855390Y-86580212D01*
X228001340Y-86612301D01*
X228150743Y-86615430D01*
X228297908Y-86589481D01*
X228437231Y-86535441D01*
X228563404Y-86455370D01*
X228671621Y-86352316D01*
X228724045Y-86278000D01*
X228784525Y-86278000D01*
X229384525Y-86278000D01*
X229458133Y-86263358D01*
X229527471Y-86234638D01*
X229574083Y-86203492D01*
X229600684Y-86214511D01*
X229664478Y-86227200D01*
X229882700Y-86227200D01*
X229965250Y-86144650D01*
X229965250Y-85378750D01*
X229945250Y-85378750D01*
X229945250Y-85315250D01*
X229965250Y-85315250D01*
X229965250Y-84549350D01*
X229882700Y-84466800D01*
X229664478Y-84466800D01*
X229600684Y-84479489D01*
X229574084Y-84490507D01*
X229527471Y-84459362D01*
X229458134Y-84430642D01*
X229384525Y-84416000D01*
X229309475Y-84416000D01*
X228709475Y-84416000D01*
X228676200Y-84422619D01*
X228676200Y-83471381D01*
X228709475Y-83478000D01*
X228784525Y-83478000D01*
X229384525Y-83478000D01*
X229458133Y-83463358D01*
X229527471Y-83434638D01*
X229589873Y-83392942D01*
X229642942Y-83339874D01*
X229684638Y-83277471D01*
X229713358Y-83208134D01*
X229728000Y-83134525D01*
X229728000Y-83059475D01*
X229728000Y-82057000D01*
X229942525Y-82057000D01*
X230016133Y-82042358D01*
X230085471Y-82013638D01*
X230147873Y-81971942D01*
X230200942Y-81918874D01*
X230242638Y-81856471D01*
X230271358Y-81787134D01*
X230286000Y-81713525D01*
X230286000Y-81638475D01*
X230286000Y-80391000D01*
X230724000Y-80391000D01*
X230724000Y-80413525D01*
X230724000Y-81330816D01*
X230533908Y-81520908D01*
X230499639Y-81562627D01*
X230464969Y-81603946D01*
X230463489Y-81606637D01*
X230461539Y-81609012D01*
X230436042Y-81656563D01*
X230415908Y-81693185D01*
X230404127Y-81701058D01*
X230351058Y-81754126D01*
X230309362Y-81816529D01*
X230280642Y-81885866D01*
X230266000Y-81959475D01*
X230266000Y-82034525D01*
X230266000Y-83134525D01*
X230280642Y-83208133D01*
X230309362Y-83277471D01*
X230351058Y-83339873D01*
X230404126Y-83392942D01*
X230466529Y-83434638D01*
X230535866Y-83463358D01*
X230609475Y-83478000D01*
X230684525Y-83478000D01*
X231065717Y-83478000D01*
X231066946Y-83479031D01*
X231069637Y-83480510D01*
X231072012Y-83482461D01*
X231119563Y-83507957D01*
X231166859Y-83533959D01*
X231169788Y-83534888D01*
X231172494Y-83536339D01*
X231224065Y-83552106D01*
X231275538Y-83568434D01*
X231278592Y-83568776D01*
X231281528Y-83569674D01*
X231335170Y-83575122D01*
X231388843Y-83581143D01*
X231394852Y-83581184D01*
X231394961Y-83581196D01*
X231395061Y-83581186D01*
X231397000Y-83581200D01*
X231908000Y-83581200D01*
X231908000Y-83634525D01*
X231922642Y-83708133D01*
X231951362Y-83777471D01*
X231993058Y-83839873D01*
X232046126Y-83892942D01*
X232108529Y-83934638D01*
X232177866Y-83963358D01*
X232225823Y-83972897D01*
X232192684Y-83979489D01*
X232132592Y-84004380D01*
X232078510Y-84040517D01*
X232032517Y-84086510D01*
X231996381Y-84140592D01*
X231971489Y-84200684D01*
X231958800Y-84264478D01*
X231958800Y-84782700D01*
X232041350Y-84865250D01*
X232632250Y-84865250D01*
X232632250Y-84845250D01*
X232695750Y-84845250D01*
X232695750Y-84865250D01*
X233286650Y-84865250D01*
X233362500Y-84789400D01*
X233438350Y-84865250D01*
X234029250Y-84865250D01*
X234029250Y-84845250D01*
X234092750Y-84845250D01*
X234092750Y-84865250D01*
X234683650Y-84865250D01*
X234766200Y-84782700D01*
X234766200Y-84264478D01*
X234753511Y-84200684D01*
X234728619Y-84140592D01*
X234692483Y-84086510D01*
X234646490Y-84040517D01*
X234592408Y-84004380D01*
X234532316Y-83979489D01*
X234499176Y-83972897D01*
X234547133Y-83963358D01*
X234616471Y-83934638D01*
X234678873Y-83892942D01*
X234731942Y-83839874D01*
X234773638Y-83777471D01*
X234802358Y-83708134D01*
X234817000Y-83634525D01*
X234817000Y-83559475D01*
X234817000Y-83521993D01*
X234840390Y-83532212D01*
X234986340Y-83564301D01*
X235135743Y-83567430D01*
X235282908Y-83541481D01*
X235388237Y-83500626D01*
X235387877Y-83504170D01*
X235381857Y-83557843D01*
X235381815Y-83563852D01*
X235381804Y-83563961D01*
X235381813Y-83564061D01*
X235381800Y-83566000D01*
X235381800Y-84467016D01*
X234766200Y-85082616D01*
X234766200Y-85011300D01*
X234683650Y-84928750D01*
X234092750Y-84928750D01*
X234092750Y-84948750D01*
X234029250Y-84948750D01*
X234029250Y-84928750D01*
X233438350Y-84928750D01*
X233362500Y-85004600D01*
X233286650Y-84928750D01*
X232695750Y-84928750D01*
X232695750Y-85744650D01*
X232778300Y-85827200D01*
X233006478Y-85827200D01*
X233071522Y-85827200D01*
X233135316Y-85814511D01*
X233195408Y-85789620D01*
X233249490Y-85753483D01*
X233295483Y-85707490D01*
X233331619Y-85653408D01*
X233356511Y-85593316D01*
X233362500Y-85563206D01*
X233368489Y-85593316D01*
X233393381Y-85653408D01*
X233429517Y-85707490D01*
X233475510Y-85753483D01*
X233529592Y-85789620D01*
X233589684Y-85814511D01*
X233653478Y-85827200D01*
X233718522Y-85827200D01*
X233946700Y-85827200D01*
X234029248Y-85744652D01*
X234029248Y-85819568D01*
X233946016Y-85902800D01*
X232282739Y-85902800D01*
X232267770Y-85827200D01*
X232321522Y-85827200D01*
X232549700Y-85827200D01*
X232632250Y-85744650D01*
X232632250Y-84928750D01*
X232041350Y-84928750D01*
X231958800Y-85011300D01*
X231958800Y-85355122D01*
X231885179Y-85305465D01*
X231747420Y-85247556D01*
X231628000Y-85223042D01*
X231628000Y-84759475D01*
X231613358Y-84685867D01*
X231584638Y-84616529D01*
X231542942Y-84554127D01*
X231489874Y-84501058D01*
X231427471Y-84459362D01*
X231358134Y-84430642D01*
X231284525Y-84416000D01*
X231209475Y-84416000D01*
X230609475Y-84416000D01*
X230535867Y-84430642D01*
X230466529Y-84459362D01*
X230419916Y-84490507D01*
X230393316Y-84479489D01*
X230329522Y-84466800D01*
X230111300Y-84466800D01*
X230028750Y-84549350D01*
X230028750Y-85315250D01*
X230048750Y-85315250D01*
X230048750Y-85378750D01*
X230028750Y-85378750D01*
X230028750Y-86144650D01*
X230111300Y-86227200D01*
X230329522Y-86227200D01*
X230393316Y-86214511D01*
X230419915Y-86203492D01*
X230466529Y-86234638D01*
X230535866Y-86263358D01*
X230609475Y-86278000D01*
X230684525Y-86278000D01*
X230819795Y-86278000D01*
X230839985Y-86328994D01*
X230920936Y-86454605D01*
X231024743Y-86562100D01*
X231135963Y-86639400D01*
X230845253Y-86639400D01*
X230844365Y-86638063D01*
X230739067Y-86532028D01*
X230615179Y-86448465D01*
X230477420Y-86390556D01*
X230331036Y-86360508D01*
X230181604Y-86359464D01*
X230034815Y-86387466D01*
X229896260Y-86443445D01*
X229771218Y-86525271D01*
X229664450Y-86629826D01*
X229580023Y-86753127D01*
X229521154Y-86890479D01*
X229490085Y-87036650D01*
X229487998Y-87186071D01*
X229514974Y-87333052D01*
X229569985Y-87471994D01*
X229622705Y-87553800D01*
X228567478Y-87553800D01*
X228503684Y-87566489D01*
X228443592Y-87591381D01*
X228389510Y-87627517D01*
X228343517Y-87673510D01*
X228307380Y-87727592D01*
X228282489Y-87787684D01*
X228269800Y-87851478D01*
X228269800Y-87916522D01*
X228269800Y-89039700D01*
X228352350Y-89122250D01*
X229838250Y-89122250D01*
X229838250Y-89102250D01*
X229901750Y-89102250D01*
X229901750Y-89122250D01*
X231387650Y-89122250D01*
X231470200Y-89039700D01*
X231470200Y-87916522D01*
X231470200Y-87851478D01*
X231457511Y-87787684D01*
X231432620Y-87727592D01*
X231396483Y-87673510D01*
X231350490Y-87627517D01*
X231316191Y-87604600D01*
X234265808Y-87604600D01*
X234231510Y-87627517D01*
X234185517Y-87673510D01*
X234149380Y-87727592D01*
X234124489Y-87787684D01*
X234111800Y-87851478D01*
X234111800Y-87916522D01*
X234111800Y-89039700D01*
X234194350Y-89122250D01*
X235680250Y-89122250D01*
X235680250Y-87636350D01*
X235597700Y-87553800D01*
X234652961Y-87553800D01*
X234665294Y-87547242D01*
X234704843Y-87526742D01*
X234706823Y-87525160D01*
X234709067Y-87523968D01*
X234743624Y-87495783D01*
X234778452Y-87467981D01*
X234781987Y-87464494D01*
X234782056Y-87464439D01*
X234782108Y-87464375D01*
X234783250Y-87463250D01*
X235609800Y-86636700D01*
X235609800Y-86645752D01*
X235692348Y-86645752D01*
X235609800Y-86728300D01*
X235609800Y-86956478D01*
X235609800Y-87021522D01*
X235622489Y-87085316D01*
X235647380Y-87145408D01*
X235683517Y-87199490D01*
X235729510Y-87245483D01*
X235783592Y-87281619D01*
X235843684Y-87306511D01*
X235907478Y-87319200D01*
X236425700Y-87319200D01*
X236508250Y-87236650D01*
X236508250Y-86645750D01*
X236488250Y-86645750D01*
X236488250Y-86582250D01*
X236508250Y-86582250D01*
X236508250Y-85991350D01*
X236425700Y-85908800D01*
X236337700Y-85908800D01*
X237577250Y-84669250D01*
X237605526Y-84634824D01*
X237634200Y-84600653D01*
X237635423Y-84598427D01*
X237637033Y-84596468D01*
X237658093Y-84557191D01*
X237679575Y-84518116D01*
X237680342Y-84515697D01*
X237681542Y-84513460D01*
X237694580Y-84470811D01*
X237708054Y-84428338D01*
X237708336Y-84425816D01*
X237709079Y-84423389D01*
X237713584Y-84379034D01*
X237718553Y-84334738D01*
X237718587Y-84329777D01*
X237718597Y-84329685D01*
X237718588Y-84329598D01*
X237718600Y-84328000D01*
X237718600Y-84285708D01*
X237815621Y-84193316D01*
X237855800Y-84136358D01*
X237855800Y-85858000D01*
X237802475Y-85858000D01*
X237728867Y-85872642D01*
X237659529Y-85901362D01*
X237597127Y-85943058D01*
X237544058Y-85996126D01*
X237502362Y-86058529D01*
X237473642Y-86127866D01*
X237464102Y-86175823D01*
X237457511Y-86142684D01*
X237432620Y-86082592D01*
X237396483Y-86028510D01*
X237350490Y-85982517D01*
X237296408Y-85946381D01*
X237236316Y-85921489D01*
X237172522Y-85908800D01*
X236654300Y-85908800D01*
X236571750Y-85991350D01*
X236571750Y-86582250D01*
X236591750Y-86582250D01*
X236591750Y-86645750D01*
X236571750Y-86645750D01*
X236571750Y-87236650D01*
X236654300Y-87319200D01*
X237172522Y-87319200D01*
X237236316Y-87306511D01*
X237296408Y-87281619D01*
X237350490Y-87245483D01*
X237396483Y-87199490D01*
X237432620Y-87145408D01*
X237457511Y-87085316D01*
X237464102Y-87052176D01*
X237473642Y-87100133D01*
X237502362Y-87169471D01*
X237544058Y-87231873D01*
X237597126Y-87284942D01*
X237659529Y-87326638D01*
X237728866Y-87355358D01*
X237802475Y-87370000D01*
X237877525Y-87370000D01*
X238369816Y-87370000D01*
X238429800Y-87429983D01*
X238429800Y-87503000D01*
X237706475Y-87503000D01*
X237632867Y-87517642D01*
X237563529Y-87546362D01*
X237501127Y-87588058D01*
X237448058Y-87641126D01*
X237406362Y-87703529D01*
X237377642Y-87772866D01*
X237363000Y-87846475D01*
X237363000Y-87921525D01*
X237363000Y-90461525D01*
X237377642Y-90535133D01*
X237406362Y-90604471D01*
X237448058Y-90666873D01*
X237501126Y-90719942D01*
X237563529Y-90761638D01*
X237632866Y-90790358D01*
X237706475Y-90805000D01*
X237781525Y-90805000D01*
X240321525Y-90805000D01*
X240395133Y-90790358D01*
X240464471Y-90761638D01*
X240526873Y-90719942D01*
X240579942Y-90666874D01*
X240621638Y-90604471D01*
X240650358Y-90535134D01*
X240665000Y-90461525D01*
X240665000Y-90386475D01*
X240665000Y-87846475D01*
X240650358Y-87772867D01*
X240621638Y-87703529D01*
X240579942Y-87641127D01*
X240526874Y-87588058D01*
X240464471Y-87546362D01*
X240395134Y-87517642D01*
X240321525Y-87503000D01*
X240246475Y-87503000D01*
X239598200Y-87503000D01*
X239598200Y-87188000D01*
X239592934Y-87134299D01*
X239588231Y-87080536D01*
X239587373Y-87077585D01*
X239587074Y-87074528D01*
X239571482Y-87022887D01*
X239556422Y-86971047D01*
X239555007Y-86968317D01*
X239554120Y-86965379D01*
X239528802Y-86917764D01*
X239503952Y-86869822D01*
X239502034Y-86867419D01*
X239500593Y-86864709D01*
X239466509Y-86822918D01*
X239432820Y-86780717D01*
X239428602Y-86776440D01*
X239428531Y-86776353D01*
X239428450Y-86776286D01*
X239427092Y-86774909D01*
X239421000Y-86768816D01*
X239421000Y-86201475D01*
X239406358Y-86127867D01*
X239377638Y-86058529D01*
X239335942Y-85996127D01*
X239282874Y-85943058D01*
X239220471Y-85901362D01*
X239151134Y-85872642D01*
X239077525Y-85858000D01*
X239024200Y-85858000D01*
X239024200Y-83500000D01*
X239018934Y-83446299D01*
X239014231Y-83392536D01*
X239013373Y-83389585D01*
X239013074Y-83386528D01*
X238997482Y-83334887D01*
X238982422Y-83283047D01*
X238981007Y-83280317D01*
X238980120Y-83277379D01*
X238954802Y-83229764D01*
X238929952Y-83181822D01*
X238928034Y-83179419D01*
X238926593Y-83176709D01*
X238892509Y-83134918D01*
X238858820Y-83092717D01*
X238854598Y-83088435D01*
X238854531Y-83088353D01*
X238854454Y-83088289D01*
X238853092Y-83086908D01*
X238030092Y-82263908D01*
X237988372Y-82229639D01*
X237947054Y-82194969D01*
X237944362Y-82193489D01*
X237941988Y-82191539D01*
X237894436Y-82166042D01*
X237847141Y-82140041D01*
X237844211Y-82139111D01*
X237841506Y-82137661D01*
X237789934Y-82121893D01*
X237738462Y-82105566D01*
X237735407Y-82105223D01*
X237732472Y-82104326D01*
X237678829Y-82098877D01*
X237625157Y-82092857D01*
X237619147Y-82092815D01*
X237619039Y-82092804D01*
X237618938Y-82092813D01*
X237617000Y-82092800D01*
X236855000Y-82092800D01*
X236801299Y-82098065D01*
X236747536Y-82102769D01*
X236744585Y-82103626D01*
X236741528Y-82103926D01*
X236689887Y-82119517D01*
X236638047Y-82134578D01*
X236635317Y-82135992D01*
X236632379Y-82136880D01*
X236584764Y-82162197D01*
X236536822Y-82187048D01*
X236534419Y-82188965D01*
X236531709Y-82190407D01*
X236489912Y-82224495D01*
X236447716Y-82258181D01*
X236443436Y-82262401D01*
X236443353Y-82262469D01*
X236443289Y-82262545D01*
X236441908Y-82263908D01*
X235837085Y-82868730D01*
X235839033Y-82729282D01*
X235810007Y-82582692D01*
X235753061Y-82444532D01*
X235670365Y-82320063D01*
X235565067Y-82214028D01*
X235460652Y-82143600D01*
X236347000Y-82143600D01*
X236391325Y-82139253D01*
X236435775Y-82135365D01*
X236438214Y-82134656D01*
X236440737Y-82134409D01*
X236483400Y-82121528D01*
X236526223Y-82109087D01*
X236528475Y-82107919D01*
X236530905Y-82107186D01*
X236570294Y-82086242D01*
X236609843Y-82065742D01*
X236611823Y-82064160D01*
X236614067Y-82062968D01*
X236648624Y-82034783D01*
X236683452Y-82006981D01*
X236686987Y-82003494D01*
X236687056Y-82003439D01*
X236687108Y-82003375D01*
X236688250Y-82002250D01*
X237181899Y-81508600D01*
X238179100Y-81508600D01*
X238379989Y-81709489D01*
X238377998Y-81852071D01*
X238404974Y-81999052D01*
X238459985Y-82137994D01*
X238540936Y-82263605D01*
X238644743Y-82371100D01*
X238767452Y-82456385D01*
X238904390Y-82516212D01*
X239050340Y-82548301D01*
X239199743Y-82551430D01*
X239346908Y-82525481D01*
X239486231Y-82471441D01*
X239612404Y-82391370D01*
X239720621Y-82288316D01*
X239806761Y-82166205D01*
X239867542Y-82029688D01*
X239900649Y-81883966D01*
X239903033Y-81713282D01*
X239874007Y-81566692D01*
X239817061Y-81428532D01*
X239734365Y-81304063D01*
X239629067Y-81198028D01*
X239505179Y-81114465D01*
X239496490Y-81110812D01*
X239593621Y-81018316D01*
X239679761Y-80896205D01*
X239740542Y-80759688D01*
X239773649Y-80613966D01*
X239776033Y-80443282D01*
X239747007Y-80296692D01*
X239690061Y-80158532D01*
X239607365Y-80034063D01*
X239502067Y-79928028D01*
X239439603Y-79885896D01*
X239863249Y-79462250D01*
X239891497Y-79427859D01*
X239920200Y-79393653D01*
X239921423Y-79391426D01*
X239923032Y-79389469D01*
X239944074Y-79350225D01*
X239965575Y-79311116D01*
X239966342Y-79308695D01*
X239967541Y-79306461D01*
X239980574Y-79263830D01*
X239994054Y-79221338D01*
X239994336Y-79218818D01*
X239995079Y-79216390D01*
X239999579Y-79172073D01*
X240004553Y-79127738D01*
X240004587Y-79122766D01*
X240004596Y-79122685D01*
X240004588Y-79122608D01*
X240004600Y-79121000D01*
X240004600Y-76653899D01*
X240229899Y-76428600D01*
X240592100Y-76428600D01*
X240817400Y-76653899D01*
X240817400Y-79883000D01*
X240821746Y-79927325D01*
X240825635Y-79971775D01*
X240826343Y-79974214D01*
X240826591Y-79976737D01*
X240839471Y-80019400D01*
X240851913Y-80062223D01*
X240853080Y-80064475D01*
X240853814Y-80066905D01*
X240874757Y-80106294D01*
X240895258Y-80145843D01*
X240896839Y-80147823D01*
X240898032Y-80150067D01*
X240926216Y-80184624D01*
X240954019Y-80219452D01*
X240957505Y-80222987D01*
X240957561Y-80223056D01*
X240957624Y-80223108D01*
X240958750Y-80224250D01*
X241173989Y-80439489D01*
X241171998Y-80582071D01*
X241198974Y-80729052D01*
X241253985Y-80867994D01*
X241334936Y-80993605D01*
X241438743Y-81101100D01*
X241561452Y-81186385D01*
X241698390Y-81246212D01*
X241844340Y-81278301D01*
X241993743Y-81281430D01*
X242140908Y-81255481D01*
X242280231Y-81201441D01*
X242393000Y-81129876D01*
X242393000Y-87274255D01*
M02*
