%FSLAX46Y46*%
G04 Gerber Fmt 4.6, Leading zero omitted, Abs format (unit mm)*
G04 Created by KiCad (PCBNEW (2014-10-11 BZR 5175)-product) date ons 19 aug 2015 19:57:52*
%MOMM*%
G01*
G04 APERTURE LIST*
%ADD10C,0.100000*%
%ADD11R,1.200000X0.900000*%
%ADD12C,1.700000*%
%ADD13R,0.750000X1.200000*%
%ADD14R,1.200000X0.750000*%
%ADD15R,1.198880X1.198880*%
%ADD16R,0.900000X1.200000*%
%ADD17R,1.300480X0.254000*%
%ADD18R,0.254000X1.300480*%
%ADD19R,0.350520X0.800100*%
%ADD20R,0.800100X0.350520*%
%ADD21R,1.899920X1.899920*%
%ADD22R,2.540000X2.032000*%
%ADD23C,0.762000*%
%ADD24C,0.203200*%
%ADD25C,0.406400*%
%ADD26C,0.254000*%
G04 APERTURE END LIST*
D10*
D11*
X237660000Y-75692000D03*
X239860000Y-75692000D03*
D12*
X229346760Y-47821640D03*
X231886760Y-47821640D03*
X226806760Y-47821640D03*
X220346760Y-54321640D03*
X220346760Y-56821640D03*
X220346760Y-59321640D03*
D13*
X229108000Y-82484000D03*
X229108000Y-80584000D03*
X241046000Y-87564000D03*
X241046000Y-85664000D03*
D14*
X233614000Y-87376000D03*
X231714000Y-87376000D03*
D13*
X227330000Y-81600000D03*
X227330000Y-83500000D03*
D14*
X217363000Y-85598000D03*
X219263000Y-85598000D03*
D15*
X232884980Y-67056000D03*
X234983020Y-67056000D03*
X228566980Y-67056000D03*
X230665020Y-67056000D03*
X224248980Y-67056000D03*
X226347020Y-67056000D03*
D11*
X232834000Y-68834000D03*
X235034000Y-68834000D03*
X221318000Y-75946000D03*
X219118000Y-75946000D03*
X228516000Y-68834000D03*
X230716000Y-68834000D03*
D16*
X239776000Y-90254000D03*
X239776000Y-88054000D03*
X238252000Y-90254000D03*
X238252000Y-88054000D03*
X236728000Y-90254000D03*
X236728000Y-88054000D03*
X235204000Y-90254000D03*
X235204000Y-88054000D03*
D11*
X224198000Y-68834000D03*
X226398000Y-68834000D03*
D17*
X232374440Y-82529680D03*
X232374440Y-82029300D03*
X232374440Y-81528920D03*
X232374440Y-81031080D03*
X232374440Y-80530700D03*
X232374440Y-84030820D03*
X232374440Y-83530440D03*
X232374440Y-83030060D03*
D18*
X233723180Y-77180440D03*
X234223560Y-77180440D03*
X234723940Y-77180440D03*
X235224320Y-77180440D03*
X235724700Y-77180440D03*
X236225080Y-77180440D03*
X236722920Y-77180440D03*
X237223300Y-77180440D03*
D17*
X240573560Y-78529180D03*
X240573560Y-79029560D03*
X240573560Y-79529940D03*
X240573560Y-80030320D03*
X240573560Y-80530700D03*
X240573560Y-81031080D03*
X240573560Y-81528920D03*
X240573560Y-82029300D03*
D18*
X239224820Y-85379560D03*
X238724440Y-85379560D03*
X238224060Y-85379560D03*
X237723680Y-85379560D03*
X237223300Y-85379560D03*
X236722920Y-85379560D03*
X236225080Y-85379560D03*
X235724700Y-85379560D03*
D17*
X232374440Y-80030320D03*
X232374440Y-79529940D03*
X232374440Y-79029560D03*
X232374440Y-78529180D03*
D18*
X237723680Y-77180440D03*
X238224060Y-77180440D03*
X238724440Y-77180440D03*
X239224820Y-77180440D03*
D17*
X240573560Y-82529680D03*
X240573560Y-83030060D03*
X240573560Y-83530440D03*
X240573560Y-84030820D03*
D18*
X235224320Y-85379560D03*
X234723940Y-85379560D03*
X234223560Y-85379560D03*
X233723180Y-85379560D03*
D19*
X221264480Y-83113880D03*
X220614240Y-83113880D03*
X219964000Y-83113880D03*
X219313760Y-83113880D03*
D20*
X217111580Y-82214720D03*
X217111580Y-81564480D03*
X217111580Y-80914240D03*
X217111580Y-80264000D03*
X217111580Y-79613760D03*
X217111580Y-78963520D03*
X217111580Y-78313280D03*
D19*
X221914720Y-83113880D03*
D21*
X219014040Y-81213960D03*
X220913960Y-81213960D03*
X220913960Y-79314040D03*
X219014040Y-79314040D03*
D19*
X217962480Y-77411580D03*
X218612720Y-77411580D03*
X219262960Y-77411580D03*
X219964000Y-77411580D03*
X220563440Y-77411580D03*
X221213680Y-77411580D03*
X221863920Y-77411580D03*
D20*
X222813880Y-78313280D03*
X222813880Y-78963520D03*
X222813880Y-79613760D03*
X222813880Y-80264000D03*
X222813880Y-80914240D03*
X222813880Y-81564480D03*
X222813880Y-82214720D03*
D19*
X218663520Y-83113880D03*
X218013280Y-83113880D03*
D22*
X238887000Y-46863000D03*
X238887000Y-49403000D03*
X238887000Y-51903000D03*
D23*
X223393000Y-76454000D03*
X222504000Y-75057000D03*
X218567000Y-55245000D03*
X229616000Y-55880000D03*
X228092000Y-85852000D03*
X231521000Y-85979000D03*
X217424000Y-73660000D03*
X237236000Y-83693000D03*
X230251000Y-87122000D03*
X217424000Y-87757000D03*
X238506000Y-78613000D03*
X241427000Y-51943000D03*
X237363000Y-78613000D03*
X241427000Y-49530000D03*
X237617000Y-66675000D03*
X221107000Y-69596000D03*
X242062000Y-82042000D03*
X222885000Y-68072000D03*
X228092000Y-58039000D03*
X240284000Y-76835000D03*
X227457000Y-54229000D03*
X226314000Y-82423000D03*
X220913960Y-81213960D03*
X219014040Y-81213960D03*
X220913960Y-79314040D03*
X217551000Y-84455000D03*
X219014040Y-79314040D03*
X217805000Y-76073000D03*
X233553000Y-88392000D03*
X237236000Y-81788000D03*
X239141000Y-82804000D03*
X231521000Y-65659000D03*
X229997000Y-69977000D03*
X231521000Y-70485000D03*
X235712000Y-80137000D03*
X235077000Y-79248000D03*
X234188000Y-78613000D03*
X232664000Y-70612000D03*
X239141000Y-81788000D03*
X225298000Y-78994000D03*
X239014000Y-80518000D03*
X224536000Y-78486000D03*
X235077000Y-82804000D03*
X218313000Y-86868000D03*
X225298000Y-70739000D03*
X222123000Y-87376000D03*
X226441000Y-87376000D03*
X224536000Y-69977000D03*
X223901000Y-72644000D03*
X225679000Y-81280000D03*
X241935000Y-80518000D03*
X228727000Y-54483000D03*
X224028000Y-50546000D03*
X232791000Y-77597000D03*
X224155000Y-65659000D03*
X230632000Y-54864000D03*
D24*
X223393000Y-76454000D02*
X222504000Y-75565000D01*
X222504000Y-75565000D02*
X222504000Y-75057000D01*
X218567000Y-55245000D02*
X218567000Y-53467000D01*
X218567000Y-53467000D02*
X219329000Y-52705000D01*
X219329000Y-52705000D02*
X221107000Y-52705000D01*
X221107000Y-52705000D02*
X224282000Y-55880000D01*
X224282000Y-55880000D02*
X229616000Y-55880000D01*
D25*
X228092000Y-85852000D02*
X228219000Y-85979000D01*
X228219000Y-85979000D02*
X231521000Y-85979000D01*
D26*
X239776000Y-86360000D02*
X239776000Y-88054000D01*
X239224820Y-85808820D02*
X239776000Y-86360000D01*
X239224820Y-85379560D02*
X239224820Y-85808820D01*
X238724440Y-86903560D02*
X238252000Y-87376000D01*
X238252000Y-87376000D02*
X238252000Y-88054000D01*
X238724440Y-85379560D02*
X238724440Y-86903560D01*
X236728000Y-87503000D02*
X236728000Y-88054000D01*
X238224060Y-86641940D02*
X237871000Y-86995000D01*
X237871000Y-86995000D02*
X237236000Y-86995000D01*
X237236000Y-86995000D02*
X236728000Y-87503000D01*
X238224060Y-85379560D02*
X238224060Y-86641940D01*
X237723680Y-86253320D02*
X237490000Y-86487000D01*
X237490000Y-86487000D02*
X235712000Y-86487000D01*
X235712000Y-86487000D02*
X235204000Y-86995000D01*
X235204000Y-86995000D02*
X235204000Y-88054000D01*
X237723680Y-85379560D02*
X237723680Y-86253320D01*
D24*
X219837000Y-75057000D02*
X218821000Y-75057000D01*
X218821000Y-75057000D02*
X217424000Y-73660000D01*
X237236000Y-83693000D02*
X236220000Y-83693000D01*
X236220000Y-83693000D02*
X235724700Y-84188300D01*
X235724700Y-84188300D02*
X235724700Y-85379560D01*
X230251000Y-87122000D02*
X229235000Y-88138000D01*
X229235000Y-88138000D02*
X217805000Y-88138000D01*
X217805000Y-88138000D02*
X217424000Y-87757000D01*
X223647000Y-79375000D02*
X223647000Y-77851000D01*
X223647000Y-77851000D02*
X221742000Y-75946000D01*
X221742000Y-75946000D02*
X221318000Y-75946000D01*
X223408240Y-79613760D02*
X222813880Y-79613760D01*
X223647000Y-79375000D02*
X223408240Y-79613760D01*
X220726000Y-75946000D02*
X221318000Y-75946000D01*
X219837000Y-75057000D02*
X220726000Y-75946000D01*
X238224060Y-77180440D02*
X238224060Y-78331060D01*
X238224060Y-78331060D02*
X238506000Y-78613000D01*
X241427000Y-51943000D02*
X241387000Y-51903000D01*
X241387000Y-51903000D02*
X238887000Y-51903000D01*
X237723680Y-77180440D02*
X237723680Y-78252320D01*
X237723680Y-78252320D02*
X237363000Y-78613000D01*
X241300000Y-49403000D02*
X238887000Y-49403000D01*
X241427000Y-49530000D02*
X241300000Y-49403000D01*
D26*
X227611940Y-79529940D02*
X224790000Y-76708000D01*
X224790000Y-76708000D02*
X224790000Y-72136000D01*
X224790000Y-72136000D02*
X221234000Y-68580000D01*
X221234000Y-68580000D02*
X221234000Y-62738000D01*
X221234000Y-62738000D02*
X216916000Y-58420000D01*
X216916000Y-58420000D02*
X216916000Y-51689000D01*
X216916000Y-51689000D02*
X222377000Y-46228000D01*
X222377000Y-46228000D02*
X227753120Y-46228000D01*
X227753120Y-46228000D02*
X229346760Y-47821640D01*
X232374440Y-79529940D02*
X227611940Y-79529940D01*
X227873560Y-79029560D02*
X225425000Y-76581000D01*
X225425000Y-76581000D02*
X225425000Y-72009000D01*
X225425000Y-72009000D02*
X221869000Y-68453000D01*
X221869000Y-68453000D02*
X221869000Y-57658000D01*
X221869000Y-57658000D02*
X221032640Y-56821640D01*
X221032640Y-56821640D02*
X220346760Y-56821640D01*
X232374440Y-79029560D02*
X227873560Y-79029560D01*
D24*
X237617000Y-66675000D02*
X237871000Y-66929000D01*
X237871000Y-66929000D02*
X237871000Y-68707000D01*
X237871000Y-68707000D02*
X235204000Y-71374000D01*
X235204000Y-73787000D02*
X235204000Y-71374000D01*
X236722920Y-77180440D02*
X236722920Y-75305920D01*
X236722920Y-75305920D02*
X235204000Y-73787000D01*
D26*
X229997000Y-49149000D02*
X223647000Y-49149000D01*
X223647000Y-49149000D02*
X223139000Y-49657000D01*
X223139000Y-49657000D02*
X223139000Y-51943000D01*
X223139000Y-51943000D02*
X225425000Y-54229000D01*
X225425000Y-54229000D02*
X227457000Y-54229000D01*
X234315000Y-47371000D02*
X233680000Y-47371000D01*
X233680000Y-47371000D02*
X233172000Y-47879000D01*
X233172000Y-47879000D02*
X233172000Y-48514000D01*
X230759000Y-49149000D02*
X232537000Y-49149000D01*
X232537000Y-49149000D02*
X233172000Y-48514000D01*
X234315000Y-47371000D02*
X237109000Y-47371000D01*
X221107000Y-69596000D02*
X221043500Y-69659500D01*
X221043500Y-69659500D02*
X219773500Y-69659500D01*
X242062000Y-84074000D02*
X242062000Y-82042000D01*
X222885000Y-68072000D02*
X222758000Y-67945000D01*
X222758000Y-67945000D02*
X222758000Y-63373000D01*
X228092000Y-58039000D02*
X222758000Y-63373000D01*
X240284000Y-76835000D02*
X240284000Y-76116000D01*
X240284000Y-76116000D02*
X239860000Y-75692000D01*
X238724440Y-77180440D02*
X238724440Y-76235560D01*
X238724440Y-76235560D02*
X239268000Y-75692000D01*
X239268000Y-75692000D02*
X239860000Y-75692000D01*
X230759000Y-49149000D02*
X229997000Y-49149000D01*
X237617000Y-46863000D02*
X237109000Y-47371000D01*
X237617000Y-46863000D02*
X238887000Y-46863000D01*
X217805000Y-76073000D02*
X217805000Y-75057000D01*
X216535000Y-72898000D02*
X219773500Y-69659500D01*
X216535000Y-73787000D02*
X216535000Y-72898000D01*
X217805000Y-75057000D02*
X216535000Y-73787000D01*
X234223560Y-86766440D02*
X233614000Y-87376000D01*
X234223560Y-85379560D02*
X234223560Y-86766440D01*
X241518440Y-83530440D02*
X240573560Y-83530440D01*
X242062000Y-84074000D02*
X241518440Y-83530440D01*
X242062000Y-86741000D02*
X242062000Y-84074000D01*
X241239000Y-87564000D02*
X242062000Y-86741000D01*
X241046000Y-87564000D02*
X241239000Y-87564000D01*
D24*
X220614240Y-81513680D02*
X220913960Y-81213960D01*
X220614240Y-83113880D02*
X220614240Y-81513680D01*
X219014040Y-81213960D02*
X220913960Y-81213960D01*
X219141040Y-81213960D02*
X219014040Y-81213960D01*
D26*
X231000300Y-80530700D02*
X230124000Y-81407000D01*
X230124000Y-81407000D02*
X230124000Y-82423000D01*
X230124000Y-82423000D02*
X230063000Y-82484000D01*
X230063000Y-82484000D02*
X229108000Y-82484000D01*
X232374440Y-80530700D02*
X231000300Y-80530700D01*
X228407000Y-82484000D02*
X229108000Y-82484000D01*
X227523000Y-81600000D02*
X228407000Y-82484000D01*
X227330000Y-81600000D02*
X227523000Y-81600000D01*
X227137000Y-81600000D02*
X226314000Y-82423000D01*
X227330000Y-81600000D02*
X227137000Y-81600000D01*
D24*
X219014040Y-79689960D02*
X219014040Y-81213960D01*
X217363000Y-84643000D02*
X217551000Y-84455000D01*
X217363000Y-85598000D02*
X217363000Y-84643000D01*
X217932000Y-75946000D02*
X217805000Y-76073000D01*
X219118000Y-75946000D02*
X217932000Y-75946000D01*
D26*
X231605000Y-69723000D02*
X230716000Y-68834000D01*
X234188000Y-69723000D02*
X231605000Y-69723000D01*
X235034000Y-68877000D02*
X234188000Y-69723000D01*
X235034000Y-68834000D02*
X235034000Y-68877000D01*
X233614000Y-88331000D02*
X233553000Y-88392000D01*
X233614000Y-87376000D02*
X233614000Y-88331000D01*
X234223560Y-84419440D02*
X234223560Y-85379560D01*
X235077000Y-83566000D02*
X234223560Y-84419440D01*
X235458000Y-83566000D02*
X235077000Y-83566000D01*
X237236000Y-81788000D02*
X235458000Y-83566000D01*
X239867440Y-83530440D02*
X239141000Y-82804000D01*
X240573560Y-83530440D02*
X239867440Y-83530440D01*
X230716000Y-68834000D02*
X231521000Y-68834000D01*
X231775000Y-65913000D02*
X231521000Y-65659000D01*
X231775000Y-68580000D02*
X231775000Y-65913000D01*
X231521000Y-68834000D02*
X231775000Y-68580000D01*
D24*
X233723180Y-73703180D02*
X233723180Y-77180440D01*
X233723180Y-73703180D02*
X229997000Y-69977000D01*
X234223560Y-73187560D02*
X234223560Y-77180440D01*
X234223560Y-73187560D02*
X231521000Y-70485000D01*
X236225080Y-77180440D02*
X236225080Y-79623920D01*
X236225080Y-79623920D02*
X235712000Y-80137000D01*
X235724700Y-77180440D02*
X235724700Y-78600300D01*
X235724700Y-78600300D02*
X235077000Y-79248000D01*
X235224320Y-77180440D02*
X235224320Y-78211680D01*
X235224320Y-78211680D02*
X234823000Y-78613000D01*
X234823000Y-78613000D02*
X234188000Y-78613000D01*
X234723940Y-72671940D02*
X234723940Y-77180440D01*
X234723940Y-72671940D02*
X232664000Y-70612000D01*
D26*
X224099160Y-83500000D02*
X222813880Y-82214720D01*
X227330000Y-83500000D02*
X224099160Y-83500000D01*
X231388920Y-81031080D02*
X231140000Y-81280000D01*
X231140000Y-81280000D02*
X231140000Y-82677000D01*
X231140000Y-82677000D02*
X230317000Y-83500000D01*
X230317000Y-83500000D02*
X227330000Y-83500000D01*
X232374440Y-81031080D02*
X231388920Y-81031080D01*
D24*
X239400080Y-81528920D02*
X240573560Y-81528920D01*
X239141000Y-81788000D02*
X239400080Y-81528920D01*
X225298000Y-80010000D02*
X225298000Y-78994000D01*
X224393760Y-80914240D02*
X225298000Y-80010000D01*
X222813880Y-80914240D02*
X224393760Y-80914240D01*
X239527080Y-81031080D02*
X240573560Y-81031080D01*
X239014000Y-80518000D02*
X239527080Y-81031080D01*
X224536000Y-79375000D02*
X224536000Y-78486000D01*
X223647000Y-80264000D02*
X224536000Y-79375000D01*
X222813880Y-80264000D02*
X223647000Y-80264000D01*
D26*
X239224820Y-77180440D02*
X239224820Y-79545180D01*
X239224820Y-79545180D02*
X239014000Y-79756000D01*
X239014000Y-79756000D02*
X238252000Y-79756000D01*
X239776000Y-90254000D02*
X238252000Y-90254000D01*
X235204000Y-90254000D02*
X236728000Y-90254000D01*
X236728000Y-90254000D02*
X238252000Y-90254000D01*
X231714000Y-86802000D02*
X231714000Y-87376000D01*
X233136440Y-85379560D02*
X231714000Y-86802000D01*
X233723180Y-85379560D02*
X233136440Y-85379560D01*
X233764000Y-90254000D02*
X231714000Y-88204000D01*
X231714000Y-88204000D02*
X231714000Y-87376000D01*
X235204000Y-90254000D02*
X233764000Y-90254000D01*
X233382820Y-84030820D02*
X233723180Y-84371180D01*
X233723180Y-84371180D02*
X233723180Y-85379560D01*
X232374440Y-84030820D02*
X233382820Y-84030820D01*
X240573560Y-85191560D02*
X241046000Y-85664000D01*
X240573560Y-84030820D02*
X240573560Y-85191560D01*
X229661680Y-80030320D02*
X229108000Y-80584000D01*
X232374440Y-80030320D02*
X229661680Y-80030320D01*
X217551000Y-56388000D02*
X217551000Y-52197000D01*
X217551000Y-52197000D02*
X221926360Y-47821640D01*
X221926360Y-47821640D02*
X226806760Y-47821640D01*
X220346760Y-59183760D02*
X217551000Y-56388000D01*
X220346760Y-59321640D02*
X220346760Y-59183760D01*
X233850180Y-84030820D02*
X235077000Y-82804000D01*
X233382820Y-84030820D02*
X233850180Y-84030820D01*
X236982000Y-81026000D02*
X238252000Y-79756000D01*
X235712000Y-81026000D02*
X236982000Y-81026000D01*
X235458000Y-81026000D02*
X235712000Y-81026000D01*
X234462320Y-80030320D02*
X235458000Y-81026000D01*
X232374440Y-80030320D02*
X234462320Y-80030320D01*
X235077000Y-81534000D02*
X235077000Y-82804000D01*
X235585000Y-81026000D02*
X235077000Y-81534000D01*
X235712000Y-81026000D02*
X235585000Y-81026000D01*
X238252000Y-83693000D02*
X238252000Y-79756000D01*
X238589820Y-84030820D02*
X238252000Y-83693000D01*
X240573560Y-84030820D02*
X238589820Y-84030820D01*
D24*
X218013280Y-83774280D02*
X218013280Y-83113880D01*
X218313000Y-84074000D02*
X218013280Y-83774280D01*
X218313000Y-86868000D02*
X218313000Y-84074000D01*
D26*
X217111580Y-82491580D02*
X217733880Y-83113880D01*
X217733880Y-83113880D02*
X218013280Y-83113880D01*
X217111580Y-82214720D02*
X217111580Y-82491580D01*
D24*
X226822000Y-67056000D02*
X226347020Y-67056000D01*
X227457000Y-67691000D02*
X226822000Y-67056000D01*
X227457000Y-69850000D02*
X227457000Y-67691000D01*
X226568000Y-70739000D02*
X227457000Y-69850000D01*
X225298000Y-70739000D02*
X226568000Y-70739000D01*
X218663520Y-83789520D02*
X218821000Y-83947000D01*
X218821000Y-83947000D02*
X218821000Y-85156000D01*
X218821000Y-85156000D02*
X219263000Y-85598000D01*
X218663520Y-83113880D02*
X218663520Y-83789520D01*
D26*
X232884980Y-68783020D02*
X232834000Y-68834000D01*
X232884980Y-67056000D02*
X232884980Y-68783020D01*
X234983020Y-67056000D02*
X234983020Y-65625980D01*
X234983020Y-65625980D02*
X235077000Y-65532000D01*
X235077000Y-65532000D02*
X237871000Y-65532000D01*
X237871000Y-65532000D02*
X238506000Y-66167000D01*
X238506000Y-66167000D02*
X238506000Y-69596000D01*
X240573560Y-77942440D02*
X241300000Y-77216000D01*
X241300000Y-77216000D02*
X241300000Y-72390000D01*
X241300000Y-72390000D02*
X238506000Y-69596000D01*
X240573560Y-78529180D02*
X240573560Y-77942440D01*
X228566980Y-68783020D02*
X228516000Y-68834000D01*
X228566980Y-67056000D02*
X228566980Y-68783020D01*
X231013000Y-64897000D02*
X238252000Y-64897000D01*
X238252000Y-64897000D02*
X239141000Y-65786000D01*
X239141000Y-65786000D02*
X239141000Y-69469000D01*
X241772440Y-79029560D02*
X242062000Y-78740000D01*
X242062000Y-78740000D02*
X242062000Y-72390000D01*
X242062000Y-72390000D02*
X239141000Y-69469000D01*
X231013000Y-64897000D02*
X230665020Y-65244980D01*
X230665020Y-65244980D02*
X230665020Y-67056000D01*
X240573560Y-79029560D02*
X241772440Y-79029560D01*
X224248980Y-68783020D02*
X224198000Y-68834000D01*
X224248980Y-67056000D02*
X224248980Y-68783020D01*
D24*
X219313760Y-83804760D02*
X222123000Y-86614000D01*
X222123000Y-86614000D02*
X222123000Y-87376000D01*
X219313760Y-83113880D02*
X219313760Y-83804760D01*
X226441000Y-87376000D02*
X225552000Y-86487000D01*
X225552000Y-86487000D02*
X222758000Y-86487000D01*
X222758000Y-86487000D02*
X219964000Y-83693000D01*
X219964000Y-83693000D02*
X219964000Y-83113880D01*
D26*
X237223300Y-77180440D02*
X237223300Y-76128700D01*
X237223300Y-76128700D02*
X237660000Y-75692000D01*
X225382000Y-69850000D02*
X226398000Y-68834000D01*
X224663000Y-69850000D02*
X225382000Y-69850000D01*
X224536000Y-69977000D02*
X224663000Y-69850000D01*
X224282000Y-73025000D02*
X223901000Y-72644000D01*
X224282000Y-76962000D02*
X224282000Y-73025000D01*
X226568000Y-79248000D02*
X224282000Y-76962000D01*
X226568000Y-80391000D02*
X226568000Y-79248000D01*
X225679000Y-81280000D02*
X226568000Y-80391000D01*
D24*
X240573560Y-79529940D02*
X241708940Y-79529940D01*
X241708940Y-79529940D02*
X241935000Y-79756000D01*
X241935000Y-79756000D02*
X241935000Y-80518000D01*
X228727000Y-54483000D02*
X228727000Y-51816000D01*
X228727000Y-51816000D02*
X227457000Y-50546000D01*
X227457000Y-50546000D02*
X224028000Y-50546000D01*
X232374440Y-78529180D02*
X232374440Y-78013560D01*
X232374440Y-78013560D02*
X232791000Y-77597000D01*
X224155000Y-65659000D02*
X224282000Y-65786000D01*
X224282000Y-65786000D02*
X228219000Y-65786000D01*
X228219000Y-65786000D02*
X230632000Y-63373000D01*
X230632000Y-63373000D02*
X230632000Y-54864000D01*
D26*
G36*
X217830400Y-84892800D02*
X217477300Y-84892800D01*
X217394750Y-84975350D01*
X217394750Y-85566250D01*
X217414750Y-85566250D01*
X217414750Y-85629750D01*
X217394750Y-85629750D01*
X217394750Y-86220650D01*
X217477300Y-86303200D01*
X217800613Y-86303200D01*
X217726450Y-86375826D01*
X217642023Y-86499127D01*
X217583154Y-86636479D01*
X217552085Y-86782650D01*
X217549998Y-86932071D01*
X217563895Y-87007795D01*
X217504036Y-86995508D01*
X217354604Y-86994464D01*
X217331250Y-86998919D01*
X217331250Y-86220650D01*
X217331250Y-85629750D01*
X217331250Y-85566250D01*
X217331250Y-84975350D01*
X217248700Y-84892800D01*
X216730478Y-84892800D01*
X216666684Y-84905489D01*
X216606592Y-84930381D01*
X216552510Y-84966517D01*
X216506517Y-85012510D01*
X216470380Y-85066592D01*
X216445489Y-85126684D01*
X216432800Y-85190478D01*
X216432800Y-85255522D01*
X216432800Y-85483700D01*
X216515350Y-85566250D01*
X217331250Y-85566250D01*
X217331250Y-85629750D01*
X216515350Y-85629750D01*
X216432800Y-85712300D01*
X216432800Y-85940478D01*
X216432800Y-86005522D01*
X216445489Y-86069316D01*
X216470380Y-86129408D01*
X216506517Y-86183490D01*
X216552510Y-86229483D01*
X216606592Y-86265619D01*
X216666684Y-86290511D01*
X216730478Y-86303200D01*
X217248700Y-86303200D01*
X217331250Y-86220650D01*
X217331250Y-86998919D01*
X217207815Y-87022466D01*
X217069260Y-87078445D01*
X216944218Y-87160271D01*
X216837450Y-87264826D01*
X216753023Y-87388127D01*
X216694154Y-87525479D01*
X216663085Y-87671650D01*
X216660998Y-87821071D01*
X216687974Y-87968052D01*
X216726304Y-88064864D01*
X216331000Y-87274255D01*
X216331000Y-82429867D01*
X216345172Y-82501113D01*
X216373892Y-82570451D01*
X216415588Y-82632853D01*
X216468656Y-82685922D01*
X216531059Y-82727618D01*
X216600396Y-82756338D01*
X216674005Y-82770980D01*
X216687539Y-82770980D01*
X216688456Y-82772703D01*
X216718131Y-82809088D01*
X216747390Y-82845739D01*
X216751052Y-82849453D01*
X216751118Y-82849534D01*
X216751192Y-82849595D01*
X216752370Y-82850790D01*
X217374670Y-83473090D01*
X217410908Y-83502856D01*
X217446877Y-83533038D01*
X217449219Y-83534325D01*
X217451282Y-83536020D01*
X217457020Y-83539096D01*
X217457020Y-83551455D01*
X217471662Y-83625063D01*
X217500382Y-83694401D01*
X217530680Y-83739744D01*
X217530680Y-83774280D01*
X217535026Y-83818605D01*
X217538915Y-83863055D01*
X217539623Y-83865494D01*
X217539871Y-83868017D01*
X217552751Y-83910680D01*
X217565193Y-83953503D01*
X217566360Y-83955755D01*
X217567094Y-83958185D01*
X217588037Y-83997574D01*
X217608538Y-84037123D01*
X217610119Y-84039103D01*
X217611312Y-84041347D01*
X217639496Y-84075904D01*
X217667299Y-84110732D01*
X217670785Y-84114267D01*
X217670841Y-84114336D01*
X217670904Y-84114388D01*
X217672030Y-84115530D01*
X217830400Y-84273900D01*
X217830400Y-84892800D01*
X217830400Y-84892800D01*
G37*
X217830400Y-84892800D02*
X217477300Y-84892800D01*
X217394750Y-84975350D01*
X217394750Y-85566250D01*
X217414750Y-85566250D01*
X217414750Y-85629750D01*
X217394750Y-85629750D01*
X217394750Y-86220650D01*
X217477300Y-86303200D01*
X217800613Y-86303200D01*
X217726450Y-86375826D01*
X217642023Y-86499127D01*
X217583154Y-86636479D01*
X217552085Y-86782650D01*
X217549998Y-86932071D01*
X217563895Y-87007795D01*
X217504036Y-86995508D01*
X217354604Y-86994464D01*
X217331250Y-86998919D01*
X217331250Y-86220650D01*
X217331250Y-85629750D01*
X217331250Y-85566250D01*
X217331250Y-84975350D01*
X217248700Y-84892800D01*
X216730478Y-84892800D01*
X216666684Y-84905489D01*
X216606592Y-84930381D01*
X216552510Y-84966517D01*
X216506517Y-85012510D01*
X216470380Y-85066592D01*
X216445489Y-85126684D01*
X216432800Y-85190478D01*
X216432800Y-85255522D01*
X216432800Y-85483700D01*
X216515350Y-85566250D01*
X217331250Y-85566250D01*
X217331250Y-85629750D01*
X216515350Y-85629750D01*
X216432800Y-85712300D01*
X216432800Y-85940478D01*
X216432800Y-86005522D01*
X216445489Y-86069316D01*
X216470380Y-86129408D01*
X216506517Y-86183490D01*
X216552510Y-86229483D01*
X216606592Y-86265619D01*
X216666684Y-86290511D01*
X216730478Y-86303200D01*
X217248700Y-86303200D01*
X217331250Y-86220650D01*
X217331250Y-86998919D01*
X217207815Y-87022466D01*
X217069260Y-87078445D01*
X216944218Y-87160271D01*
X216837450Y-87264826D01*
X216753023Y-87388127D01*
X216694154Y-87525479D01*
X216663085Y-87671650D01*
X216660998Y-87821071D01*
X216687974Y-87968052D01*
X216726304Y-88064864D01*
X216331000Y-87274255D01*
X216331000Y-82429867D01*
X216345172Y-82501113D01*
X216373892Y-82570451D01*
X216415588Y-82632853D01*
X216468656Y-82685922D01*
X216531059Y-82727618D01*
X216600396Y-82756338D01*
X216674005Y-82770980D01*
X216687539Y-82770980D01*
X216688456Y-82772703D01*
X216718131Y-82809088D01*
X216747390Y-82845739D01*
X216751052Y-82849453D01*
X216751118Y-82849534D01*
X216751192Y-82849595D01*
X216752370Y-82850790D01*
X217374670Y-83473090D01*
X217410908Y-83502856D01*
X217446877Y-83533038D01*
X217449219Y-83534325D01*
X217451282Y-83536020D01*
X217457020Y-83539096D01*
X217457020Y-83551455D01*
X217471662Y-83625063D01*
X217500382Y-83694401D01*
X217530680Y-83739744D01*
X217530680Y-83774280D01*
X217535026Y-83818605D01*
X217538915Y-83863055D01*
X217539623Y-83865494D01*
X217539871Y-83868017D01*
X217552751Y-83910680D01*
X217565193Y-83953503D01*
X217566360Y-83955755D01*
X217567094Y-83958185D01*
X217588037Y-83997574D01*
X217608538Y-84037123D01*
X217610119Y-84039103D01*
X217611312Y-84041347D01*
X217639496Y-84075904D01*
X217667299Y-84110732D01*
X217670785Y-84114267D01*
X217670841Y-84114336D01*
X217670904Y-84114388D01*
X217672030Y-84115530D01*
X217830400Y-84273900D01*
X217830400Y-84892800D01*
G36*
X220665990Y-83145630D02*
X220645990Y-83145630D01*
X220645990Y-83165630D01*
X220582490Y-83165630D01*
X220582490Y-83145630D01*
X220562490Y-83145630D01*
X220562490Y-83082130D01*
X220582490Y-83082130D01*
X220582490Y-83062130D01*
X220645990Y-83062130D01*
X220645990Y-83082130D01*
X220665990Y-83082130D01*
X220665990Y-83145630D01*
X220665990Y-83145630D01*
G37*
X220665990Y-83145630D02*
X220645990Y-83145630D01*
X220645990Y-83165630D01*
X220582490Y-83165630D01*
X220582490Y-83145630D01*
X220562490Y-83145630D01*
X220562490Y-83082130D01*
X220582490Y-83082130D01*
X220582490Y-83062130D01*
X220645990Y-83062130D01*
X220645990Y-83082130D01*
X220665990Y-83082130D01*
X220665990Y-83145630D01*
G36*
X220965710Y-81245710D02*
X220945710Y-81245710D01*
X220945710Y-81265710D01*
X220882210Y-81265710D01*
X220882210Y-81245710D01*
X220882210Y-81182210D01*
X220882210Y-80511650D01*
X220882210Y-80016350D01*
X220882210Y-79345790D01*
X220211650Y-79345790D01*
X219716350Y-79345790D01*
X219045790Y-79345790D01*
X219045790Y-80016350D01*
X219045790Y-80511650D01*
X219045790Y-81182210D01*
X219716350Y-81182210D01*
X220211650Y-81182210D01*
X220882210Y-81182210D01*
X220882210Y-81245710D01*
X220211650Y-81245710D01*
X219716350Y-81245710D01*
X219045790Y-81245710D01*
X219045790Y-81265710D01*
X218982290Y-81265710D01*
X218982290Y-81245710D01*
X218962290Y-81245710D01*
X218962290Y-81182210D01*
X218982290Y-81182210D01*
X218982290Y-80511650D01*
X218982290Y-80016350D01*
X218982290Y-79345790D01*
X218962290Y-79345790D01*
X218962290Y-79282290D01*
X218982290Y-79282290D01*
X218982290Y-79262290D01*
X219045790Y-79262290D01*
X219045790Y-79282290D01*
X219716350Y-79282290D01*
X220211650Y-79282290D01*
X220882210Y-79282290D01*
X220882210Y-79262290D01*
X220945710Y-79262290D01*
X220945710Y-79282290D01*
X220965710Y-79282290D01*
X220965710Y-79345790D01*
X220945710Y-79345790D01*
X220945710Y-80016350D01*
X220945710Y-80511650D01*
X220945710Y-81182210D01*
X220965710Y-81182210D01*
X220965710Y-81245710D01*
X220965710Y-81245710D01*
G37*
X220965710Y-81245710D02*
X220945710Y-81245710D01*
X220945710Y-81265710D01*
X220882210Y-81265710D01*
X220882210Y-81245710D01*
X220882210Y-81182210D01*
X220882210Y-80511650D01*
X220882210Y-80016350D01*
X220882210Y-79345790D01*
X220211650Y-79345790D01*
X219716350Y-79345790D01*
X219045790Y-79345790D01*
X219045790Y-80016350D01*
X219045790Y-80511650D01*
X219045790Y-81182210D01*
X219716350Y-81182210D01*
X220211650Y-81182210D01*
X220882210Y-81182210D01*
X220882210Y-81245710D01*
X220211650Y-81245710D01*
X219716350Y-81245710D01*
X219045790Y-81245710D01*
X219045790Y-81265710D01*
X218982290Y-81265710D01*
X218982290Y-81245710D01*
X218962290Y-81245710D01*
X218962290Y-81182210D01*
X218982290Y-81182210D01*
X218982290Y-80511650D01*
X218982290Y-80016350D01*
X218982290Y-79345790D01*
X218962290Y-79345790D01*
X218962290Y-79282290D01*
X218982290Y-79282290D01*
X218982290Y-79262290D01*
X219045790Y-79262290D01*
X219045790Y-79282290D01*
X219716350Y-79282290D01*
X220211650Y-79282290D01*
X220882210Y-79282290D01*
X220882210Y-79262290D01*
X220945710Y-79262290D01*
X220945710Y-79282290D01*
X220965710Y-79282290D01*
X220965710Y-79345790D01*
X220945710Y-79345790D01*
X220945710Y-80016350D01*
X220945710Y-80511650D01*
X220945710Y-81182210D01*
X220965710Y-81182210D01*
X220965710Y-81245710D01*
G36*
X230149400Y-63173100D02*
X228019100Y-65303400D01*
X224832655Y-65303400D01*
X224831061Y-65299532D01*
X224748365Y-65175063D01*
X224643067Y-65069028D01*
X224519179Y-64985465D01*
X224381420Y-64927556D01*
X224235036Y-64897508D01*
X224085604Y-64896464D01*
X223938815Y-64924466D01*
X223800260Y-64980445D01*
X223675218Y-65062271D01*
X223568450Y-65166826D01*
X223484023Y-65290127D01*
X223425154Y-65427479D01*
X223394085Y-65573650D01*
X223391998Y-65723071D01*
X223418974Y-65870052D01*
X223473985Y-66008994D01*
X223528866Y-66094153D01*
X223469069Y-66118922D01*
X223406667Y-66160618D01*
X223353598Y-66213686D01*
X223311902Y-66276089D01*
X223283182Y-66345426D01*
X223268540Y-66419035D01*
X223268540Y-66494085D01*
X223268540Y-67692965D01*
X223283182Y-67766573D01*
X223311902Y-67835911D01*
X223353598Y-67898313D01*
X223406666Y-67951382D01*
X223469069Y-67993078D01*
X223514906Y-68012064D01*
X223486867Y-68017642D01*
X223417529Y-68046362D01*
X223355127Y-68088058D01*
X223302058Y-68141126D01*
X223260362Y-68203529D01*
X223231642Y-68272866D01*
X223217000Y-68346475D01*
X223217000Y-68421525D01*
X223217000Y-69082579D01*
X222377000Y-68242579D01*
X222377000Y-57658000D01*
X222372420Y-57611292D01*
X222368331Y-57564553D01*
X222367585Y-57561987D01*
X222367325Y-57559329D01*
X222353769Y-57514431D01*
X222340671Y-57469345D01*
X222339440Y-57466970D01*
X222338669Y-57464416D01*
X222316649Y-57423002D01*
X222295045Y-57381324D01*
X222293378Y-57379236D01*
X222292124Y-57376877D01*
X222262455Y-57340499D01*
X222233191Y-57303841D01*
X222229526Y-57300124D01*
X222229462Y-57300046D01*
X222229389Y-57299985D01*
X222228210Y-57298790D01*
X221564840Y-56635420D01*
X221530922Y-56464120D01*
X221438927Y-56240924D01*
X221305332Y-56039848D01*
X221135225Y-55868549D01*
X220935086Y-55733553D01*
X220712538Y-55640003D01*
X220476057Y-55591460D01*
X220234651Y-55589775D01*
X219997516Y-55635011D01*
X219773683Y-55725445D01*
X219571679Y-55857633D01*
X219399197Y-56026540D01*
X219262807Y-56225732D01*
X219167705Y-56447622D01*
X219117513Y-56683758D01*
X219114142Y-56925146D01*
X219157722Y-57162591D01*
X219232250Y-57350830D01*
X218059000Y-56177580D01*
X218059000Y-55815939D01*
X218070743Y-55828100D01*
X218193452Y-55913385D01*
X218330390Y-55973212D01*
X218476340Y-56005301D01*
X218625743Y-56008430D01*
X218772908Y-55982481D01*
X218912231Y-55928441D01*
X219038404Y-55848370D01*
X219146621Y-55745316D01*
X219232761Y-55623205D01*
X219293542Y-55486688D01*
X219326649Y-55340966D01*
X219329033Y-55170282D01*
X219300007Y-55023692D01*
X219243061Y-54885532D01*
X219160365Y-54761063D01*
X219055067Y-54655028D01*
X219049600Y-54651340D01*
X219049600Y-53666900D01*
X219528900Y-53187600D01*
X219867353Y-53187600D01*
X219773683Y-53225445D01*
X219571679Y-53357633D01*
X219399197Y-53526540D01*
X219262807Y-53725732D01*
X219167705Y-53947622D01*
X219117513Y-54183758D01*
X219114142Y-54425146D01*
X219157722Y-54662591D01*
X219246591Y-54887050D01*
X219377366Y-55089972D01*
X219545064Y-55263629D01*
X219743299Y-55401406D01*
X219964520Y-55498055D01*
X220200300Y-55549895D01*
X220441658Y-55554950D01*
X220679402Y-55513030D01*
X220904476Y-55425729D01*
X221108306Y-55296375D01*
X221283130Y-55129893D01*
X221422287Y-54932624D01*
X221520478Y-54712084D01*
X221573962Y-54476672D01*
X221577813Y-54200934D01*
X221530922Y-53964120D01*
X221438927Y-53740924D01*
X221396368Y-53676868D01*
X223940750Y-56221250D01*
X223975197Y-56249545D01*
X224009347Y-56278200D01*
X224011569Y-56279421D01*
X224013531Y-56281033D01*
X224052848Y-56302114D01*
X224091884Y-56323575D01*
X224094299Y-56324341D01*
X224096539Y-56325542D01*
X224139202Y-56338585D01*
X224181662Y-56352054D01*
X224184183Y-56352336D01*
X224186611Y-56353079D01*
X224230965Y-56357584D01*
X224275262Y-56362553D01*
X224280222Y-56362587D01*
X224280315Y-56362597D01*
X224280401Y-56362588D01*
X224282000Y-56362600D01*
X229022691Y-56362600D01*
X229119743Y-56463100D01*
X229242452Y-56548385D01*
X229379390Y-56608212D01*
X229525340Y-56640301D01*
X229674743Y-56643430D01*
X229821908Y-56617481D01*
X229961231Y-56563441D01*
X230087404Y-56483370D01*
X230149400Y-56424331D01*
X230149400Y-63173100D01*
X230149400Y-63173100D01*
G37*
X230149400Y-63173100D02*
X228019100Y-65303400D01*
X224832655Y-65303400D01*
X224831061Y-65299532D01*
X224748365Y-65175063D01*
X224643067Y-65069028D01*
X224519179Y-64985465D01*
X224381420Y-64927556D01*
X224235036Y-64897508D01*
X224085604Y-64896464D01*
X223938815Y-64924466D01*
X223800260Y-64980445D01*
X223675218Y-65062271D01*
X223568450Y-65166826D01*
X223484023Y-65290127D01*
X223425154Y-65427479D01*
X223394085Y-65573650D01*
X223391998Y-65723071D01*
X223418974Y-65870052D01*
X223473985Y-66008994D01*
X223528866Y-66094153D01*
X223469069Y-66118922D01*
X223406667Y-66160618D01*
X223353598Y-66213686D01*
X223311902Y-66276089D01*
X223283182Y-66345426D01*
X223268540Y-66419035D01*
X223268540Y-66494085D01*
X223268540Y-67692965D01*
X223283182Y-67766573D01*
X223311902Y-67835911D01*
X223353598Y-67898313D01*
X223406666Y-67951382D01*
X223469069Y-67993078D01*
X223514906Y-68012064D01*
X223486867Y-68017642D01*
X223417529Y-68046362D01*
X223355127Y-68088058D01*
X223302058Y-68141126D01*
X223260362Y-68203529D01*
X223231642Y-68272866D01*
X223217000Y-68346475D01*
X223217000Y-68421525D01*
X223217000Y-69082579D01*
X222377000Y-68242579D01*
X222377000Y-57658000D01*
X222372420Y-57611292D01*
X222368331Y-57564553D01*
X222367585Y-57561987D01*
X222367325Y-57559329D01*
X222353769Y-57514431D01*
X222340671Y-57469345D01*
X222339440Y-57466970D01*
X222338669Y-57464416D01*
X222316649Y-57423002D01*
X222295045Y-57381324D01*
X222293378Y-57379236D01*
X222292124Y-57376877D01*
X222262455Y-57340499D01*
X222233191Y-57303841D01*
X222229526Y-57300124D01*
X222229462Y-57300046D01*
X222229389Y-57299985D01*
X222228210Y-57298790D01*
X221564840Y-56635420D01*
X221530922Y-56464120D01*
X221438927Y-56240924D01*
X221305332Y-56039848D01*
X221135225Y-55868549D01*
X220935086Y-55733553D01*
X220712538Y-55640003D01*
X220476057Y-55591460D01*
X220234651Y-55589775D01*
X219997516Y-55635011D01*
X219773683Y-55725445D01*
X219571679Y-55857633D01*
X219399197Y-56026540D01*
X219262807Y-56225732D01*
X219167705Y-56447622D01*
X219117513Y-56683758D01*
X219114142Y-56925146D01*
X219157722Y-57162591D01*
X219232250Y-57350830D01*
X218059000Y-56177580D01*
X218059000Y-55815939D01*
X218070743Y-55828100D01*
X218193452Y-55913385D01*
X218330390Y-55973212D01*
X218476340Y-56005301D01*
X218625743Y-56008430D01*
X218772908Y-55982481D01*
X218912231Y-55928441D01*
X219038404Y-55848370D01*
X219146621Y-55745316D01*
X219232761Y-55623205D01*
X219293542Y-55486688D01*
X219326649Y-55340966D01*
X219329033Y-55170282D01*
X219300007Y-55023692D01*
X219243061Y-54885532D01*
X219160365Y-54761063D01*
X219055067Y-54655028D01*
X219049600Y-54651340D01*
X219049600Y-53666900D01*
X219528900Y-53187600D01*
X219867353Y-53187600D01*
X219773683Y-53225445D01*
X219571679Y-53357633D01*
X219399197Y-53526540D01*
X219262807Y-53725732D01*
X219167705Y-53947622D01*
X219117513Y-54183758D01*
X219114142Y-54425146D01*
X219157722Y-54662591D01*
X219246591Y-54887050D01*
X219377366Y-55089972D01*
X219545064Y-55263629D01*
X219743299Y-55401406D01*
X219964520Y-55498055D01*
X220200300Y-55549895D01*
X220441658Y-55554950D01*
X220679402Y-55513030D01*
X220904476Y-55425729D01*
X221108306Y-55296375D01*
X221283130Y-55129893D01*
X221422287Y-54932624D01*
X221520478Y-54712084D01*
X221573962Y-54476672D01*
X221577813Y-54200934D01*
X221530922Y-53964120D01*
X221438927Y-53740924D01*
X221396368Y-53676868D01*
X223940750Y-56221250D01*
X223975197Y-56249545D01*
X224009347Y-56278200D01*
X224011569Y-56279421D01*
X224013531Y-56281033D01*
X224052848Y-56302114D01*
X224091884Y-56323575D01*
X224094299Y-56324341D01*
X224096539Y-56325542D01*
X224139202Y-56338585D01*
X224181662Y-56352054D01*
X224184183Y-56352336D01*
X224186611Y-56353079D01*
X224230965Y-56357584D01*
X224275262Y-56362553D01*
X224280222Y-56362587D01*
X224280315Y-56362597D01*
X224280401Y-56362588D01*
X224282000Y-56362600D01*
X229022691Y-56362600D01*
X229119743Y-56463100D01*
X229242452Y-56548385D01*
X229379390Y-56608212D01*
X229525340Y-56640301D01*
X229674743Y-56643430D01*
X229821908Y-56617481D01*
X229961231Y-56563441D01*
X230087404Y-56483370D01*
X230149400Y-56424331D01*
X230149400Y-63173100D01*
G36*
X231271816Y-80538320D02*
X231245363Y-80546306D01*
X231200265Y-80559409D01*
X231197890Y-80560639D01*
X231195336Y-80561411D01*
X231153942Y-80583419D01*
X231112243Y-80605035D01*
X231110153Y-80606702D01*
X231107797Y-80607956D01*
X231071411Y-80637631D01*
X231034761Y-80666890D01*
X231031046Y-80670552D01*
X231030966Y-80670618D01*
X231030904Y-80670692D01*
X231029710Y-80671870D01*
X230780790Y-80920790D01*
X230751023Y-80957028D01*
X230720842Y-80992997D01*
X230719554Y-80995339D01*
X230717860Y-80997402D01*
X230695689Y-81038749D01*
X230673079Y-81079878D01*
X230672271Y-81082423D01*
X230671009Y-81084778D01*
X230657284Y-81129670D01*
X230643101Y-81174381D01*
X230642803Y-81177034D01*
X230642022Y-81179590D01*
X230637276Y-81226312D01*
X230632050Y-81272907D01*
X230632013Y-81278126D01*
X230632003Y-81278227D01*
X230632011Y-81278320D01*
X230632000Y-81280000D01*
X230632000Y-82466580D01*
X230106580Y-82992000D01*
X229813200Y-82992000D01*
X229813200Y-82598300D01*
X229730650Y-82515750D01*
X229139750Y-82515750D01*
X229139750Y-82535750D01*
X229076250Y-82535750D01*
X229076250Y-82515750D01*
X228485350Y-82515750D01*
X228402800Y-82598300D01*
X228402800Y-82992000D01*
X228086000Y-82992000D01*
X228086000Y-82862475D01*
X228071358Y-82788867D01*
X228042638Y-82719529D01*
X228000942Y-82657127D01*
X227947874Y-82604058D01*
X227885471Y-82562362D01*
X227816134Y-82533642D01*
X227768176Y-82524102D01*
X227801316Y-82517511D01*
X227861408Y-82492620D01*
X227915490Y-82456483D01*
X227961483Y-82410490D01*
X227997619Y-82356408D01*
X228022511Y-82296316D01*
X228035200Y-82232522D01*
X228035200Y-81714300D01*
X228035200Y-81485700D01*
X228035200Y-80967478D01*
X228022511Y-80903684D01*
X227997619Y-80843592D01*
X227961483Y-80789510D01*
X227915490Y-80743517D01*
X227861408Y-80707380D01*
X227801316Y-80682489D01*
X227737522Y-80669800D01*
X227672478Y-80669800D01*
X227444300Y-80669800D01*
X227361750Y-80752350D01*
X227361750Y-81568250D01*
X227952650Y-81568250D01*
X228035200Y-81485700D01*
X228035200Y-81714300D01*
X227952650Y-81631750D01*
X227361750Y-81631750D01*
X227361750Y-81651750D01*
X227298250Y-81651750D01*
X227298250Y-81631750D01*
X226707350Y-81631750D01*
X226624800Y-81714300D01*
X226624800Y-82232522D01*
X226637489Y-82296316D01*
X226662381Y-82356408D01*
X226698517Y-82410490D01*
X226744510Y-82456483D01*
X226798592Y-82492620D01*
X226858684Y-82517511D01*
X226891823Y-82524102D01*
X226843867Y-82533642D01*
X226774529Y-82562362D01*
X226712127Y-82604058D01*
X226659058Y-82657126D01*
X226617362Y-82719529D01*
X226588642Y-82788866D01*
X226574000Y-82862475D01*
X226574000Y-82937525D01*
X226574000Y-82992000D01*
X224309580Y-82992000D01*
X223594930Y-82277349D01*
X223594930Y-82001935D01*
X223580288Y-81928327D01*
X223564247Y-81889600D01*
X223580288Y-81850874D01*
X223594930Y-81777265D01*
X223594930Y-81702215D01*
X223594930Y-81396840D01*
X224393760Y-81396840D01*
X224438085Y-81392493D01*
X224482535Y-81388605D01*
X224484974Y-81387896D01*
X224487497Y-81387649D01*
X224530160Y-81374768D01*
X224572983Y-81362327D01*
X224575235Y-81361159D01*
X224577665Y-81360426D01*
X224617054Y-81339482D01*
X224656603Y-81318982D01*
X224658583Y-81317400D01*
X224660827Y-81316208D01*
X224695384Y-81288023D01*
X224730212Y-81260221D01*
X224733747Y-81256734D01*
X224733816Y-81256679D01*
X224733868Y-81256615D01*
X224735010Y-81255490D01*
X224954504Y-81035995D01*
X224949154Y-81048479D01*
X224918085Y-81194650D01*
X224915998Y-81344071D01*
X224942974Y-81491052D01*
X224997985Y-81629994D01*
X225078936Y-81755605D01*
X225182743Y-81863100D01*
X225305452Y-81948385D01*
X225442390Y-82008212D01*
X225588340Y-82040301D01*
X225737743Y-82043430D01*
X225884908Y-82017481D01*
X226024231Y-81963441D01*
X226150404Y-81883370D01*
X226258621Y-81780316D01*
X226344761Y-81658205D01*
X226405542Y-81521688D01*
X226438649Y-81375966D01*
X226440592Y-81236827D01*
X226624800Y-81052620D01*
X226624800Y-81485700D01*
X226707350Y-81568250D01*
X227298250Y-81568250D01*
X227298250Y-80752350D01*
X227215700Y-80669800D01*
X226992176Y-80669800D01*
X227012300Y-80632269D01*
X227034921Y-80591122D01*
X227035729Y-80588574D01*
X227036991Y-80586221D01*
X227050711Y-80541343D01*
X227064899Y-80496619D01*
X227065196Y-80493965D01*
X227065978Y-80491410D01*
X227070723Y-80444687D01*
X227075950Y-80398093D01*
X227075986Y-80392873D01*
X227075997Y-80392773D01*
X227075988Y-80392679D01*
X227076000Y-80391000D01*
X227076000Y-79712420D01*
X227252730Y-79889150D01*
X227288968Y-79918916D01*
X227324937Y-79949098D01*
X227327279Y-79950385D01*
X227329342Y-79952080D01*
X227370670Y-79974240D01*
X227411818Y-79996861D01*
X227414365Y-79997669D01*
X227416719Y-79998931D01*
X227461596Y-80012651D01*
X227506321Y-80026839D01*
X227508974Y-80027136D01*
X227511530Y-80027918D01*
X227558252Y-80032663D01*
X227604847Y-80037890D01*
X227610066Y-80037926D01*
X227610167Y-80037937D01*
X227610260Y-80037928D01*
X227611940Y-80037940D01*
X228352000Y-80037940D01*
X228352000Y-81221525D01*
X228366642Y-81295133D01*
X228395362Y-81364471D01*
X228437058Y-81426873D01*
X228490126Y-81479942D01*
X228552529Y-81521638D01*
X228621866Y-81550358D01*
X228669823Y-81559897D01*
X228636684Y-81566489D01*
X228576592Y-81591380D01*
X228522510Y-81627517D01*
X228476517Y-81673510D01*
X228440381Y-81727592D01*
X228415489Y-81787684D01*
X228402800Y-81851478D01*
X228402800Y-82369700D01*
X228485350Y-82452250D01*
X229076250Y-82452250D01*
X229076250Y-82432250D01*
X229139750Y-82432250D01*
X229139750Y-82452250D01*
X229730650Y-82452250D01*
X229813200Y-82369700D01*
X229813200Y-81851478D01*
X229800511Y-81787684D01*
X229775619Y-81727592D01*
X229739483Y-81673510D01*
X229693490Y-81627517D01*
X229639408Y-81591380D01*
X229579316Y-81566489D01*
X229546176Y-81559897D01*
X229594133Y-81550358D01*
X229663471Y-81521638D01*
X229725873Y-81479942D01*
X229778942Y-81426874D01*
X229820638Y-81364471D01*
X229849358Y-81295134D01*
X229864000Y-81221525D01*
X229864000Y-81146475D01*
X229864000Y-80546420D01*
X229872100Y-80538320D01*
X231271816Y-80538320D01*
X231271816Y-80538320D01*
G37*
X231271816Y-80538320D02*
X231245363Y-80546306D01*
X231200265Y-80559409D01*
X231197890Y-80560639D01*
X231195336Y-80561411D01*
X231153942Y-80583419D01*
X231112243Y-80605035D01*
X231110153Y-80606702D01*
X231107797Y-80607956D01*
X231071411Y-80637631D01*
X231034761Y-80666890D01*
X231031046Y-80670552D01*
X231030966Y-80670618D01*
X231030904Y-80670692D01*
X231029710Y-80671870D01*
X230780790Y-80920790D01*
X230751023Y-80957028D01*
X230720842Y-80992997D01*
X230719554Y-80995339D01*
X230717860Y-80997402D01*
X230695689Y-81038749D01*
X230673079Y-81079878D01*
X230672271Y-81082423D01*
X230671009Y-81084778D01*
X230657284Y-81129670D01*
X230643101Y-81174381D01*
X230642803Y-81177034D01*
X230642022Y-81179590D01*
X230637276Y-81226312D01*
X230632050Y-81272907D01*
X230632013Y-81278126D01*
X230632003Y-81278227D01*
X230632011Y-81278320D01*
X230632000Y-81280000D01*
X230632000Y-82466580D01*
X230106580Y-82992000D01*
X229813200Y-82992000D01*
X229813200Y-82598300D01*
X229730650Y-82515750D01*
X229139750Y-82515750D01*
X229139750Y-82535750D01*
X229076250Y-82535750D01*
X229076250Y-82515750D01*
X228485350Y-82515750D01*
X228402800Y-82598300D01*
X228402800Y-82992000D01*
X228086000Y-82992000D01*
X228086000Y-82862475D01*
X228071358Y-82788867D01*
X228042638Y-82719529D01*
X228000942Y-82657127D01*
X227947874Y-82604058D01*
X227885471Y-82562362D01*
X227816134Y-82533642D01*
X227768176Y-82524102D01*
X227801316Y-82517511D01*
X227861408Y-82492620D01*
X227915490Y-82456483D01*
X227961483Y-82410490D01*
X227997619Y-82356408D01*
X228022511Y-82296316D01*
X228035200Y-82232522D01*
X228035200Y-81714300D01*
X228035200Y-81485700D01*
X228035200Y-80967478D01*
X228022511Y-80903684D01*
X227997619Y-80843592D01*
X227961483Y-80789510D01*
X227915490Y-80743517D01*
X227861408Y-80707380D01*
X227801316Y-80682489D01*
X227737522Y-80669800D01*
X227672478Y-80669800D01*
X227444300Y-80669800D01*
X227361750Y-80752350D01*
X227361750Y-81568250D01*
X227952650Y-81568250D01*
X228035200Y-81485700D01*
X228035200Y-81714300D01*
X227952650Y-81631750D01*
X227361750Y-81631750D01*
X227361750Y-81651750D01*
X227298250Y-81651750D01*
X227298250Y-81631750D01*
X226707350Y-81631750D01*
X226624800Y-81714300D01*
X226624800Y-82232522D01*
X226637489Y-82296316D01*
X226662381Y-82356408D01*
X226698517Y-82410490D01*
X226744510Y-82456483D01*
X226798592Y-82492620D01*
X226858684Y-82517511D01*
X226891823Y-82524102D01*
X226843867Y-82533642D01*
X226774529Y-82562362D01*
X226712127Y-82604058D01*
X226659058Y-82657126D01*
X226617362Y-82719529D01*
X226588642Y-82788866D01*
X226574000Y-82862475D01*
X226574000Y-82937525D01*
X226574000Y-82992000D01*
X224309580Y-82992000D01*
X223594930Y-82277349D01*
X223594930Y-82001935D01*
X223580288Y-81928327D01*
X223564247Y-81889600D01*
X223580288Y-81850874D01*
X223594930Y-81777265D01*
X223594930Y-81702215D01*
X223594930Y-81396840D01*
X224393760Y-81396840D01*
X224438085Y-81392493D01*
X224482535Y-81388605D01*
X224484974Y-81387896D01*
X224487497Y-81387649D01*
X224530160Y-81374768D01*
X224572983Y-81362327D01*
X224575235Y-81361159D01*
X224577665Y-81360426D01*
X224617054Y-81339482D01*
X224656603Y-81318982D01*
X224658583Y-81317400D01*
X224660827Y-81316208D01*
X224695384Y-81288023D01*
X224730212Y-81260221D01*
X224733747Y-81256734D01*
X224733816Y-81256679D01*
X224733868Y-81256615D01*
X224735010Y-81255490D01*
X224954504Y-81035995D01*
X224949154Y-81048479D01*
X224918085Y-81194650D01*
X224915998Y-81344071D01*
X224942974Y-81491052D01*
X224997985Y-81629994D01*
X225078936Y-81755605D01*
X225182743Y-81863100D01*
X225305452Y-81948385D01*
X225442390Y-82008212D01*
X225588340Y-82040301D01*
X225737743Y-82043430D01*
X225884908Y-82017481D01*
X226024231Y-81963441D01*
X226150404Y-81883370D01*
X226258621Y-81780316D01*
X226344761Y-81658205D01*
X226405542Y-81521688D01*
X226438649Y-81375966D01*
X226440592Y-81236827D01*
X226624800Y-81052620D01*
X226624800Y-81485700D01*
X226707350Y-81568250D01*
X227298250Y-81568250D01*
X227298250Y-80752350D01*
X227215700Y-80669800D01*
X226992176Y-80669800D01*
X227012300Y-80632269D01*
X227034921Y-80591122D01*
X227035729Y-80588574D01*
X227036991Y-80586221D01*
X227050711Y-80541343D01*
X227064899Y-80496619D01*
X227065196Y-80493965D01*
X227065978Y-80491410D01*
X227070723Y-80444687D01*
X227075950Y-80398093D01*
X227075986Y-80392873D01*
X227075997Y-80392773D01*
X227075988Y-80392679D01*
X227076000Y-80391000D01*
X227076000Y-79712420D01*
X227252730Y-79889150D01*
X227288968Y-79918916D01*
X227324937Y-79949098D01*
X227327279Y-79950385D01*
X227329342Y-79952080D01*
X227370670Y-79974240D01*
X227411818Y-79996861D01*
X227414365Y-79997669D01*
X227416719Y-79998931D01*
X227461596Y-80012651D01*
X227506321Y-80026839D01*
X227508974Y-80027136D01*
X227511530Y-80027918D01*
X227558252Y-80032663D01*
X227604847Y-80037890D01*
X227610066Y-80037926D01*
X227610167Y-80037937D01*
X227610260Y-80037928D01*
X227611940Y-80037940D01*
X228352000Y-80037940D01*
X228352000Y-81221525D01*
X228366642Y-81295133D01*
X228395362Y-81364471D01*
X228437058Y-81426873D01*
X228490126Y-81479942D01*
X228552529Y-81521638D01*
X228621866Y-81550358D01*
X228669823Y-81559897D01*
X228636684Y-81566489D01*
X228576592Y-81591380D01*
X228522510Y-81627517D01*
X228476517Y-81673510D01*
X228440381Y-81727592D01*
X228415489Y-81787684D01*
X228402800Y-81851478D01*
X228402800Y-82369700D01*
X228485350Y-82452250D01*
X229076250Y-82452250D01*
X229076250Y-82432250D01*
X229139750Y-82432250D01*
X229139750Y-82452250D01*
X229730650Y-82452250D01*
X229813200Y-82369700D01*
X229813200Y-81851478D01*
X229800511Y-81787684D01*
X229775619Y-81727592D01*
X229739483Y-81673510D01*
X229693490Y-81627517D01*
X229639408Y-81591380D01*
X229579316Y-81566489D01*
X229546176Y-81559897D01*
X229594133Y-81550358D01*
X229663471Y-81521638D01*
X229725873Y-81479942D01*
X229778942Y-81426874D01*
X229820638Y-81364471D01*
X229849358Y-81295134D01*
X229864000Y-81221525D01*
X229864000Y-81146475D01*
X229864000Y-80546420D01*
X229872100Y-80538320D01*
X231271816Y-80538320D01*
G36*
X237744000Y-83123100D02*
X237724067Y-83103028D01*
X237600179Y-83019465D01*
X237462420Y-82961556D01*
X237316036Y-82931508D01*
X237166604Y-82930464D01*
X237019815Y-82958466D01*
X236881260Y-83014445D01*
X236756218Y-83096271D01*
X236649450Y-83200826D01*
X236642894Y-83210400D01*
X236220000Y-83210400D01*
X236175674Y-83214746D01*
X236131225Y-83218635D01*
X236128785Y-83219343D01*
X236126263Y-83219591D01*
X236083599Y-83232471D01*
X236040777Y-83244913D01*
X236038524Y-83246080D01*
X236036095Y-83246814D01*
X235996705Y-83267757D01*
X235957157Y-83288258D01*
X235955176Y-83289839D01*
X235952933Y-83291032D01*
X235918375Y-83319216D01*
X235883548Y-83347019D01*
X235880012Y-83350505D01*
X235879944Y-83350561D01*
X235879891Y-83350624D01*
X235878750Y-83351750D01*
X235383450Y-83847050D01*
X235355154Y-83881497D01*
X235326500Y-83915647D01*
X235325278Y-83917869D01*
X235323667Y-83919831D01*
X235302585Y-83959148D01*
X235281125Y-83998184D01*
X235280358Y-84000599D01*
X235279158Y-84002839D01*
X235266114Y-84045502D01*
X235252646Y-84087962D01*
X235252363Y-84090483D01*
X235251621Y-84092911D01*
X235247115Y-84137265D01*
X235242147Y-84181562D01*
X235242112Y-84186522D01*
X235242103Y-84186615D01*
X235242111Y-84186701D01*
X235242100Y-84188300D01*
X235242100Y-84348320D01*
X235059795Y-84348320D01*
X234986187Y-84362962D01*
X234974130Y-84367955D01*
X234962074Y-84362962D01*
X234888465Y-84348320D01*
X234813415Y-84348320D01*
X234559415Y-84348320D01*
X234485807Y-84362962D01*
X234416469Y-84391682D01*
X234400232Y-84402531D01*
X234383082Y-84399120D01*
X234337860Y-84399120D01*
X234255312Y-84481668D01*
X234255312Y-84399120D01*
X234231180Y-84399120D01*
X234231180Y-84371180D01*
X234230917Y-84368502D01*
X235034119Y-83565301D01*
X235135743Y-83567430D01*
X235282908Y-83541481D01*
X235422231Y-83487441D01*
X235548404Y-83407370D01*
X235656621Y-83304316D01*
X235742761Y-83182205D01*
X235803542Y-83045688D01*
X235836649Y-82899966D01*
X235839033Y-82729282D01*
X235810007Y-82582692D01*
X235753061Y-82444532D01*
X235670365Y-82320063D01*
X235585000Y-82234100D01*
X235585000Y-81744420D01*
X235795420Y-81534000D01*
X236982000Y-81534000D01*
X237028703Y-81529420D01*
X237075448Y-81525331D01*
X237078013Y-81524585D01*
X237080671Y-81524325D01*
X237125556Y-81510773D01*
X237170655Y-81497671D01*
X237173029Y-81496440D01*
X237175584Y-81495669D01*
X237216977Y-81473660D01*
X237258677Y-81452045D01*
X237260766Y-81450377D01*
X237263123Y-81449124D01*
X237299508Y-81419448D01*
X237336159Y-81390190D01*
X237339873Y-81386527D01*
X237339954Y-81386462D01*
X237340015Y-81386387D01*
X237341210Y-81385210D01*
X237744000Y-80982420D01*
X237744000Y-83123100D01*
X237744000Y-83123100D01*
G37*
X237744000Y-83123100D02*
X237724067Y-83103028D01*
X237600179Y-83019465D01*
X237462420Y-82961556D01*
X237316036Y-82931508D01*
X237166604Y-82930464D01*
X237019815Y-82958466D01*
X236881260Y-83014445D01*
X236756218Y-83096271D01*
X236649450Y-83200826D01*
X236642894Y-83210400D01*
X236220000Y-83210400D01*
X236175674Y-83214746D01*
X236131225Y-83218635D01*
X236128785Y-83219343D01*
X236126263Y-83219591D01*
X236083599Y-83232471D01*
X236040777Y-83244913D01*
X236038524Y-83246080D01*
X236036095Y-83246814D01*
X235996705Y-83267757D01*
X235957157Y-83288258D01*
X235955176Y-83289839D01*
X235952933Y-83291032D01*
X235918375Y-83319216D01*
X235883548Y-83347019D01*
X235880012Y-83350505D01*
X235879944Y-83350561D01*
X235879891Y-83350624D01*
X235878750Y-83351750D01*
X235383450Y-83847050D01*
X235355154Y-83881497D01*
X235326500Y-83915647D01*
X235325278Y-83917869D01*
X235323667Y-83919831D01*
X235302585Y-83959148D01*
X235281125Y-83998184D01*
X235280358Y-84000599D01*
X235279158Y-84002839D01*
X235266114Y-84045502D01*
X235252646Y-84087962D01*
X235252363Y-84090483D01*
X235251621Y-84092911D01*
X235247115Y-84137265D01*
X235242147Y-84181562D01*
X235242112Y-84186522D01*
X235242103Y-84186615D01*
X235242111Y-84186701D01*
X235242100Y-84188300D01*
X235242100Y-84348320D01*
X235059795Y-84348320D01*
X234986187Y-84362962D01*
X234974130Y-84367955D01*
X234962074Y-84362962D01*
X234888465Y-84348320D01*
X234813415Y-84348320D01*
X234559415Y-84348320D01*
X234485807Y-84362962D01*
X234416469Y-84391682D01*
X234400232Y-84402531D01*
X234383082Y-84399120D01*
X234337860Y-84399120D01*
X234255312Y-84481668D01*
X234255312Y-84399120D01*
X234231180Y-84399120D01*
X234231180Y-84371180D01*
X234230917Y-84368502D01*
X235034119Y-83565301D01*
X235135743Y-83567430D01*
X235282908Y-83541481D01*
X235422231Y-83487441D01*
X235548404Y-83407370D01*
X235656621Y-83304316D01*
X235742761Y-83182205D01*
X235803542Y-83045688D01*
X235836649Y-82899966D01*
X235839033Y-82729282D01*
X235810007Y-82582692D01*
X235753061Y-82444532D01*
X235670365Y-82320063D01*
X235585000Y-82234100D01*
X235585000Y-81744420D01*
X235795420Y-81534000D01*
X236982000Y-81534000D01*
X237028703Y-81529420D01*
X237075448Y-81525331D01*
X237078013Y-81524585D01*
X237080671Y-81524325D01*
X237125556Y-81510773D01*
X237170655Y-81497671D01*
X237173029Y-81496440D01*
X237175584Y-81495669D01*
X237216977Y-81473660D01*
X237258677Y-81452045D01*
X237260766Y-81450377D01*
X237263123Y-81449124D01*
X237299508Y-81419448D01*
X237336159Y-81390190D01*
X237339873Y-81386527D01*
X237339954Y-81386462D01*
X237340015Y-81386387D01*
X237341210Y-81385210D01*
X237744000Y-80982420D01*
X237744000Y-83123100D01*
G36*
X239675668Y-83498688D02*
X239593120Y-83498688D01*
X239593120Y-83522820D01*
X238800240Y-83522820D01*
X238760000Y-83482579D01*
X238760000Y-82451205D01*
X238767452Y-82456385D01*
X238904390Y-82516212D01*
X239050340Y-82548301D01*
X239199743Y-82551430D01*
X239346908Y-82525481D01*
X239486231Y-82471441D01*
X239542320Y-82435846D01*
X239542320Y-82440205D01*
X239542320Y-82694205D01*
X239556962Y-82767813D01*
X239561955Y-82779869D01*
X239556962Y-82791926D01*
X239542320Y-82865535D01*
X239542320Y-82940585D01*
X239542320Y-83194585D01*
X239556962Y-83268193D01*
X239585682Y-83337531D01*
X239596531Y-83353767D01*
X239593120Y-83370918D01*
X239593120Y-83416140D01*
X239675668Y-83498688D01*
X239675668Y-83498688D01*
G37*
X239675668Y-83498688D02*
X239593120Y-83498688D01*
X239593120Y-83522820D01*
X238800240Y-83522820D01*
X238760000Y-83482579D01*
X238760000Y-82451205D01*
X238767452Y-82456385D01*
X238904390Y-82516212D01*
X239050340Y-82548301D01*
X239199743Y-82551430D01*
X239346908Y-82525481D01*
X239486231Y-82471441D01*
X239542320Y-82435846D01*
X239542320Y-82440205D01*
X239542320Y-82694205D01*
X239556962Y-82767813D01*
X239561955Y-82779869D01*
X239556962Y-82791926D01*
X239542320Y-82865535D01*
X239542320Y-82940585D01*
X239542320Y-83194585D01*
X239556962Y-83268193D01*
X239585682Y-83337531D01*
X239596531Y-83353767D01*
X239593120Y-83370918D01*
X239593120Y-83416140D01*
X239675668Y-83498688D01*
G36*
X240361000Y-45586180D02*
X240313408Y-45554380D01*
X240253316Y-45529489D01*
X240189522Y-45516800D01*
X240124478Y-45516800D01*
X239001300Y-45516800D01*
X238918750Y-45599350D01*
X238918750Y-46831250D01*
X238938750Y-46831250D01*
X238938750Y-46894750D01*
X238918750Y-46894750D01*
X238918750Y-46914750D01*
X238855250Y-46914750D01*
X238855250Y-46894750D01*
X238855250Y-46831250D01*
X238855250Y-45599350D01*
X238772700Y-45516800D01*
X237649522Y-45516800D01*
X237584478Y-45516800D01*
X237520684Y-45529489D01*
X237460592Y-45554380D01*
X237406510Y-45590517D01*
X237360517Y-45636510D01*
X237324381Y-45690592D01*
X237299489Y-45750684D01*
X237286800Y-45814478D01*
X237286800Y-46748700D01*
X237369350Y-46831250D01*
X238855250Y-46831250D01*
X238855250Y-46894750D01*
X237369350Y-46894750D01*
X237286800Y-46977300D01*
X237286800Y-47911522D01*
X237299489Y-47975316D01*
X237324381Y-48035408D01*
X237360517Y-48089490D01*
X237368105Y-48097078D01*
X237321058Y-48144126D01*
X237279362Y-48206529D01*
X237250642Y-48275866D01*
X237236000Y-48349475D01*
X237236000Y-48424525D01*
X237236000Y-50456525D01*
X237250642Y-50530133D01*
X237279362Y-50599471D01*
X237315128Y-50652999D01*
X237279362Y-50706529D01*
X237250642Y-50775866D01*
X237236000Y-50849475D01*
X237236000Y-50924525D01*
X237236000Y-52956525D01*
X237236492Y-52959000D01*
X235077000Y-52959000D01*
X235077000Y-64389000D01*
X233117813Y-64389000D01*
X233117813Y-47700934D01*
X233070922Y-47464120D01*
X232978927Y-47240924D01*
X232845332Y-47039848D01*
X232675225Y-46868549D01*
X232475086Y-46733553D01*
X232252538Y-46640003D01*
X232016057Y-46591460D01*
X231774651Y-46589775D01*
X231537516Y-46635011D01*
X231313683Y-46725445D01*
X231111679Y-46857633D01*
X230939197Y-47026540D01*
X230802807Y-47225732D01*
X230707705Y-47447622D01*
X230657513Y-47683758D01*
X230654142Y-47925146D01*
X230697722Y-48162591D01*
X230786591Y-48387050D01*
X230917366Y-48589972D01*
X231085064Y-48763629D01*
X231283299Y-48901406D01*
X231504520Y-48998055D01*
X231740300Y-49049895D01*
X231981658Y-49054950D01*
X232219402Y-49013030D01*
X232444476Y-48925729D01*
X232648306Y-48796375D01*
X232823130Y-48629893D01*
X232962287Y-48432624D01*
X233060478Y-48212084D01*
X233113962Y-47976672D01*
X233117813Y-47700934D01*
X233117813Y-64389000D01*
X231013000Y-64389000D01*
X230966296Y-64393579D01*
X230919552Y-64397669D01*
X230916986Y-64398414D01*
X230914329Y-64398675D01*
X230869443Y-64412226D01*
X230824345Y-64425329D01*
X230821970Y-64426559D01*
X230819416Y-64427331D01*
X230778022Y-64449339D01*
X230736323Y-64470955D01*
X230734233Y-64472622D01*
X230731877Y-64473876D01*
X230695491Y-64503551D01*
X230658841Y-64532810D01*
X230655126Y-64536472D01*
X230655046Y-64536538D01*
X230654984Y-64536612D01*
X230653790Y-64537790D01*
X230305810Y-64885770D01*
X230276043Y-64922008D01*
X230245862Y-64957977D01*
X230244574Y-64960319D01*
X230242880Y-64962382D01*
X230220709Y-65003729D01*
X230198099Y-65044858D01*
X230197291Y-65047403D01*
X230196029Y-65049758D01*
X230182304Y-65094650D01*
X230168121Y-65139361D01*
X230167823Y-65142014D01*
X230167042Y-65144570D01*
X230162296Y-65191292D01*
X230157070Y-65237887D01*
X230157033Y-65243106D01*
X230157023Y-65243207D01*
X230157031Y-65243300D01*
X230157020Y-65244980D01*
X230157020Y-66075560D01*
X230028055Y-66075560D01*
X229954447Y-66090202D01*
X229885109Y-66118922D01*
X229822707Y-66160618D01*
X229769638Y-66213686D01*
X229727942Y-66276089D01*
X229699222Y-66345426D01*
X229684580Y-66419035D01*
X229684580Y-66494085D01*
X229684580Y-67692965D01*
X229699222Y-67766573D01*
X229727942Y-67835911D01*
X229769638Y-67898313D01*
X229822706Y-67951382D01*
X229885109Y-67993078D01*
X229954446Y-68021798D01*
X230028055Y-68036440D01*
X230103105Y-68036440D01*
X231301985Y-68036440D01*
X231375593Y-68021798D01*
X231444931Y-67993078D01*
X231507333Y-67951382D01*
X231560402Y-67898314D01*
X231602098Y-67835911D01*
X231630818Y-67766574D01*
X231645460Y-67692965D01*
X231645460Y-67617915D01*
X231645460Y-66419035D01*
X231630818Y-66345427D01*
X231602098Y-66276089D01*
X231560402Y-66213687D01*
X231507334Y-66160618D01*
X231444931Y-66118922D01*
X231375594Y-66090202D01*
X231301985Y-66075560D01*
X231226935Y-66075560D01*
X231173020Y-66075560D01*
X231173020Y-65455400D01*
X231223420Y-65405000D01*
X234527565Y-65405000D01*
X234516099Y-65425858D01*
X234515291Y-65428403D01*
X234514029Y-65430758D01*
X234500304Y-65475650D01*
X234486121Y-65520361D01*
X234485823Y-65523014D01*
X234485042Y-65525570D01*
X234480296Y-65572292D01*
X234475070Y-65618887D01*
X234475033Y-65624106D01*
X234475023Y-65624207D01*
X234475031Y-65624300D01*
X234475020Y-65625980D01*
X234475020Y-66075560D01*
X234346055Y-66075560D01*
X234272447Y-66090202D01*
X234203109Y-66118922D01*
X234140707Y-66160618D01*
X234087638Y-66213686D01*
X234045942Y-66276089D01*
X234017222Y-66345426D01*
X234002580Y-66419035D01*
X234002580Y-66494085D01*
X234002580Y-67692965D01*
X234017222Y-67766573D01*
X234045942Y-67835911D01*
X234087638Y-67898313D01*
X234140706Y-67951382D01*
X234203109Y-67993078D01*
X234272446Y-68021798D01*
X234346055Y-68036440D01*
X234421105Y-68036440D01*
X235619985Y-68036440D01*
X235693593Y-68021798D01*
X235762931Y-67993078D01*
X235825333Y-67951382D01*
X235878402Y-67898314D01*
X235920098Y-67835911D01*
X235948818Y-67766574D01*
X235963460Y-67692965D01*
X235963460Y-67617915D01*
X235963460Y-66419035D01*
X235948818Y-66345427D01*
X235920098Y-66276089D01*
X235878402Y-66213687D01*
X235825334Y-66160618D01*
X235762931Y-66118922D01*
X235693594Y-66090202D01*
X235619985Y-66075560D01*
X235544935Y-66075560D01*
X235491020Y-66075560D01*
X235491020Y-66040000D01*
X237195701Y-66040000D01*
X237137218Y-66078271D01*
X237030450Y-66182826D01*
X236946023Y-66306127D01*
X236887154Y-66443479D01*
X236856085Y-66589650D01*
X236853998Y-66739071D01*
X236880974Y-66886052D01*
X236935985Y-67024994D01*
X237016936Y-67150605D01*
X237120743Y-67258100D01*
X237243452Y-67343385D01*
X237380390Y-67403212D01*
X237388400Y-67404973D01*
X237388400Y-68507100D01*
X235964200Y-69931300D01*
X235964200Y-69316522D01*
X235964200Y-69251478D01*
X235964200Y-68948300D01*
X235964200Y-68719700D01*
X235964200Y-68416522D01*
X235964200Y-68351478D01*
X235951511Y-68287684D01*
X235926620Y-68227592D01*
X235890483Y-68173510D01*
X235844490Y-68127517D01*
X235790408Y-68091381D01*
X235730316Y-68066489D01*
X235666522Y-68053800D01*
X235148300Y-68053800D01*
X235065750Y-68136350D01*
X235065750Y-68802250D01*
X235881650Y-68802250D01*
X235964200Y-68719700D01*
X235964200Y-68948300D01*
X235881650Y-68865750D01*
X235065750Y-68865750D01*
X235065750Y-69531650D01*
X235148300Y-69614200D01*
X235666522Y-69614200D01*
X235730316Y-69601511D01*
X235790408Y-69576619D01*
X235844490Y-69540483D01*
X235890483Y-69494490D01*
X235926620Y-69440408D01*
X235951511Y-69380316D01*
X235964200Y-69316522D01*
X235964200Y-69931300D01*
X235002250Y-70893250D01*
X235002250Y-69531650D01*
X235002250Y-68865750D01*
X235002250Y-68802250D01*
X235002250Y-68136350D01*
X234919700Y-68053800D01*
X234401478Y-68053800D01*
X234337684Y-68066489D01*
X234277592Y-68091381D01*
X234223510Y-68127517D01*
X234177517Y-68173510D01*
X234141380Y-68227592D01*
X234116489Y-68287684D01*
X234103800Y-68351478D01*
X234103800Y-68416522D01*
X234103800Y-68719700D01*
X234186350Y-68802250D01*
X235002250Y-68802250D01*
X235002250Y-68865750D01*
X234186350Y-68865750D01*
X234103800Y-68948300D01*
X234103800Y-69251478D01*
X234103800Y-69316522D01*
X234116489Y-69380316D01*
X234141380Y-69440408D01*
X234177517Y-69494490D01*
X234223510Y-69540483D01*
X234277592Y-69576619D01*
X234337684Y-69601511D01*
X234401478Y-69614200D01*
X234919700Y-69614200D01*
X235002250Y-69531650D01*
X235002250Y-70893250D01*
X234862750Y-71032750D01*
X234834454Y-71067197D01*
X234805800Y-71101347D01*
X234804578Y-71103569D01*
X234802967Y-71105531D01*
X234781885Y-71144848D01*
X234760425Y-71183884D01*
X234759658Y-71186299D01*
X234758458Y-71188539D01*
X234745414Y-71231202D01*
X234731946Y-71273662D01*
X234731663Y-71276183D01*
X234730921Y-71278611D01*
X234726415Y-71322965D01*
X234721447Y-71367262D01*
X234721412Y-71372222D01*
X234721403Y-71372315D01*
X234721411Y-71372401D01*
X234721400Y-71374000D01*
X234721400Y-71986900D01*
X233865420Y-71130920D01*
X233865420Y-67692965D01*
X233865420Y-67617915D01*
X233865420Y-66419035D01*
X233850778Y-66345427D01*
X233822058Y-66276089D01*
X233780362Y-66213687D01*
X233727294Y-66160618D01*
X233664891Y-66118922D01*
X233595554Y-66090202D01*
X233521945Y-66075560D01*
X233446895Y-66075560D01*
X232248015Y-66075560D01*
X232174407Y-66090202D01*
X232105069Y-66118922D01*
X232042667Y-66160618D01*
X231989598Y-66213686D01*
X231947902Y-66276089D01*
X231919182Y-66345426D01*
X231904540Y-66419035D01*
X231904540Y-66494085D01*
X231904540Y-67692965D01*
X231919182Y-67766573D01*
X231947902Y-67835911D01*
X231989598Y-67898313D01*
X232042666Y-67951382D01*
X232105069Y-67993078D01*
X232150906Y-68012064D01*
X232122867Y-68017642D01*
X232053529Y-68046362D01*
X231991127Y-68088058D01*
X231938058Y-68141126D01*
X231896362Y-68203529D01*
X231867642Y-68272866D01*
X231853000Y-68346475D01*
X231853000Y-68421525D01*
X231853000Y-69321525D01*
X231867642Y-69395133D01*
X231896362Y-69464471D01*
X231938058Y-69526873D01*
X231991126Y-69579942D01*
X232053529Y-69621638D01*
X232122866Y-69650358D01*
X232196475Y-69665000D01*
X232271525Y-69665000D01*
X233471525Y-69665000D01*
X233545133Y-69650358D01*
X233614471Y-69621638D01*
X233676873Y-69579942D01*
X233729942Y-69526874D01*
X233771638Y-69464471D01*
X233800358Y-69395134D01*
X233815000Y-69321525D01*
X233815000Y-69246475D01*
X233815000Y-68346475D01*
X233800358Y-68272867D01*
X233771638Y-68203529D01*
X233729942Y-68141127D01*
X233676874Y-68088058D01*
X233614471Y-68046362D01*
X233568269Y-68027225D01*
X233595553Y-68021798D01*
X233664891Y-67993078D01*
X233727293Y-67951382D01*
X233780362Y-67898314D01*
X233822058Y-67835911D01*
X233850778Y-67766574D01*
X233865420Y-67692965D01*
X233865420Y-71130920D01*
X233423908Y-70689408D01*
X233426033Y-70537282D01*
X233397007Y-70390692D01*
X233340061Y-70252532D01*
X233257365Y-70128063D01*
X233152067Y-70022028D01*
X233028179Y-69938465D01*
X232890420Y-69880556D01*
X232744036Y-69850508D01*
X232594604Y-69849464D01*
X232447815Y-69877466D01*
X232309260Y-69933445D01*
X232184218Y-70015271D01*
X232147617Y-70051112D01*
X232114365Y-70001063D01*
X232009067Y-69895028D01*
X231885179Y-69811465D01*
X231747420Y-69753556D01*
X231646200Y-69732778D01*
X231646200Y-69316522D01*
X231646200Y-69251478D01*
X231646200Y-68948300D01*
X231646200Y-68719700D01*
X231646200Y-68416522D01*
X231646200Y-68351478D01*
X231633511Y-68287684D01*
X231608620Y-68227592D01*
X231572483Y-68173510D01*
X231526490Y-68127517D01*
X231472408Y-68091381D01*
X231412316Y-68066489D01*
X231348522Y-68053800D01*
X230830300Y-68053800D01*
X230747750Y-68136350D01*
X230747750Y-68802250D01*
X231563650Y-68802250D01*
X231646200Y-68719700D01*
X231646200Y-68948300D01*
X231563650Y-68865750D01*
X230747750Y-68865750D01*
X230747750Y-69531650D01*
X230830300Y-69614200D01*
X231348522Y-69614200D01*
X231412316Y-69601511D01*
X231472408Y-69576619D01*
X231526490Y-69540483D01*
X231572483Y-69494490D01*
X231608620Y-69440408D01*
X231633511Y-69380316D01*
X231646200Y-69316522D01*
X231646200Y-69732778D01*
X231601036Y-69723508D01*
X231451604Y-69722464D01*
X231304815Y-69750466D01*
X231166260Y-69806445D01*
X231041218Y-69888271D01*
X230934450Y-69992826D01*
X230850023Y-70116127D01*
X230840603Y-70138103D01*
X230756908Y-70054408D01*
X230759033Y-69902282D01*
X230730007Y-69755692D01*
X230673061Y-69617532D01*
X230643245Y-69572654D01*
X230684250Y-69531650D01*
X230684250Y-68865750D01*
X230684250Y-68802250D01*
X230684250Y-68136350D01*
X230601700Y-68053800D01*
X230083478Y-68053800D01*
X230019684Y-68066489D01*
X229959592Y-68091381D01*
X229905510Y-68127517D01*
X229859517Y-68173510D01*
X229823380Y-68227592D01*
X229798489Y-68287684D01*
X229785800Y-68351478D01*
X229785800Y-68416522D01*
X229785800Y-68719700D01*
X229868350Y-68802250D01*
X230684250Y-68802250D01*
X230684250Y-68865750D01*
X229868350Y-68865750D01*
X229785800Y-68948300D01*
X229785800Y-69241515D01*
X229780815Y-69242466D01*
X229642260Y-69298445D01*
X229517218Y-69380271D01*
X229468926Y-69427562D01*
X229482358Y-69395134D01*
X229497000Y-69321525D01*
X229497000Y-69246475D01*
X229497000Y-68346475D01*
X229482358Y-68272867D01*
X229453638Y-68203529D01*
X229411942Y-68141127D01*
X229358874Y-68088058D01*
X229296471Y-68046362D01*
X229250269Y-68027225D01*
X229277553Y-68021798D01*
X229346891Y-67993078D01*
X229409293Y-67951382D01*
X229462362Y-67898314D01*
X229504058Y-67835911D01*
X229532778Y-67766574D01*
X229547420Y-67692965D01*
X229547420Y-67617915D01*
X229547420Y-66419035D01*
X229532778Y-66345427D01*
X229504058Y-66276089D01*
X229462362Y-66213687D01*
X229409294Y-66160618D01*
X229346891Y-66118922D01*
X229277554Y-66090202D01*
X229203945Y-66075560D01*
X229128895Y-66075560D01*
X228611940Y-66075560D01*
X230973250Y-63714250D01*
X231001545Y-63679802D01*
X231030200Y-63645653D01*
X231031421Y-63643430D01*
X231033033Y-63641469D01*
X231054095Y-63602186D01*
X231075575Y-63563116D01*
X231076342Y-63560695D01*
X231077541Y-63558461D01*
X231090574Y-63515830D01*
X231104054Y-63473338D01*
X231104336Y-63470818D01*
X231105079Y-63468390D01*
X231109584Y-63424029D01*
X231114553Y-63379738D01*
X231114587Y-63374777D01*
X231114597Y-63374685D01*
X231114588Y-63374598D01*
X231114600Y-63373000D01*
X231114600Y-55456708D01*
X231211621Y-55364316D01*
X231297761Y-55242205D01*
X231358542Y-55105688D01*
X231391649Y-54959966D01*
X231394033Y-54789282D01*
X231365007Y-54642692D01*
X231308061Y-54504532D01*
X231225365Y-54380063D01*
X231120067Y-54274028D01*
X230996179Y-54190465D01*
X230858420Y-54132556D01*
X230712036Y-54102508D01*
X230562604Y-54101464D01*
X230415815Y-54129466D01*
X230277260Y-54185445D01*
X230152218Y-54267271D01*
X230045450Y-54371826D01*
X229961023Y-54495127D01*
X229902154Y-54632479D01*
X229871085Y-54778650D01*
X229868998Y-54928071D01*
X229895974Y-55075052D01*
X229941579Y-55190239D01*
X229842420Y-55148556D01*
X229696036Y-55118508D01*
X229546604Y-55117464D01*
X229489033Y-55128446D01*
X229489033Y-54408282D01*
X229460007Y-54261692D01*
X229403061Y-54123532D01*
X229320365Y-53999063D01*
X229215067Y-53893028D01*
X229209600Y-53889340D01*
X229209600Y-51816000D01*
X229205253Y-51771674D01*
X229201365Y-51727225D01*
X229200656Y-51724785D01*
X229200409Y-51722263D01*
X229187528Y-51679599D01*
X229175087Y-51636777D01*
X229173919Y-51634524D01*
X229173186Y-51632095D01*
X229152242Y-51592705D01*
X229131742Y-51553157D01*
X229130160Y-51551176D01*
X229128968Y-51548933D01*
X229100783Y-51514375D01*
X229072981Y-51479548D01*
X229069494Y-51476012D01*
X229069439Y-51475944D01*
X229069375Y-51475891D01*
X229068250Y-51474750D01*
X227798250Y-50204750D01*
X227763802Y-50176454D01*
X227729653Y-50147800D01*
X227727430Y-50146578D01*
X227725469Y-50144967D01*
X227686151Y-50123885D01*
X227647116Y-50102425D01*
X227644700Y-50101658D01*
X227642461Y-50100458D01*
X227599797Y-50087414D01*
X227557338Y-50073946D01*
X227554816Y-50073663D01*
X227552389Y-50072921D01*
X227508034Y-50068415D01*
X227463738Y-50063447D01*
X227458777Y-50063412D01*
X227458685Y-50063403D01*
X227458598Y-50063411D01*
X227457000Y-50063400D01*
X224622253Y-50063400D01*
X224621365Y-50062063D01*
X224516067Y-49956028D01*
X224392179Y-49872465D01*
X224254420Y-49814556D01*
X224108036Y-49784508D01*
X223958604Y-49783464D01*
X223811815Y-49811466D01*
X223673260Y-49867445D01*
X223548218Y-49949271D01*
X223441450Y-50053826D01*
X223357023Y-50177127D01*
X223298154Y-50314479D01*
X223267085Y-50460650D01*
X223264998Y-50610071D01*
X223291974Y-50757052D01*
X223346985Y-50895994D01*
X223427936Y-51021605D01*
X223531743Y-51129100D01*
X223654452Y-51214385D01*
X223791390Y-51274212D01*
X223937340Y-51306301D01*
X224086743Y-51309430D01*
X224233908Y-51283481D01*
X224373231Y-51229441D01*
X224499404Y-51149370D01*
X224607621Y-51046316D01*
X224620118Y-51028600D01*
X227257100Y-51028600D01*
X228244400Y-52015900D01*
X228244400Y-53889030D01*
X228140450Y-53990826D01*
X228056023Y-54114127D01*
X227997154Y-54251479D01*
X227966085Y-54397650D01*
X227963998Y-54547071D01*
X227990974Y-54694052D01*
X228045985Y-54832994D01*
X228126936Y-54958605D01*
X228230743Y-55066100D01*
X228353452Y-55151385D01*
X228490390Y-55211212D01*
X228636340Y-55243301D01*
X228785743Y-55246430D01*
X228932908Y-55220481D01*
X229072231Y-55166441D01*
X229198404Y-55086370D01*
X229306621Y-54983316D01*
X229392761Y-54861205D01*
X229453542Y-54724688D01*
X229486649Y-54578966D01*
X229489033Y-54408282D01*
X229489033Y-55128446D01*
X229399815Y-55145466D01*
X229261260Y-55201445D01*
X229136218Y-55283271D01*
X229029450Y-55387826D01*
X229022894Y-55397400D01*
X224481900Y-55397400D01*
X221448250Y-52363750D01*
X221413802Y-52335454D01*
X221379653Y-52306800D01*
X221377430Y-52305578D01*
X221375469Y-52303967D01*
X221336151Y-52282885D01*
X221297116Y-52261425D01*
X221294700Y-52260658D01*
X221292461Y-52259458D01*
X221249797Y-52246414D01*
X221207338Y-52232946D01*
X221204816Y-52232663D01*
X221202389Y-52231921D01*
X221158034Y-52227415D01*
X221113738Y-52222447D01*
X221108777Y-52222412D01*
X221108685Y-52222403D01*
X221108598Y-52222411D01*
X221107000Y-52222400D01*
X219329000Y-52222400D01*
X219284674Y-52226746D01*
X219240225Y-52230635D01*
X219237785Y-52231343D01*
X219235263Y-52231591D01*
X219192586Y-52244475D01*
X219149778Y-52256913D01*
X219147527Y-52258079D01*
X219145095Y-52258814D01*
X219105686Y-52279767D01*
X219066157Y-52300258D01*
X219064176Y-52301839D01*
X219061933Y-52303032D01*
X219027375Y-52331216D01*
X218992548Y-52359019D01*
X218989012Y-52362505D01*
X218988944Y-52362561D01*
X218988891Y-52362624D01*
X218987750Y-52363750D01*
X218225750Y-53125750D01*
X218197454Y-53160197D01*
X218168800Y-53194347D01*
X218167578Y-53196569D01*
X218165967Y-53198531D01*
X218144885Y-53237848D01*
X218123425Y-53276884D01*
X218122658Y-53279299D01*
X218121458Y-53281539D01*
X218108414Y-53324202D01*
X218094946Y-53366662D01*
X218094663Y-53369183D01*
X218093921Y-53371611D01*
X218089415Y-53415965D01*
X218084447Y-53460262D01*
X218084412Y-53465222D01*
X218084403Y-53465315D01*
X218084411Y-53465401D01*
X218084400Y-53467000D01*
X218084400Y-54651030D01*
X218059000Y-54675904D01*
X218059000Y-52407420D01*
X222136780Y-48329640D01*
X225683860Y-48329640D01*
X225706591Y-48387050D01*
X225837366Y-48589972D01*
X226005064Y-48763629D01*
X226203299Y-48901406D01*
X226424520Y-48998055D01*
X226660300Y-49049895D01*
X226901658Y-49054950D01*
X227139402Y-49013030D01*
X227364476Y-48925729D01*
X227568306Y-48796375D01*
X227743130Y-48629893D01*
X227882287Y-48432624D01*
X227980478Y-48212084D01*
X228033962Y-47976672D01*
X228037813Y-47700934D01*
X227990922Y-47464120D01*
X227898927Y-47240924D01*
X227765332Y-47039848D01*
X227595225Y-46868549D01*
X227398713Y-46736000D01*
X227542700Y-46736000D01*
X228193691Y-47386991D01*
X228167705Y-47447622D01*
X228117513Y-47683758D01*
X228114142Y-47925146D01*
X228157722Y-48162591D01*
X228246591Y-48387050D01*
X228377366Y-48589972D01*
X228545064Y-48763629D01*
X228743299Y-48901406D01*
X228964520Y-48998055D01*
X229200300Y-49049895D01*
X229441658Y-49054950D01*
X229679402Y-49013030D01*
X229904476Y-48925729D01*
X230108306Y-48796375D01*
X230283130Y-48629893D01*
X230422287Y-48432624D01*
X230520478Y-48212084D01*
X230573962Y-47976672D01*
X230577813Y-47700934D01*
X230530922Y-47464120D01*
X230438927Y-47240924D01*
X230305332Y-47039848D01*
X230135225Y-46868549D01*
X229935086Y-46733553D01*
X229712538Y-46640003D01*
X229476057Y-46591460D01*
X229234651Y-46589775D01*
X228997516Y-46635011D01*
X228912784Y-46669244D01*
X228112330Y-45868790D01*
X228076091Y-45839023D01*
X228040123Y-45808842D01*
X228037780Y-45807554D01*
X228035718Y-45805860D01*
X227994370Y-45783689D01*
X227953242Y-45761079D01*
X227950696Y-45760271D01*
X227948342Y-45759009D01*
X227903449Y-45745284D01*
X227858739Y-45731101D01*
X227856085Y-45730803D01*
X227853530Y-45730022D01*
X227806807Y-45725276D01*
X227760213Y-45720050D01*
X227754993Y-45720013D01*
X227754893Y-45720003D01*
X227754799Y-45720011D01*
X227753120Y-45720000D01*
X222377000Y-45720000D01*
X222330300Y-45724579D01*
X222283552Y-45728669D01*
X222280986Y-45729414D01*
X222278329Y-45729675D01*
X222233410Y-45743236D01*
X222188344Y-45756330D01*
X222185973Y-45757558D01*
X222183416Y-45758331D01*
X222141966Y-45780369D01*
X222100323Y-45801956D01*
X222098237Y-45803621D01*
X222095877Y-45804876D01*
X222059487Y-45834554D01*
X222022840Y-45863810D01*
X222019124Y-45867473D01*
X222019046Y-45867538D01*
X222018985Y-45867610D01*
X222017790Y-45868790D01*
X216556790Y-51329790D01*
X216527023Y-51366028D01*
X216496842Y-51401997D01*
X216495554Y-51404339D01*
X216493860Y-51406402D01*
X216471689Y-51447749D01*
X216449079Y-51488878D01*
X216448271Y-51491423D01*
X216447009Y-51493778D01*
X216433284Y-51538670D01*
X216419101Y-51583381D01*
X216418803Y-51586034D01*
X216418022Y-51588590D01*
X216413276Y-51635312D01*
X216408050Y-51681907D01*
X216408013Y-51687126D01*
X216408003Y-51687227D01*
X216408011Y-51687320D01*
X216408000Y-51689000D01*
X216408000Y-58420000D01*
X216412579Y-58466703D01*
X216416669Y-58513448D01*
X216417414Y-58516013D01*
X216417675Y-58518671D01*
X216431226Y-58563556D01*
X216444329Y-58608655D01*
X216445559Y-58611029D01*
X216446331Y-58613584D01*
X216468339Y-58654977D01*
X216489955Y-58696677D01*
X216491622Y-58698766D01*
X216492876Y-58701123D01*
X216522551Y-58737508D01*
X216551810Y-58774159D01*
X216555472Y-58777873D01*
X216555538Y-58777954D01*
X216555612Y-58778015D01*
X216556790Y-58779210D01*
X220726000Y-62948420D01*
X220726000Y-68580000D01*
X220730579Y-68626703D01*
X220734669Y-68673448D01*
X220735414Y-68676013D01*
X220735675Y-68678671D01*
X220749226Y-68723556D01*
X220762329Y-68768655D01*
X220763559Y-68771029D01*
X220764331Y-68773584D01*
X220786339Y-68814977D01*
X220807955Y-68856677D01*
X220809622Y-68858766D01*
X220810876Y-68861123D01*
X220840551Y-68897508D01*
X220869810Y-68934159D01*
X220873472Y-68937873D01*
X220873538Y-68937954D01*
X220873612Y-68938015D01*
X220874790Y-68939210D01*
X222381242Y-70445662D01*
X222367601Y-70435005D01*
X221922982Y-70210411D01*
X221443206Y-70076455D01*
X220946548Y-70038240D01*
X220451927Y-70097220D01*
X219978181Y-70251149D01*
X219543356Y-70494164D01*
X219164015Y-70817010D01*
X218854605Y-71207387D01*
X218626913Y-71650428D01*
X218489611Y-72129257D01*
X218447929Y-72625636D01*
X218503454Y-73120657D01*
X218654072Y-73595466D01*
X218894046Y-74031977D01*
X219214235Y-74413563D01*
X219414276Y-74574400D01*
X219020899Y-74574400D01*
X218183908Y-73737408D01*
X218186033Y-73585282D01*
X218157007Y-73438692D01*
X218100061Y-73300532D01*
X218017365Y-73176063D01*
X217912067Y-73070028D01*
X217788179Y-72986465D01*
X217650420Y-72928556D01*
X217504036Y-72898508D01*
X217354604Y-72897464D01*
X217207815Y-72925466D01*
X217069260Y-72981445D01*
X216944218Y-73063271D01*
X216837450Y-73167826D01*
X216753023Y-73291127D01*
X216694154Y-73428479D01*
X216663085Y-73574650D01*
X216660998Y-73724071D01*
X216687974Y-73871052D01*
X216742985Y-74009994D01*
X216823936Y-74135605D01*
X216927743Y-74243100D01*
X217050452Y-74328385D01*
X217187390Y-74388212D01*
X217333340Y-74420301D01*
X217482743Y-74423430D01*
X217501604Y-74420104D01*
X218315607Y-75234106D01*
X218307510Y-75239517D01*
X218261517Y-75285510D01*
X218225380Y-75339592D01*
X218200489Y-75399684D01*
X218187800Y-75463478D01*
X218187800Y-75528522D01*
X218187800Y-75831700D01*
X218270350Y-75914250D01*
X219086250Y-75914250D01*
X219086250Y-75894250D01*
X219149750Y-75894250D01*
X219149750Y-75914250D01*
X219169750Y-75914250D01*
X219169750Y-75977750D01*
X219149750Y-75977750D01*
X219149750Y-75997750D01*
X219086250Y-75997750D01*
X219086250Y-75977750D01*
X218270350Y-75977750D01*
X218187800Y-76060300D01*
X218187800Y-76363478D01*
X218187800Y-76428522D01*
X218200489Y-76492316D01*
X218225380Y-76552408D01*
X218261517Y-76606490D01*
X218307510Y-76652483D01*
X218307956Y-76652781D01*
X218287600Y-76661212D01*
X218248874Y-76645172D01*
X218175265Y-76630530D01*
X218100215Y-76630530D01*
X217749695Y-76630530D01*
X217676087Y-76645172D01*
X217606749Y-76673892D01*
X217544347Y-76715588D01*
X217491278Y-76768656D01*
X217449582Y-76831059D01*
X217420862Y-76900396D01*
X217406220Y-76974005D01*
X217406220Y-77049055D01*
X217406220Y-77757020D01*
X216674005Y-77757020D01*
X216600397Y-77771662D01*
X216531059Y-77800382D01*
X216468657Y-77842078D01*
X216415588Y-77895146D01*
X216373892Y-77957549D01*
X216345172Y-78026886D01*
X216331000Y-78098132D01*
X216331000Y-69773000D01*
X218948000Y-69773000D01*
X218988412Y-69769037D01*
X219028761Y-69765366D01*
X219030209Y-69764939D01*
X219031715Y-69764792D01*
X219070558Y-69753064D01*
X219109455Y-69741616D01*
X219110794Y-69740915D01*
X219112241Y-69740479D01*
X219148070Y-69721428D01*
X219184000Y-69702645D01*
X219185176Y-69701699D01*
X219186512Y-69700989D01*
X219217932Y-69675362D01*
X219249555Y-69649938D01*
X219250528Y-69648778D01*
X219251697Y-69647825D01*
X219277508Y-69616624D01*
X219303624Y-69585501D01*
X219304353Y-69584174D01*
X219305315Y-69583012D01*
X219324598Y-69547348D01*
X219344147Y-69511789D01*
X219344603Y-69510349D01*
X219345323Y-69509019D01*
X219357317Y-69470272D01*
X219369582Y-69431610D01*
X219369750Y-69430107D01*
X219370197Y-69428665D01*
X219374430Y-69388381D01*
X219378958Y-69348018D01*
X219378978Y-69345110D01*
X219378989Y-69345009D01*
X219378979Y-69344906D01*
X219379000Y-69342000D01*
X219379000Y-65532000D01*
X219375037Y-65491587D01*
X219371366Y-65451239D01*
X219370939Y-65449790D01*
X219370792Y-65448285D01*
X219359064Y-65409441D01*
X219347616Y-65370545D01*
X219346915Y-65369205D01*
X219346479Y-65367759D01*
X219327428Y-65331929D01*
X219308645Y-65296000D01*
X219307699Y-65294823D01*
X219306989Y-65293488D01*
X219281362Y-65262067D01*
X219255938Y-65230445D01*
X219254778Y-65229471D01*
X219253825Y-65228303D01*
X219222624Y-65202491D01*
X219191501Y-65176376D01*
X219190174Y-65175646D01*
X219189012Y-65174685D01*
X219153348Y-65155401D01*
X219117789Y-65135853D01*
X219116349Y-65135396D01*
X219115019Y-65134677D01*
X219076272Y-65122682D01*
X219037610Y-65110418D01*
X219036107Y-65110249D01*
X219034665Y-65109803D01*
X218994381Y-65105569D01*
X218954018Y-65101042D01*
X218951110Y-65101021D01*
X218951009Y-65101011D01*
X218950906Y-65101020D01*
X218948000Y-65101000D01*
X216331000Y-65101000D01*
X216331000Y-47167000D01*
X217932000Y-47167000D01*
X217972412Y-47163037D01*
X218012761Y-47159366D01*
X218014209Y-47158939D01*
X218015715Y-47158792D01*
X218054558Y-47147064D01*
X218093455Y-47135616D01*
X218094794Y-47134915D01*
X218096241Y-47134479D01*
X218132070Y-47115428D01*
X218168000Y-47096645D01*
X218169176Y-47095699D01*
X218170512Y-47094989D01*
X218201932Y-47069362D01*
X218233555Y-47043938D01*
X218234528Y-47042778D01*
X218235697Y-47041825D01*
X218261508Y-47010624D01*
X218287624Y-46979501D01*
X218288353Y-46978174D01*
X218289315Y-46977012D01*
X218308598Y-46941348D01*
X218328147Y-46905789D01*
X218328603Y-46904349D01*
X218329323Y-46903019D01*
X218341317Y-46864272D01*
X218353582Y-46825610D01*
X218353750Y-46824107D01*
X218354197Y-46822665D01*
X218358430Y-46782381D01*
X218362958Y-46742018D01*
X218362978Y-46739110D01*
X218362989Y-46739009D01*
X218362979Y-46738906D01*
X218363000Y-46736000D01*
X218363000Y-45135000D01*
X233249000Y-45135000D01*
X233249000Y-46736000D01*
X233252962Y-46776412D01*
X233256634Y-46816761D01*
X233257060Y-46818209D01*
X233257208Y-46819715D01*
X233268935Y-46858558D01*
X233280384Y-46897455D01*
X233281084Y-46898794D01*
X233281521Y-46900241D01*
X233300571Y-46936070D01*
X233319355Y-46972000D01*
X233320300Y-46973176D01*
X233321011Y-46974512D01*
X233346637Y-47005932D01*
X233372062Y-47037555D01*
X233373221Y-47038528D01*
X233374175Y-47039697D01*
X233405375Y-47065508D01*
X233436499Y-47091624D01*
X233437825Y-47092353D01*
X233438988Y-47093315D01*
X233474651Y-47112598D01*
X233510211Y-47132147D01*
X233511650Y-47132603D01*
X233512981Y-47133323D01*
X233551727Y-47145317D01*
X233590390Y-47157582D01*
X233591892Y-47157750D01*
X233593335Y-47158197D01*
X233633618Y-47162430D01*
X233673982Y-47166958D01*
X233676889Y-47166978D01*
X233676991Y-47166989D01*
X233677093Y-47166979D01*
X233680000Y-47167000D01*
X235712000Y-47167000D01*
X235752412Y-47163037D01*
X235792761Y-47159366D01*
X235794209Y-47158939D01*
X235795715Y-47158792D01*
X235834558Y-47147064D01*
X235873455Y-47135616D01*
X235874794Y-47134915D01*
X235876241Y-47134479D01*
X235912070Y-47115428D01*
X235948000Y-47096645D01*
X235949176Y-47095699D01*
X235950512Y-47094989D01*
X235981932Y-47069362D01*
X236013555Y-47043938D01*
X236014528Y-47042778D01*
X236015697Y-47041825D01*
X236041508Y-47010624D01*
X236067624Y-46979501D01*
X236068353Y-46978174D01*
X236069315Y-46977012D01*
X236088598Y-46941348D01*
X236108147Y-46905789D01*
X236108603Y-46904349D01*
X236109323Y-46903019D01*
X236121317Y-46864272D01*
X236133582Y-46825610D01*
X236133750Y-46824107D01*
X236134197Y-46822665D01*
X236138430Y-46782381D01*
X236142958Y-46742018D01*
X236142978Y-46739110D01*
X236142989Y-46739009D01*
X236142979Y-46738906D01*
X236143000Y-46736000D01*
X236143000Y-45135000D01*
X240361000Y-45135000D01*
X240361000Y-45586180D01*
X240361000Y-45586180D01*
G37*
X240361000Y-45586180D02*
X240313408Y-45554380D01*
X240253316Y-45529489D01*
X240189522Y-45516800D01*
X240124478Y-45516800D01*
X239001300Y-45516800D01*
X238918750Y-45599350D01*
X238918750Y-46831250D01*
X238938750Y-46831250D01*
X238938750Y-46894750D01*
X238918750Y-46894750D01*
X238918750Y-46914750D01*
X238855250Y-46914750D01*
X238855250Y-46894750D01*
X238855250Y-46831250D01*
X238855250Y-45599350D01*
X238772700Y-45516800D01*
X237649522Y-45516800D01*
X237584478Y-45516800D01*
X237520684Y-45529489D01*
X237460592Y-45554380D01*
X237406510Y-45590517D01*
X237360517Y-45636510D01*
X237324381Y-45690592D01*
X237299489Y-45750684D01*
X237286800Y-45814478D01*
X237286800Y-46748700D01*
X237369350Y-46831250D01*
X238855250Y-46831250D01*
X238855250Y-46894750D01*
X237369350Y-46894750D01*
X237286800Y-46977300D01*
X237286800Y-47911522D01*
X237299489Y-47975316D01*
X237324381Y-48035408D01*
X237360517Y-48089490D01*
X237368105Y-48097078D01*
X237321058Y-48144126D01*
X237279362Y-48206529D01*
X237250642Y-48275866D01*
X237236000Y-48349475D01*
X237236000Y-48424525D01*
X237236000Y-50456525D01*
X237250642Y-50530133D01*
X237279362Y-50599471D01*
X237315128Y-50652999D01*
X237279362Y-50706529D01*
X237250642Y-50775866D01*
X237236000Y-50849475D01*
X237236000Y-50924525D01*
X237236000Y-52956525D01*
X237236492Y-52959000D01*
X235077000Y-52959000D01*
X235077000Y-64389000D01*
X233117813Y-64389000D01*
X233117813Y-47700934D01*
X233070922Y-47464120D01*
X232978927Y-47240924D01*
X232845332Y-47039848D01*
X232675225Y-46868549D01*
X232475086Y-46733553D01*
X232252538Y-46640003D01*
X232016057Y-46591460D01*
X231774651Y-46589775D01*
X231537516Y-46635011D01*
X231313683Y-46725445D01*
X231111679Y-46857633D01*
X230939197Y-47026540D01*
X230802807Y-47225732D01*
X230707705Y-47447622D01*
X230657513Y-47683758D01*
X230654142Y-47925146D01*
X230697722Y-48162591D01*
X230786591Y-48387050D01*
X230917366Y-48589972D01*
X231085064Y-48763629D01*
X231283299Y-48901406D01*
X231504520Y-48998055D01*
X231740300Y-49049895D01*
X231981658Y-49054950D01*
X232219402Y-49013030D01*
X232444476Y-48925729D01*
X232648306Y-48796375D01*
X232823130Y-48629893D01*
X232962287Y-48432624D01*
X233060478Y-48212084D01*
X233113962Y-47976672D01*
X233117813Y-47700934D01*
X233117813Y-64389000D01*
X231013000Y-64389000D01*
X230966296Y-64393579D01*
X230919552Y-64397669D01*
X230916986Y-64398414D01*
X230914329Y-64398675D01*
X230869443Y-64412226D01*
X230824345Y-64425329D01*
X230821970Y-64426559D01*
X230819416Y-64427331D01*
X230778022Y-64449339D01*
X230736323Y-64470955D01*
X230734233Y-64472622D01*
X230731877Y-64473876D01*
X230695491Y-64503551D01*
X230658841Y-64532810D01*
X230655126Y-64536472D01*
X230655046Y-64536538D01*
X230654984Y-64536612D01*
X230653790Y-64537790D01*
X230305810Y-64885770D01*
X230276043Y-64922008D01*
X230245862Y-64957977D01*
X230244574Y-64960319D01*
X230242880Y-64962382D01*
X230220709Y-65003729D01*
X230198099Y-65044858D01*
X230197291Y-65047403D01*
X230196029Y-65049758D01*
X230182304Y-65094650D01*
X230168121Y-65139361D01*
X230167823Y-65142014D01*
X230167042Y-65144570D01*
X230162296Y-65191292D01*
X230157070Y-65237887D01*
X230157033Y-65243106D01*
X230157023Y-65243207D01*
X230157031Y-65243300D01*
X230157020Y-65244980D01*
X230157020Y-66075560D01*
X230028055Y-66075560D01*
X229954447Y-66090202D01*
X229885109Y-66118922D01*
X229822707Y-66160618D01*
X229769638Y-66213686D01*
X229727942Y-66276089D01*
X229699222Y-66345426D01*
X229684580Y-66419035D01*
X229684580Y-66494085D01*
X229684580Y-67692965D01*
X229699222Y-67766573D01*
X229727942Y-67835911D01*
X229769638Y-67898313D01*
X229822706Y-67951382D01*
X229885109Y-67993078D01*
X229954446Y-68021798D01*
X230028055Y-68036440D01*
X230103105Y-68036440D01*
X231301985Y-68036440D01*
X231375593Y-68021798D01*
X231444931Y-67993078D01*
X231507333Y-67951382D01*
X231560402Y-67898314D01*
X231602098Y-67835911D01*
X231630818Y-67766574D01*
X231645460Y-67692965D01*
X231645460Y-67617915D01*
X231645460Y-66419035D01*
X231630818Y-66345427D01*
X231602098Y-66276089D01*
X231560402Y-66213687D01*
X231507334Y-66160618D01*
X231444931Y-66118922D01*
X231375594Y-66090202D01*
X231301985Y-66075560D01*
X231226935Y-66075560D01*
X231173020Y-66075560D01*
X231173020Y-65455400D01*
X231223420Y-65405000D01*
X234527565Y-65405000D01*
X234516099Y-65425858D01*
X234515291Y-65428403D01*
X234514029Y-65430758D01*
X234500304Y-65475650D01*
X234486121Y-65520361D01*
X234485823Y-65523014D01*
X234485042Y-65525570D01*
X234480296Y-65572292D01*
X234475070Y-65618887D01*
X234475033Y-65624106D01*
X234475023Y-65624207D01*
X234475031Y-65624300D01*
X234475020Y-65625980D01*
X234475020Y-66075560D01*
X234346055Y-66075560D01*
X234272447Y-66090202D01*
X234203109Y-66118922D01*
X234140707Y-66160618D01*
X234087638Y-66213686D01*
X234045942Y-66276089D01*
X234017222Y-66345426D01*
X234002580Y-66419035D01*
X234002580Y-66494085D01*
X234002580Y-67692965D01*
X234017222Y-67766573D01*
X234045942Y-67835911D01*
X234087638Y-67898313D01*
X234140706Y-67951382D01*
X234203109Y-67993078D01*
X234272446Y-68021798D01*
X234346055Y-68036440D01*
X234421105Y-68036440D01*
X235619985Y-68036440D01*
X235693593Y-68021798D01*
X235762931Y-67993078D01*
X235825333Y-67951382D01*
X235878402Y-67898314D01*
X235920098Y-67835911D01*
X235948818Y-67766574D01*
X235963460Y-67692965D01*
X235963460Y-67617915D01*
X235963460Y-66419035D01*
X235948818Y-66345427D01*
X235920098Y-66276089D01*
X235878402Y-66213687D01*
X235825334Y-66160618D01*
X235762931Y-66118922D01*
X235693594Y-66090202D01*
X235619985Y-66075560D01*
X235544935Y-66075560D01*
X235491020Y-66075560D01*
X235491020Y-66040000D01*
X237195701Y-66040000D01*
X237137218Y-66078271D01*
X237030450Y-66182826D01*
X236946023Y-66306127D01*
X236887154Y-66443479D01*
X236856085Y-66589650D01*
X236853998Y-66739071D01*
X236880974Y-66886052D01*
X236935985Y-67024994D01*
X237016936Y-67150605D01*
X237120743Y-67258100D01*
X237243452Y-67343385D01*
X237380390Y-67403212D01*
X237388400Y-67404973D01*
X237388400Y-68507100D01*
X235964200Y-69931300D01*
X235964200Y-69316522D01*
X235964200Y-69251478D01*
X235964200Y-68948300D01*
X235964200Y-68719700D01*
X235964200Y-68416522D01*
X235964200Y-68351478D01*
X235951511Y-68287684D01*
X235926620Y-68227592D01*
X235890483Y-68173510D01*
X235844490Y-68127517D01*
X235790408Y-68091381D01*
X235730316Y-68066489D01*
X235666522Y-68053800D01*
X235148300Y-68053800D01*
X235065750Y-68136350D01*
X235065750Y-68802250D01*
X235881650Y-68802250D01*
X235964200Y-68719700D01*
X235964200Y-68948300D01*
X235881650Y-68865750D01*
X235065750Y-68865750D01*
X235065750Y-69531650D01*
X235148300Y-69614200D01*
X235666522Y-69614200D01*
X235730316Y-69601511D01*
X235790408Y-69576619D01*
X235844490Y-69540483D01*
X235890483Y-69494490D01*
X235926620Y-69440408D01*
X235951511Y-69380316D01*
X235964200Y-69316522D01*
X235964200Y-69931300D01*
X235002250Y-70893250D01*
X235002250Y-69531650D01*
X235002250Y-68865750D01*
X235002250Y-68802250D01*
X235002250Y-68136350D01*
X234919700Y-68053800D01*
X234401478Y-68053800D01*
X234337684Y-68066489D01*
X234277592Y-68091381D01*
X234223510Y-68127517D01*
X234177517Y-68173510D01*
X234141380Y-68227592D01*
X234116489Y-68287684D01*
X234103800Y-68351478D01*
X234103800Y-68416522D01*
X234103800Y-68719700D01*
X234186350Y-68802250D01*
X235002250Y-68802250D01*
X235002250Y-68865750D01*
X234186350Y-68865750D01*
X234103800Y-68948300D01*
X234103800Y-69251478D01*
X234103800Y-69316522D01*
X234116489Y-69380316D01*
X234141380Y-69440408D01*
X234177517Y-69494490D01*
X234223510Y-69540483D01*
X234277592Y-69576619D01*
X234337684Y-69601511D01*
X234401478Y-69614200D01*
X234919700Y-69614200D01*
X235002250Y-69531650D01*
X235002250Y-70893250D01*
X234862750Y-71032750D01*
X234834454Y-71067197D01*
X234805800Y-71101347D01*
X234804578Y-71103569D01*
X234802967Y-71105531D01*
X234781885Y-71144848D01*
X234760425Y-71183884D01*
X234759658Y-71186299D01*
X234758458Y-71188539D01*
X234745414Y-71231202D01*
X234731946Y-71273662D01*
X234731663Y-71276183D01*
X234730921Y-71278611D01*
X234726415Y-71322965D01*
X234721447Y-71367262D01*
X234721412Y-71372222D01*
X234721403Y-71372315D01*
X234721411Y-71372401D01*
X234721400Y-71374000D01*
X234721400Y-71986900D01*
X233865420Y-71130920D01*
X233865420Y-67692965D01*
X233865420Y-67617915D01*
X233865420Y-66419035D01*
X233850778Y-66345427D01*
X233822058Y-66276089D01*
X233780362Y-66213687D01*
X233727294Y-66160618D01*
X233664891Y-66118922D01*
X233595554Y-66090202D01*
X233521945Y-66075560D01*
X233446895Y-66075560D01*
X232248015Y-66075560D01*
X232174407Y-66090202D01*
X232105069Y-66118922D01*
X232042667Y-66160618D01*
X231989598Y-66213686D01*
X231947902Y-66276089D01*
X231919182Y-66345426D01*
X231904540Y-66419035D01*
X231904540Y-66494085D01*
X231904540Y-67692965D01*
X231919182Y-67766573D01*
X231947902Y-67835911D01*
X231989598Y-67898313D01*
X232042666Y-67951382D01*
X232105069Y-67993078D01*
X232150906Y-68012064D01*
X232122867Y-68017642D01*
X232053529Y-68046362D01*
X231991127Y-68088058D01*
X231938058Y-68141126D01*
X231896362Y-68203529D01*
X231867642Y-68272866D01*
X231853000Y-68346475D01*
X231853000Y-68421525D01*
X231853000Y-69321525D01*
X231867642Y-69395133D01*
X231896362Y-69464471D01*
X231938058Y-69526873D01*
X231991126Y-69579942D01*
X232053529Y-69621638D01*
X232122866Y-69650358D01*
X232196475Y-69665000D01*
X232271525Y-69665000D01*
X233471525Y-69665000D01*
X233545133Y-69650358D01*
X233614471Y-69621638D01*
X233676873Y-69579942D01*
X233729942Y-69526874D01*
X233771638Y-69464471D01*
X233800358Y-69395134D01*
X233815000Y-69321525D01*
X233815000Y-69246475D01*
X233815000Y-68346475D01*
X233800358Y-68272867D01*
X233771638Y-68203529D01*
X233729942Y-68141127D01*
X233676874Y-68088058D01*
X233614471Y-68046362D01*
X233568269Y-68027225D01*
X233595553Y-68021798D01*
X233664891Y-67993078D01*
X233727293Y-67951382D01*
X233780362Y-67898314D01*
X233822058Y-67835911D01*
X233850778Y-67766574D01*
X233865420Y-67692965D01*
X233865420Y-71130920D01*
X233423908Y-70689408D01*
X233426033Y-70537282D01*
X233397007Y-70390692D01*
X233340061Y-70252532D01*
X233257365Y-70128063D01*
X233152067Y-70022028D01*
X233028179Y-69938465D01*
X232890420Y-69880556D01*
X232744036Y-69850508D01*
X232594604Y-69849464D01*
X232447815Y-69877466D01*
X232309260Y-69933445D01*
X232184218Y-70015271D01*
X232147617Y-70051112D01*
X232114365Y-70001063D01*
X232009067Y-69895028D01*
X231885179Y-69811465D01*
X231747420Y-69753556D01*
X231646200Y-69732778D01*
X231646200Y-69316522D01*
X231646200Y-69251478D01*
X231646200Y-68948300D01*
X231646200Y-68719700D01*
X231646200Y-68416522D01*
X231646200Y-68351478D01*
X231633511Y-68287684D01*
X231608620Y-68227592D01*
X231572483Y-68173510D01*
X231526490Y-68127517D01*
X231472408Y-68091381D01*
X231412316Y-68066489D01*
X231348522Y-68053800D01*
X230830300Y-68053800D01*
X230747750Y-68136350D01*
X230747750Y-68802250D01*
X231563650Y-68802250D01*
X231646200Y-68719700D01*
X231646200Y-68948300D01*
X231563650Y-68865750D01*
X230747750Y-68865750D01*
X230747750Y-69531650D01*
X230830300Y-69614200D01*
X231348522Y-69614200D01*
X231412316Y-69601511D01*
X231472408Y-69576619D01*
X231526490Y-69540483D01*
X231572483Y-69494490D01*
X231608620Y-69440408D01*
X231633511Y-69380316D01*
X231646200Y-69316522D01*
X231646200Y-69732778D01*
X231601036Y-69723508D01*
X231451604Y-69722464D01*
X231304815Y-69750466D01*
X231166260Y-69806445D01*
X231041218Y-69888271D01*
X230934450Y-69992826D01*
X230850023Y-70116127D01*
X230840603Y-70138103D01*
X230756908Y-70054408D01*
X230759033Y-69902282D01*
X230730007Y-69755692D01*
X230673061Y-69617532D01*
X230643245Y-69572654D01*
X230684250Y-69531650D01*
X230684250Y-68865750D01*
X230684250Y-68802250D01*
X230684250Y-68136350D01*
X230601700Y-68053800D01*
X230083478Y-68053800D01*
X230019684Y-68066489D01*
X229959592Y-68091381D01*
X229905510Y-68127517D01*
X229859517Y-68173510D01*
X229823380Y-68227592D01*
X229798489Y-68287684D01*
X229785800Y-68351478D01*
X229785800Y-68416522D01*
X229785800Y-68719700D01*
X229868350Y-68802250D01*
X230684250Y-68802250D01*
X230684250Y-68865750D01*
X229868350Y-68865750D01*
X229785800Y-68948300D01*
X229785800Y-69241515D01*
X229780815Y-69242466D01*
X229642260Y-69298445D01*
X229517218Y-69380271D01*
X229468926Y-69427562D01*
X229482358Y-69395134D01*
X229497000Y-69321525D01*
X229497000Y-69246475D01*
X229497000Y-68346475D01*
X229482358Y-68272867D01*
X229453638Y-68203529D01*
X229411942Y-68141127D01*
X229358874Y-68088058D01*
X229296471Y-68046362D01*
X229250269Y-68027225D01*
X229277553Y-68021798D01*
X229346891Y-67993078D01*
X229409293Y-67951382D01*
X229462362Y-67898314D01*
X229504058Y-67835911D01*
X229532778Y-67766574D01*
X229547420Y-67692965D01*
X229547420Y-67617915D01*
X229547420Y-66419035D01*
X229532778Y-66345427D01*
X229504058Y-66276089D01*
X229462362Y-66213687D01*
X229409294Y-66160618D01*
X229346891Y-66118922D01*
X229277554Y-66090202D01*
X229203945Y-66075560D01*
X229128895Y-66075560D01*
X228611940Y-66075560D01*
X230973250Y-63714250D01*
X231001545Y-63679802D01*
X231030200Y-63645653D01*
X231031421Y-63643430D01*
X231033033Y-63641469D01*
X231054095Y-63602186D01*
X231075575Y-63563116D01*
X231076342Y-63560695D01*
X231077541Y-63558461D01*
X231090574Y-63515830D01*
X231104054Y-63473338D01*
X231104336Y-63470818D01*
X231105079Y-63468390D01*
X231109584Y-63424029D01*
X231114553Y-63379738D01*
X231114587Y-63374777D01*
X231114597Y-63374685D01*
X231114588Y-63374598D01*
X231114600Y-63373000D01*
X231114600Y-55456708D01*
X231211621Y-55364316D01*
X231297761Y-55242205D01*
X231358542Y-55105688D01*
X231391649Y-54959966D01*
X231394033Y-54789282D01*
X231365007Y-54642692D01*
X231308061Y-54504532D01*
X231225365Y-54380063D01*
X231120067Y-54274028D01*
X230996179Y-54190465D01*
X230858420Y-54132556D01*
X230712036Y-54102508D01*
X230562604Y-54101464D01*
X230415815Y-54129466D01*
X230277260Y-54185445D01*
X230152218Y-54267271D01*
X230045450Y-54371826D01*
X229961023Y-54495127D01*
X229902154Y-54632479D01*
X229871085Y-54778650D01*
X229868998Y-54928071D01*
X229895974Y-55075052D01*
X229941579Y-55190239D01*
X229842420Y-55148556D01*
X229696036Y-55118508D01*
X229546604Y-55117464D01*
X229489033Y-55128446D01*
X229489033Y-54408282D01*
X229460007Y-54261692D01*
X229403061Y-54123532D01*
X229320365Y-53999063D01*
X229215067Y-53893028D01*
X229209600Y-53889340D01*
X229209600Y-51816000D01*
X229205253Y-51771674D01*
X229201365Y-51727225D01*
X229200656Y-51724785D01*
X229200409Y-51722263D01*
X229187528Y-51679599D01*
X229175087Y-51636777D01*
X229173919Y-51634524D01*
X229173186Y-51632095D01*
X229152242Y-51592705D01*
X229131742Y-51553157D01*
X229130160Y-51551176D01*
X229128968Y-51548933D01*
X229100783Y-51514375D01*
X229072981Y-51479548D01*
X229069494Y-51476012D01*
X229069439Y-51475944D01*
X229069375Y-51475891D01*
X229068250Y-51474750D01*
X227798250Y-50204750D01*
X227763802Y-50176454D01*
X227729653Y-50147800D01*
X227727430Y-50146578D01*
X227725469Y-50144967D01*
X227686151Y-50123885D01*
X227647116Y-50102425D01*
X227644700Y-50101658D01*
X227642461Y-50100458D01*
X227599797Y-50087414D01*
X227557338Y-50073946D01*
X227554816Y-50073663D01*
X227552389Y-50072921D01*
X227508034Y-50068415D01*
X227463738Y-50063447D01*
X227458777Y-50063412D01*
X227458685Y-50063403D01*
X227458598Y-50063411D01*
X227457000Y-50063400D01*
X224622253Y-50063400D01*
X224621365Y-50062063D01*
X224516067Y-49956028D01*
X224392179Y-49872465D01*
X224254420Y-49814556D01*
X224108036Y-49784508D01*
X223958604Y-49783464D01*
X223811815Y-49811466D01*
X223673260Y-49867445D01*
X223548218Y-49949271D01*
X223441450Y-50053826D01*
X223357023Y-50177127D01*
X223298154Y-50314479D01*
X223267085Y-50460650D01*
X223264998Y-50610071D01*
X223291974Y-50757052D01*
X223346985Y-50895994D01*
X223427936Y-51021605D01*
X223531743Y-51129100D01*
X223654452Y-51214385D01*
X223791390Y-51274212D01*
X223937340Y-51306301D01*
X224086743Y-51309430D01*
X224233908Y-51283481D01*
X224373231Y-51229441D01*
X224499404Y-51149370D01*
X224607621Y-51046316D01*
X224620118Y-51028600D01*
X227257100Y-51028600D01*
X228244400Y-52015900D01*
X228244400Y-53889030D01*
X228140450Y-53990826D01*
X228056023Y-54114127D01*
X227997154Y-54251479D01*
X227966085Y-54397650D01*
X227963998Y-54547071D01*
X227990974Y-54694052D01*
X228045985Y-54832994D01*
X228126936Y-54958605D01*
X228230743Y-55066100D01*
X228353452Y-55151385D01*
X228490390Y-55211212D01*
X228636340Y-55243301D01*
X228785743Y-55246430D01*
X228932908Y-55220481D01*
X229072231Y-55166441D01*
X229198404Y-55086370D01*
X229306621Y-54983316D01*
X229392761Y-54861205D01*
X229453542Y-54724688D01*
X229486649Y-54578966D01*
X229489033Y-54408282D01*
X229489033Y-55128446D01*
X229399815Y-55145466D01*
X229261260Y-55201445D01*
X229136218Y-55283271D01*
X229029450Y-55387826D01*
X229022894Y-55397400D01*
X224481900Y-55397400D01*
X221448250Y-52363750D01*
X221413802Y-52335454D01*
X221379653Y-52306800D01*
X221377430Y-52305578D01*
X221375469Y-52303967D01*
X221336151Y-52282885D01*
X221297116Y-52261425D01*
X221294700Y-52260658D01*
X221292461Y-52259458D01*
X221249797Y-52246414D01*
X221207338Y-52232946D01*
X221204816Y-52232663D01*
X221202389Y-52231921D01*
X221158034Y-52227415D01*
X221113738Y-52222447D01*
X221108777Y-52222412D01*
X221108685Y-52222403D01*
X221108598Y-52222411D01*
X221107000Y-52222400D01*
X219329000Y-52222400D01*
X219284674Y-52226746D01*
X219240225Y-52230635D01*
X219237785Y-52231343D01*
X219235263Y-52231591D01*
X219192586Y-52244475D01*
X219149778Y-52256913D01*
X219147527Y-52258079D01*
X219145095Y-52258814D01*
X219105686Y-52279767D01*
X219066157Y-52300258D01*
X219064176Y-52301839D01*
X219061933Y-52303032D01*
X219027375Y-52331216D01*
X218992548Y-52359019D01*
X218989012Y-52362505D01*
X218988944Y-52362561D01*
X218988891Y-52362624D01*
X218987750Y-52363750D01*
X218225750Y-53125750D01*
X218197454Y-53160197D01*
X218168800Y-53194347D01*
X218167578Y-53196569D01*
X218165967Y-53198531D01*
X218144885Y-53237848D01*
X218123425Y-53276884D01*
X218122658Y-53279299D01*
X218121458Y-53281539D01*
X218108414Y-53324202D01*
X218094946Y-53366662D01*
X218094663Y-53369183D01*
X218093921Y-53371611D01*
X218089415Y-53415965D01*
X218084447Y-53460262D01*
X218084412Y-53465222D01*
X218084403Y-53465315D01*
X218084411Y-53465401D01*
X218084400Y-53467000D01*
X218084400Y-54651030D01*
X218059000Y-54675904D01*
X218059000Y-52407420D01*
X222136780Y-48329640D01*
X225683860Y-48329640D01*
X225706591Y-48387050D01*
X225837366Y-48589972D01*
X226005064Y-48763629D01*
X226203299Y-48901406D01*
X226424520Y-48998055D01*
X226660300Y-49049895D01*
X226901658Y-49054950D01*
X227139402Y-49013030D01*
X227364476Y-48925729D01*
X227568306Y-48796375D01*
X227743130Y-48629893D01*
X227882287Y-48432624D01*
X227980478Y-48212084D01*
X228033962Y-47976672D01*
X228037813Y-47700934D01*
X227990922Y-47464120D01*
X227898927Y-47240924D01*
X227765332Y-47039848D01*
X227595225Y-46868549D01*
X227398713Y-46736000D01*
X227542700Y-46736000D01*
X228193691Y-47386991D01*
X228167705Y-47447622D01*
X228117513Y-47683758D01*
X228114142Y-47925146D01*
X228157722Y-48162591D01*
X228246591Y-48387050D01*
X228377366Y-48589972D01*
X228545064Y-48763629D01*
X228743299Y-48901406D01*
X228964520Y-48998055D01*
X229200300Y-49049895D01*
X229441658Y-49054950D01*
X229679402Y-49013030D01*
X229904476Y-48925729D01*
X230108306Y-48796375D01*
X230283130Y-48629893D01*
X230422287Y-48432624D01*
X230520478Y-48212084D01*
X230573962Y-47976672D01*
X230577813Y-47700934D01*
X230530922Y-47464120D01*
X230438927Y-47240924D01*
X230305332Y-47039848D01*
X230135225Y-46868549D01*
X229935086Y-46733553D01*
X229712538Y-46640003D01*
X229476057Y-46591460D01*
X229234651Y-46589775D01*
X228997516Y-46635011D01*
X228912784Y-46669244D01*
X228112330Y-45868790D01*
X228076091Y-45839023D01*
X228040123Y-45808842D01*
X228037780Y-45807554D01*
X228035718Y-45805860D01*
X227994370Y-45783689D01*
X227953242Y-45761079D01*
X227950696Y-45760271D01*
X227948342Y-45759009D01*
X227903449Y-45745284D01*
X227858739Y-45731101D01*
X227856085Y-45730803D01*
X227853530Y-45730022D01*
X227806807Y-45725276D01*
X227760213Y-45720050D01*
X227754993Y-45720013D01*
X227754893Y-45720003D01*
X227754799Y-45720011D01*
X227753120Y-45720000D01*
X222377000Y-45720000D01*
X222330300Y-45724579D01*
X222283552Y-45728669D01*
X222280986Y-45729414D01*
X222278329Y-45729675D01*
X222233410Y-45743236D01*
X222188344Y-45756330D01*
X222185973Y-45757558D01*
X222183416Y-45758331D01*
X222141966Y-45780369D01*
X222100323Y-45801956D01*
X222098237Y-45803621D01*
X222095877Y-45804876D01*
X222059487Y-45834554D01*
X222022840Y-45863810D01*
X222019124Y-45867473D01*
X222019046Y-45867538D01*
X222018985Y-45867610D01*
X222017790Y-45868790D01*
X216556790Y-51329790D01*
X216527023Y-51366028D01*
X216496842Y-51401997D01*
X216495554Y-51404339D01*
X216493860Y-51406402D01*
X216471689Y-51447749D01*
X216449079Y-51488878D01*
X216448271Y-51491423D01*
X216447009Y-51493778D01*
X216433284Y-51538670D01*
X216419101Y-51583381D01*
X216418803Y-51586034D01*
X216418022Y-51588590D01*
X216413276Y-51635312D01*
X216408050Y-51681907D01*
X216408013Y-51687126D01*
X216408003Y-51687227D01*
X216408011Y-51687320D01*
X216408000Y-51689000D01*
X216408000Y-58420000D01*
X216412579Y-58466703D01*
X216416669Y-58513448D01*
X216417414Y-58516013D01*
X216417675Y-58518671D01*
X216431226Y-58563556D01*
X216444329Y-58608655D01*
X216445559Y-58611029D01*
X216446331Y-58613584D01*
X216468339Y-58654977D01*
X216489955Y-58696677D01*
X216491622Y-58698766D01*
X216492876Y-58701123D01*
X216522551Y-58737508D01*
X216551810Y-58774159D01*
X216555472Y-58777873D01*
X216555538Y-58777954D01*
X216555612Y-58778015D01*
X216556790Y-58779210D01*
X220726000Y-62948420D01*
X220726000Y-68580000D01*
X220730579Y-68626703D01*
X220734669Y-68673448D01*
X220735414Y-68676013D01*
X220735675Y-68678671D01*
X220749226Y-68723556D01*
X220762329Y-68768655D01*
X220763559Y-68771029D01*
X220764331Y-68773584D01*
X220786339Y-68814977D01*
X220807955Y-68856677D01*
X220809622Y-68858766D01*
X220810876Y-68861123D01*
X220840551Y-68897508D01*
X220869810Y-68934159D01*
X220873472Y-68937873D01*
X220873538Y-68937954D01*
X220873612Y-68938015D01*
X220874790Y-68939210D01*
X222381242Y-70445662D01*
X222367601Y-70435005D01*
X221922982Y-70210411D01*
X221443206Y-70076455D01*
X220946548Y-70038240D01*
X220451927Y-70097220D01*
X219978181Y-70251149D01*
X219543356Y-70494164D01*
X219164015Y-70817010D01*
X218854605Y-71207387D01*
X218626913Y-71650428D01*
X218489611Y-72129257D01*
X218447929Y-72625636D01*
X218503454Y-73120657D01*
X218654072Y-73595466D01*
X218894046Y-74031977D01*
X219214235Y-74413563D01*
X219414276Y-74574400D01*
X219020899Y-74574400D01*
X218183908Y-73737408D01*
X218186033Y-73585282D01*
X218157007Y-73438692D01*
X218100061Y-73300532D01*
X218017365Y-73176063D01*
X217912067Y-73070028D01*
X217788179Y-72986465D01*
X217650420Y-72928556D01*
X217504036Y-72898508D01*
X217354604Y-72897464D01*
X217207815Y-72925466D01*
X217069260Y-72981445D01*
X216944218Y-73063271D01*
X216837450Y-73167826D01*
X216753023Y-73291127D01*
X216694154Y-73428479D01*
X216663085Y-73574650D01*
X216660998Y-73724071D01*
X216687974Y-73871052D01*
X216742985Y-74009994D01*
X216823936Y-74135605D01*
X216927743Y-74243100D01*
X217050452Y-74328385D01*
X217187390Y-74388212D01*
X217333340Y-74420301D01*
X217482743Y-74423430D01*
X217501604Y-74420104D01*
X218315607Y-75234106D01*
X218307510Y-75239517D01*
X218261517Y-75285510D01*
X218225380Y-75339592D01*
X218200489Y-75399684D01*
X218187800Y-75463478D01*
X218187800Y-75528522D01*
X218187800Y-75831700D01*
X218270350Y-75914250D01*
X219086250Y-75914250D01*
X219086250Y-75894250D01*
X219149750Y-75894250D01*
X219149750Y-75914250D01*
X219169750Y-75914250D01*
X219169750Y-75977750D01*
X219149750Y-75977750D01*
X219149750Y-75997750D01*
X219086250Y-75997750D01*
X219086250Y-75977750D01*
X218270350Y-75977750D01*
X218187800Y-76060300D01*
X218187800Y-76363478D01*
X218187800Y-76428522D01*
X218200489Y-76492316D01*
X218225380Y-76552408D01*
X218261517Y-76606490D01*
X218307510Y-76652483D01*
X218307956Y-76652781D01*
X218287600Y-76661212D01*
X218248874Y-76645172D01*
X218175265Y-76630530D01*
X218100215Y-76630530D01*
X217749695Y-76630530D01*
X217676087Y-76645172D01*
X217606749Y-76673892D01*
X217544347Y-76715588D01*
X217491278Y-76768656D01*
X217449582Y-76831059D01*
X217420862Y-76900396D01*
X217406220Y-76974005D01*
X217406220Y-77049055D01*
X217406220Y-77757020D01*
X216674005Y-77757020D01*
X216600397Y-77771662D01*
X216531059Y-77800382D01*
X216468657Y-77842078D01*
X216415588Y-77895146D01*
X216373892Y-77957549D01*
X216345172Y-78026886D01*
X216331000Y-78098132D01*
X216331000Y-69773000D01*
X218948000Y-69773000D01*
X218988412Y-69769037D01*
X219028761Y-69765366D01*
X219030209Y-69764939D01*
X219031715Y-69764792D01*
X219070558Y-69753064D01*
X219109455Y-69741616D01*
X219110794Y-69740915D01*
X219112241Y-69740479D01*
X219148070Y-69721428D01*
X219184000Y-69702645D01*
X219185176Y-69701699D01*
X219186512Y-69700989D01*
X219217932Y-69675362D01*
X219249555Y-69649938D01*
X219250528Y-69648778D01*
X219251697Y-69647825D01*
X219277508Y-69616624D01*
X219303624Y-69585501D01*
X219304353Y-69584174D01*
X219305315Y-69583012D01*
X219324598Y-69547348D01*
X219344147Y-69511789D01*
X219344603Y-69510349D01*
X219345323Y-69509019D01*
X219357317Y-69470272D01*
X219369582Y-69431610D01*
X219369750Y-69430107D01*
X219370197Y-69428665D01*
X219374430Y-69388381D01*
X219378958Y-69348018D01*
X219378978Y-69345110D01*
X219378989Y-69345009D01*
X219378979Y-69344906D01*
X219379000Y-69342000D01*
X219379000Y-65532000D01*
X219375037Y-65491587D01*
X219371366Y-65451239D01*
X219370939Y-65449790D01*
X219370792Y-65448285D01*
X219359064Y-65409441D01*
X219347616Y-65370545D01*
X219346915Y-65369205D01*
X219346479Y-65367759D01*
X219327428Y-65331929D01*
X219308645Y-65296000D01*
X219307699Y-65294823D01*
X219306989Y-65293488D01*
X219281362Y-65262067D01*
X219255938Y-65230445D01*
X219254778Y-65229471D01*
X219253825Y-65228303D01*
X219222624Y-65202491D01*
X219191501Y-65176376D01*
X219190174Y-65175646D01*
X219189012Y-65174685D01*
X219153348Y-65155401D01*
X219117789Y-65135853D01*
X219116349Y-65135396D01*
X219115019Y-65134677D01*
X219076272Y-65122682D01*
X219037610Y-65110418D01*
X219036107Y-65110249D01*
X219034665Y-65109803D01*
X218994381Y-65105569D01*
X218954018Y-65101042D01*
X218951110Y-65101021D01*
X218951009Y-65101011D01*
X218950906Y-65101020D01*
X218948000Y-65101000D01*
X216331000Y-65101000D01*
X216331000Y-47167000D01*
X217932000Y-47167000D01*
X217972412Y-47163037D01*
X218012761Y-47159366D01*
X218014209Y-47158939D01*
X218015715Y-47158792D01*
X218054558Y-47147064D01*
X218093455Y-47135616D01*
X218094794Y-47134915D01*
X218096241Y-47134479D01*
X218132070Y-47115428D01*
X218168000Y-47096645D01*
X218169176Y-47095699D01*
X218170512Y-47094989D01*
X218201932Y-47069362D01*
X218233555Y-47043938D01*
X218234528Y-47042778D01*
X218235697Y-47041825D01*
X218261508Y-47010624D01*
X218287624Y-46979501D01*
X218288353Y-46978174D01*
X218289315Y-46977012D01*
X218308598Y-46941348D01*
X218328147Y-46905789D01*
X218328603Y-46904349D01*
X218329323Y-46903019D01*
X218341317Y-46864272D01*
X218353582Y-46825610D01*
X218353750Y-46824107D01*
X218354197Y-46822665D01*
X218358430Y-46782381D01*
X218362958Y-46742018D01*
X218362978Y-46739110D01*
X218362989Y-46739009D01*
X218362979Y-46738906D01*
X218363000Y-46736000D01*
X218363000Y-45135000D01*
X233249000Y-45135000D01*
X233249000Y-46736000D01*
X233252962Y-46776412D01*
X233256634Y-46816761D01*
X233257060Y-46818209D01*
X233257208Y-46819715D01*
X233268935Y-46858558D01*
X233280384Y-46897455D01*
X233281084Y-46898794D01*
X233281521Y-46900241D01*
X233300571Y-46936070D01*
X233319355Y-46972000D01*
X233320300Y-46973176D01*
X233321011Y-46974512D01*
X233346637Y-47005932D01*
X233372062Y-47037555D01*
X233373221Y-47038528D01*
X233374175Y-47039697D01*
X233405375Y-47065508D01*
X233436499Y-47091624D01*
X233437825Y-47092353D01*
X233438988Y-47093315D01*
X233474651Y-47112598D01*
X233510211Y-47132147D01*
X233511650Y-47132603D01*
X233512981Y-47133323D01*
X233551727Y-47145317D01*
X233590390Y-47157582D01*
X233591892Y-47157750D01*
X233593335Y-47158197D01*
X233633618Y-47162430D01*
X233673982Y-47166958D01*
X233676889Y-47166978D01*
X233676991Y-47166989D01*
X233677093Y-47166979D01*
X233680000Y-47167000D01*
X235712000Y-47167000D01*
X235752412Y-47163037D01*
X235792761Y-47159366D01*
X235794209Y-47158939D01*
X235795715Y-47158792D01*
X235834558Y-47147064D01*
X235873455Y-47135616D01*
X235874794Y-47134915D01*
X235876241Y-47134479D01*
X235912070Y-47115428D01*
X235948000Y-47096645D01*
X235949176Y-47095699D01*
X235950512Y-47094989D01*
X235981932Y-47069362D01*
X236013555Y-47043938D01*
X236014528Y-47042778D01*
X236015697Y-47041825D01*
X236041508Y-47010624D01*
X236067624Y-46979501D01*
X236068353Y-46978174D01*
X236069315Y-46977012D01*
X236088598Y-46941348D01*
X236108147Y-46905789D01*
X236108603Y-46904349D01*
X236109323Y-46903019D01*
X236121317Y-46864272D01*
X236133582Y-46825610D01*
X236133750Y-46824107D01*
X236134197Y-46822665D01*
X236138430Y-46782381D01*
X236142958Y-46742018D01*
X236142978Y-46739110D01*
X236142989Y-46739009D01*
X236142979Y-46738906D01*
X236143000Y-46736000D01*
X236143000Y-45135000D01*
X240361000Y-45135000D01*
X240361000Y-45586180D01*
G36*
X240792000Y-77005580D02*
X240790200Y-77007380D01*
X240790200Y-76174522D01*
X240790200Y-76109478D01*
X240790200Y-75806300D01*
X240790200Y-75577700D01*
X240790200Y-75274522D01*
X240790200Y-75209478D01*
X240777511Y-75145684D01*
X240752620Y-75085592D01*
X240716483Y-75031510D01*
X240670490Y-74985517D01*
X240616408Y-74949381D01*
X240556316Y-74924489D01*
X240492522Y-74911800D01*
X239974300Y-74911800D01*
X239891750Y-74994350D01*
X239891750Y-75660250D01*
X240707650Y-75660250D01*
X240790200Y-75577700D01*
X240790200Y-75806300D01*
X240707650Y-75723750D01*
X239891750Y-75723750D01*
X239891750Y-76389650D01*
X239974300Y-76472200D01*
X240492522Y-76472200D01*
X240556316Y-76459511D01*
X240616408Y-76434619D01*
X240670490Y-76398483D01*
X240716483Y-76352490D01*
X240752620Y-76298408D01*
X240777511Y-76238316D01*
X240790200Y-76174522D01*
X240790200Y-77007380D01*
X240214350Y-77583230D01*
X240184583Y-77619468D01*
X240154402Y-77655437D01*
X240153114Y-77657779D01*
X240151420Y-77659842D01*
X240129249Y-77701189D01*
X240106639Y-77742318D01*
X240105831Y-77744863D01*
X240104569Y-77747218D01*
X240090844Y-77792110D01*
X240076661Y-77836821D01*
X240076363Y-77839474D01*
X240075582Y-77842030D01*
X240070836Y-77888752D01*
X240065610Y-77935347D01*
X240065573Y-77940566D01*
X240065563Y-77940667D01*
X240065571Y-77940760D01*
X240065560Y-77942440D01*
X240065560Y-78021180D01*
X239885795Y-78021180D01*
X239812187Y-78035822D01*
X239742849Y-78064542D01*
X239732820Y-78071243D01*
X239732820Y-77868205D01*
X239732820Y-77793155D01*
X239732820Y-77180440D01*
X239732820Y-76492675D01*
X239728747Y-76472200D01*
X239745700Y-76472200D01*
X239828250Y-76389650D01*
X239828250Y-75723750D01*
X239828250Y-75660250D01*
X239828250Y-74994350D01*
X239745700Y-74911800D01*
X239227478Y-74911800D01*
X239163684Y-74924489D01*
X239103592Y-74949381D01*
X239049510Y-74985517D01*
X239003517Y-75031510D01*
X238967380Y-75085592D01*
X238942489Y-75145684D01*
X238929800Y-75209478D01*
X238929800Y-75274522D01*
X238929800Y-75577700D01*
X239012350Y-75660250D01*
X239828250Y-75660250D01*
X239828250Y-75723750D01*
X239012350Y-75723750D01*
X238929800Y-75806300D01*
X238929800Y-76109478D01*
X238929800Y-76174522D01*
X238932167Y-76186424D01*
X238917349Y-76192562D01*
X238901112Y-76203411D01*
X238883962Y-76200000D01*
X238838740Y-76200000D01*
X238756190Y-76282550D01*
X238756190Y-76359366D01*
X238731462Y-76419066D01*
X238724439Y-76454367D01*
X238717418Y-76419067D01*
X238692690Y-76359366D01*
X238692690Y-76282550D01*
X238632482Y-76222342D01*
X238641000Y-76179525D01*
X238641000Y-76104475D01*
X238641000Y-75204475D01*
X238626358Y-75130867D01*
X238597638Y-75061529D01*
X238564759Y-75012323D01*
X238789064Y-74942890D01*
X239227239Y-74705969D01*
X239611052Y-74388452D01*
X239925882Y-74002432D01*
X240159737Y-73562614D01*
X240303711Y-73085748D01*
X240352320Y-72590000D01*
X240351325Y-72518735D01*
X240299416Y-72107836D01*
X240792000Y-72600420D01*
X240792000Y-77005580D01*
X240792000Y-77005580D01*
G37*
X240792000Y-77005580D02*
X240790200Y-77007380D01*
X240790200Y-76174522D01*
X240790200Y-76109478D01*
X240790200Y-75806300D01*
X240790200Y-75577700D01*
X240790200Y-75274522D01*
X240790200Y-75209478D01*
X240777511Y-75145684D01*
X240752620Y-75085592D01*
X240716483Y-75031510D01*
X240670490Y-74985517D01*
X240616408Y-74949381D01*
X240556316Y-74924489D01*
X240492522Y-74911800D01*
X239974300Y-74911800D01*
X239891750Y-74994350D01*
X239891750Y-75660250D01*
X240707650Y-75660250D01*
X240790200Y-75577700D01*
X240790200Y-75806300D01*
X240707650Y-75723750D01*
X239891750Y-75723750D01*
X239891750Y-76389650D01*
X239974300Y-76472200D01*
X240492522Y-76472200D01*
X240556316Y-76459511D01*
X240616408Y-76434619D01*
X240670490Y-76398483D01*
X240716483Y-76352490D01*
X240752620Y-76298408D01*
X240777511Y-76238316D01*
X240790200Y-76174522D01*
X240790200Y-77007380D01*
X240214350Y-77583230D01*
X240184583Y-77619468D01*
X240154402Y-77655437D01*
X240153114Y-77657779D01*
X240151420Y-77659842D01*
X240129249Y-77701189D01*
X240106639Y-77742318D01*
X240105831Y-77744863D01*
X240104569Y-77747218D01*
X240090844Y-77792110D01*
X240076661Y-77836821D01*
X240076363Y-77839474D01*
X240075582Y-77842030D01*
X240070836Y-77888752D01*
X240065610Y-77935347D01*
X240065573Y-77940566D01*
X240065563Y-77940667D01*
X240065571Y-77940760D01*
X240065560Y-77942440D01*
X240065560Y-78021180D01*
X239885795Y-78021180D01*
X239812187Y-78035822D01*
X239742849Y-78064542D01*
X239732820Y-78071243D01*
X239732820Y-77868205D01*
X239732820Y-77793155D01*
X239732820Y-77180440D01*
X239732820Y-76492675D01*
X239728747Y-76472200D01*
X239745700Y-76472200D01*
X239828250Y-76389650D01*
X239828250Y-75723750D01*
X239828250Y-75660250D01*
X239828250Y-74994350D01*
X239745700Y-74911800D01*
X239227478Y-74911800D01*
X239163684Y-74924489D01*
X239103592Y-74949381D01*
X239049510Y-74985517D01*
X239003517Y-75031510D01*
X238967380Y-75085592D01*
X238942489Y-75145684D01*
X238929800Y-75209478D01*
X238929800Y-75274522D01*
X238929800Y-75577700D01*
X239012350Y-75660250D01*
X239828250Y-75660250D01*
X239828250Y-75723750D01*
X239012350Y-75723750D01*
X238929800Y-75806300D01*
X238929800Y-76109478D01*
X238929800Y-76174522D01*
X238932167Y-76186424D01*
X238917349Y-76192562D01*
X238901112Y-76203411D01*
X238883962Y-76200000D01*
X238838740Y-76200000D01*
X238756190Y-76282550D01*
X238756190Y-76359366D01*
X238731462Y-76419066D01*
X238724439Y-76454367D01*
X238717418Y-76419067D01*
X238692690Y-76359366D01*
X238692690Y-76282550D01*
X238632482Y-76222342D01*
X238641000Y-76179525D01*
X238641000Y-76104475D01*
X238641000Y-75204475D01*
X238626358Y-75130867D01*
X238597638Y-75061529D01*
X238564759Y-75012323D01*
X238789064Y-74942890D01*
X239227239Y-74705969D01*
X239611052Y-74388452D01*
X239925882Y-74002432D01*
X240159737Y-73562614D01*
X240303711Y-73085748D01*
X240352320Y-72590000D01*
X240351325Y-72518735D01*
X240299416Y-72107836D01*
X240792000Y-72600420D01*
X240792000Y-77005580D01*
G36*
X242393000Y-87274255D02*
X241751200Y-88557855D01*
X241751200Y-88196522D01*
X241751200Y-87678300D01*
X241668650Y-87595750D01*
X241077750Y-87595750D01*
X241077750Y-88411650D01*
X241160300Y-88494200D01*
X241388478Y-88494200D01*
X241453522Y-88494200D01*
X241517316Y-88481511D01*
X241577408Y-88456620D01*
X241631490Y-88420483D01*
X241677483Y-88374490D01*
X241713619Y-88320408D01*
X241738511Y-88260316D01*
X241751200Y-88196522D01*
X241751200Y-88557855D01*
X240607000Y-90846255D01*
X240607000Y-90816475D01*
X240607000Y-89616475D01*
X240592358Y-89542867D01*
X240563638Y-89473529D01*
X240521942Y-89411127D01*
X240468874Y-89358058D01*
X240406471Y-89316362D01*
X240337134Y-89287642D01*
X240263525Y-89273000D01*
X240188475Y-89273000D01*
X239288475Y-89273000D01*
X239214867Y-89287642D01*
X239145529Y-89316362D01*
X239083127Y-89358058D01*
X239030058Y-89411126D01*
X239013999Y-89435159D01*
X238997942Y-89411127D01*
X238944874Y-89358058D01*
X238882471Y-89316362D01*
X238813134Y-89287642D01*
X238739525Y-89273000D01*
X238664475Y-89273000D01*
X237764475Y-89273000D01*
X237690867Y-89287642D01*
X237621529Y-89316362D01*
X237559127Y-89358058D01*
X237506058Y-89411126D01*
X237489999Y-89435159D01*
X237473942Y-89411127D01*
X237420874Y-89358058D01*
X237358471Y-89316362D01*
X237289134Y-89287642D01*
X237215525Y-89273000D01*
X237140475Y-89273000D01*
X236240475Y-89273000D01*
X236166867Y-89287642D01*
X236097529Y-89316362D01*
X236035127Y-89358058D01*
X235982058Y-89411126D01*
X235965999Y-89435159D01*
X235949942Y-89411127D01*
X235896874Y-89358058D01*
X235834471Y-89316362D01*
X235765134Y-89287642D01*
X235691525Y-89273000D01*
X235616475Y-89273000D01*
X234716475Y-89273000D01*
X234642867Y-89287642D01*
X234573529Y-89316362D01*
X234511127Y-89358058D01*
X234458058Y-89411126D01*
X234416362Y-89473529D01*
X234387642Y-89542866D01*
X234373000Y-89616475D01*
X234373000Y-89691525D01*
X234373000Y-89746000D01*
X233974420Y-89746000D01*
X232358944Y-88130524D01*
X232425133Y-88117358D01*
X232494471Y-88088638D01*
X232556873Y-88046942D01*
X232609942Y-87993874D01*
X232651638Y-87931471D01*
X232680358Y-87862134D01*
X232689897Y-87814176D01*
X232696489Y-87847316D01*
X232721380Y-87907408D01*
X232757517Y-87961490D01*
X232803510Y-88007483D01*
X232857592Y-88043619D01*
X232917684Y-88068511D01*
X232981478Y-88081200D01*
X233499700Y-88081200D01*
X233582250Y-87998650D01*
X233582250Y-87407750D01*
X233562250Y-87407750D01*
X233562250Y-87344250D01*
X233582250Y-87344250D01*
X233582250Y-86753350D01*
X233499700Y-86670800D01*
X232981478Y-86670800D01*
X232917684Y-86683489D01*
X232857592Y-86708381D01*
X232803510Y-86744517D01*
X232757517Y-86790510D01*
X232721380Y-86844592D01*
X232696489Y-86904684D01*
X232689897Y-86937823D01*
X232680358Y-86889867D01*
X232651638Y-86820529D01*
X232609942Y-86758127D01*
X232556874Y-86705058D01*
X232540381Y-86694038D01*
X233215180Y-86019240D01*
X233215180Y-86067325D01*
X233229822Y-86140933D01*
X233258542Y-86210271D01*
X233300238Y-86272673D01*
X233353306Y-86325742D01*
X233415709Y-86367438D01*
X233485046Y-86396158D01*
X233558655Y-86410800D01*
X233633705Y-86410800D01*
X233887705Y-86410800D01*
X233961313Y-86396158D01*
X234030651Y-86367438D01*
X234046887Y-86356588D01*
X234064038Y-86360000D01*
X234109260Y-86360000D01*
X234191810Y-86277450D01*
X234191810Y-86200633D01*
X234216538Y-86140934D01*
X234223560Y-86105632D01*
X234230582Y-86140933D01*
X234255310Y-86200633D01*
X234255310Y-86277450D01*
X234337860Y-86360000D01*
X234383082Y-86360000D01*
X234400231Y-86356588D01*
X234416469Y-86367438D01*
X234485806Y-86396158D01*
X234559415Y-86410800D01*
X234634465Y-86410800D01*
X234888465Y-86410800D01*
X234962073Y-86396158D01*
X234974129Y-86391164D01*
X234986186Y-86396158D01*
X235059795Y-86410800D01*
X235069779Y-86410800D01*
X234844790Y-86635790D01*
X234815023Y-86672028D01*
X234784842Y-86707997D01*
X234783554Y-86710339D01*
X234781860Y-86712402D01*
X234759689Y-86753749D01*
X234737079Y-86794878D01*
X234736271Y-86797423D01*
X234735009Y-86799778D01*
X234721284Y-86844670D01*
X234707101Y-86889381D01*
X234706803Y-86892034D01*
X234706022Y-86894590D01*
X234701276Y-86941312D01*
X234696050Y-86987907D01*
X234696013Y-86993126D01*
X234696003Y-86993227D01*
X234696011Y-86993320D01*
X234696000Y-86995000D01*
X234696000Y-87077072D01*
X234642867Y-87087642D01*
X234573529Y-87116362D01*
X234544200Y-87135959D01*
X234544200Y-87033522D01*
X234544200Y-86968478D01*
X234531511Y-86904684D01*
X234506620Y-86844592D01*
X234470483Y-86790510D01*
X234424490Y-86744517D01*
X234370408Y-86708381D01*
X234310316Y-86683489D01*
X234246522Y-86670800D01*
X233728300Y-86670800D01*
X233645750Y-86753350D01*
X233645750Y-87344250D01*
X233665750Y-87344250D01*
X233665750Y-87407750D01*
X233645750Y-87407750D01*
X233645750Y-87998650D01*
X233728300Y-88081200D01*
X234246522Y-88081200D01*
X234310316Y-88068511D01*
X234370408Y-88043619D01*
X234373000Y-88041887D01*
X234373000Y-88691525D01*
X234387642Y-88765133D01*
X234416362Y-88834471D01*
X234458058Y-88896873D01*
X234511126Y-88949942D01*
X234573529Y-88991638D01*
X234642866Y-89020358D01*
X234716475Y-89035000D01*
X234791525Y-89035000D01*
X235691525Y-89035000D01*
X235765133Y-89020358D01*
X235834471Y-88991638D01*
X235896873Y-88949942D01*
X235949942Y-88896874D01*
X235966000Y-88872840D01*
X235982058Y-88896873D01*
X236035126Y-88949942D01*
X236097529Y-88991638D01*
X236166866Y-89020358D01*
X236240475Y-89035000D01*
X236315525Y-89035000D01*
X237215525Y-89035000D01*
X237289133Y-89020358D01*
X237358471Y-88991638D01*
X237420873Y-88949942D01*
X237473942Y-88896874D01*
X237490000Y-88872840D01*
X237506058Y-88896873D01*
X237559126Y-88949942D01*
X237621529Y-88991638D01*
X237690866Y-89020358D01*
X237764475Y-89035000D01*
X237839525Y-89035000D01*
X238739525Y-89035000D01*
X238813133Y-89020358D01*
X238882471Y-88991638D01*
X238944873Y-88949942D01*
X238997942Y-88896874D01*
X239014000Y-88872840D01*
X239030058Y-88896873D01*
X239083126Y-88949942D01*
X239145529Y-88991638D01*
X239214866Y-89020358D01*
X239288475Y-89035000D01*
X239363525Y-89035000D01*
X240263525Y-89035000D01*
X240337133Y-89020358D01*
X240406471Y-88991638D01*
X240468873Y-88949942D01*
X240521942Y-88896874D01*
X240563638Y-88834471D01*
X240592358Y-88765134D01*
X240607000Y-88691525D01*
X240607000Y-88616475D01*
X240607000Y-88487938D01*
X240638478Y-88494200D01*
X240703522Y-88494200D01*
X240931700Y-88494200D01*
X241014250Y-88411650D01*
X241014250Y-87595750D01*
X240994250Y-87595750D01*
X240994250Y-87532250D01*
X241014250Y-87532250D01*
X241014250Y-87512250D01*
X241077750Y-87512250D01*
X241077750Y-87532250D01*
X241668650Y-87532250D01*
X241751200Y-87449700D01*
X241751200Y-86931478D01*
X241738511Y-86867684D01*
X241713619Y-86807592D01*
X241677483Y-86753510D01*
X241631490Y-86707517D01*
X241577408Y-86671380D01*
X241517316Y-86646489D01*
X241484176Y-86639897D01*
X241532133Y-86630358D01*
X241601471Y-86601638D01*
X241663873Y-86559942D01*
X241716942Y-86506874D01*
X241758638Y-86444471D01*
X241787358Y-86375134D01*
X241802000Y-86301525D01*
X241802000Y-86226475D01*
X241802000Y-85026475D01*
X241787358Y-84952867D01*
X241758638Y-84883529D01*
X241716942Y-84821127D01*
X241663874Y-84768058D01*
X241601471Y-84726362D01*
X241532134Y-84697642D01*
X241458525Y-84683000D01*
X241383475Y-84683000D01*
X241081560Y-84683000D01*
X241081560Y-84538820D01*
X241261325Y-84538820D01*
X241334933Y-84524178D01*
X241404271Y-84495458D01*
X241466673Y-84453762D01*
X241519742Y-84400694D01*
X241561438Y-84338291D01*
X241590158Y-84268954D01*
X241604800Y-84195345D01*
X241604800Y-84120295D01*
X241604800Y-83866295D01*
X241590158Y-83792687D01*
X241561438Y-83723349D01*
X241550588Y-83707112D01*
X241554000Y-83689962D01*
X241554000Y-83644740D01*
X241471450Y-83562190D01*
X241394633Y-83562190D01*
X241334934Y-83537462D01*
X241299632Y-83530439D01*
X241334933Y-83523418D01*
X241394633Y-83498690D01*
X241471450Y-83498690D01*
X241554000Y-83416140D01*
X241554000Y-83370918D01*
X241550588Y-83353768D01*
X241561438Y-83337531D01*
X241590158Y-83268194D01*
X241604800Y-83194585D01*
X241604800Y-83119535D01*
X241604800Y-82865535D01*
X241590158Y-82791927D01*
X241585164Y-82779870D01*
X241590158Y-82767814D01*
X241604800Y-82694205D01*
X241604800Y-82619155D01*
X241604800Y-82365155D01*
X241590158Y-82291547D01*
X241585164Y-82279490D01*
X241590158Y-82267434D01*
X241604800Y-82193825D01*
X241604800Y-82118775D01*
X241604800Y-81864775D01*
X241590158Y-81791167D01*
X241585164Y-81779110D01*
X241590158Y-81767054D01*
X241604800Y-81693445D01*
X241604800Y-81618395D01*
X241604800Y-81364395D01*
X241590158Y-81290787D01*
X241585690Y-81280000D01*
X241590158Y-81269214D01*
X241603021Y-81204546D01*
X241698390Y-81246212D01*
X241844340Y-81278301D01*
X241993743Y-81281430D01*
X242140908Y-81255481D01*
X242280231Y-81201441D01*
X242393000Y-81129876D01*
X242393000Y-87274255D01*
X242393000Y-87274255D01*
G37*
X242393000Y-87274255D02*
X241751200Y-88557855D01*
X241751200Y-88196522D01*
X241751200Y-87678300D01*
X241668650Y-87595750D01*
X241077750Y-87595750D01*
X241077750Y-88411650D01*
X241160300Y-88494200D01*
X241388478Y-88494200D01*
X241453522Y-88494200D01*
X241517316Y-88481511D01*
X241577408Y-88456620D01*
X241631490Y-88420483D01*
X241677483Y-88374490D01*
X241713619Y-88320408D01*
X241738511Y-88260316D01*
X241751200Y-88196522D01*
X241751200Y-88557855D01*
X240607000Y-90846255D01*
X240607000Y-90816475D01*
X240607000Y-89616475D01*
X240592358Y-89542867D01*
X240563638Y-89473529D01*
X240521942Y-89411127D01*
X240468874Y-89358058D01*
X240406471Y-89316362D01*
X240337134Y-89287642D01*
X240263525Y-89273000D01*
X240188475Y-89273000D01*
X239288475Y-89273000D01*
X239214867Y-89287642D01*
X239145529Y-89316362D01*
X239083127Y-89358058D01*
X239030058Y-89411126D01*
X239013999Y-89435159D01*
X238997942Y-89411127D01*
X238944874Y-89358058D01*
X238882471Y-89316362D01*
X238813134Y-89287642D01*
X238739525Y-89273000D01*
X238664475Y-89273000D01*
X237764475Y-89273000D01*
X237690867Y-89287642D01*
X237621529Y-89316362D01*
X237559127Y-89358058D01*
X237506058Y-89411126D01*
X237489999Y-89435159D01*
X237473942Y-89411127D01*
X237420874Y-89358058D01*
X237358471Y-89316362D01*
X237289134Y-89287642D01*
X237215525Y-89273000D01*
X237140475Y-89273000D01*
X236240475Y-89273000D01*
X236166867Y-89287642D01*
X236097529Y-89316362D01*
X236035127Y-89358058D01*
X235982058Y-89411126D01*
X235965999Y-89435159D01*
X235949942Y-89411127D01*
X235896874Y-89358058D01*
X235834471Y-89316362D01*
X235765134Y-89287642D01*
X235691525Y-89273000D01*
X235616475Y-89273000D01*
X234716475Y-89273000D01*
X234642867Y-89287642D01*
X234573529Y-89316362D01*
X234511127Y-89358058D01*
X234458058Y-89411126D01*
X234416362Y-89473529D01*
X234387642Y-89542866D01*
X234373000Y-89616475D01*
X234373000Y-89691525D01*
X234373000Y-89746000D01*
X233974420Y-89746000D01*
X232358944Y-88130524D01*
X232425133Y-88117358D01*
X232494471Y-88088638D01*
X232556873Y-88046942D01*
X232609942Y-87993874D01*
X232651638Y-87931471D01*
X232680358Y-87862134D01*
X232689897Y-87814176D01*
X232696489Y-87847316D01*
X232721380Y-87907408D01*
X232757517Y-87961490D01*
X232803510Y-88007483D01*
X232857592Y-88043619D01*
X232917684Y-88068511D01*
X232981478Y-88081200D01*
X233499700Y-88081200D01*
X233582250Y-87998650D01*
X233582250Y-87407750D01*
X233562250Y-87407750D01*
X233562250Y-87344250D01*
X233582250Y-87344250D01*
X233582250Y-86753350D01*
X233499700Y-86670800D01*
X232981478Y-86670800D01*
X232917684Y-86683489D01*
X232857592Y-86708381D01*
X232803510Y-86744517D01*
X232757517Y-86790510D01*
X232721380Y-86844592D01*
X232696489Y-86904684D01*
X232689897Y-86937823D01*
X232680358Y-86889867D01*
X232651638Y-86820529D01*
X232609942Y-86758127D01*
X232556874Y-86705058D01*
X232540381Y-86694038D01*
X233215180Y-86019240D01*
X233215180Y-86067325D01*
X233229822Y-86140933D01*
X233258542Y-86210271D01*
X233300238Y-86272673D01*
X233353306Y-86325742D01*
X233415709Y-86367438D01*
X233485046Y-86396158D01*
X233558655Y-86410800D01*
X233633705Y-86410800D01*
X233887705Y-86410800D01*
X233961313Y-86396158D01*
X234030651Y-86367438D01*
X234046887Y-86356588D01*
X234064038Y-86360000D01*
X234109260Y-86360000D01*
X234191810Y-86277450D01*
X234191810Y-86200633D01*
X234216538Y-86140934D01*
X234223560Y-86105632D01*
X234230582Y-86140933D01*
X234255310Y-86200633D01*
X234255310Y-86277450D01*
X234337860Y-86360000D01*
X234383082Y-86360000D01*
X234400231Y-86356588D01*
X234416469Y-86367438D01*
X234485806Y-86396158D01*
X234559415Y-86410800D01*
X234634465Y-86410800D01*
X234888465Y-86410800D01*
X234962073Y-86396158D01*
X234974129Y-86391164D01*
X234986186Y-86396158D01*
X235059795Y-86410800D01*
X235069779Y-86410800D01*
X234844790Y-86635790D01*
X234815023Y-86672028D01*
X234784842Y-86707997D01*
X234783554Y-86710339D01*
X234781860Y-86712402D01*
X234759689Y-86753749D01*
X234737079Y-86794878D01*
X234736271Y-86797423D01*
X234735009Y-86799778D01*
X234721284Y-86844670D01*
X234707101Y-86889381D01*
X234706803Y-86892034D01*
X234706022Y-86894590D01*
X234701276Y-86941312D01*
X234696050Y-86987907D01*
X234696013Y-86993126D01*
X234696003Y-86993227D01*
X234696011Y-86993320D01*
X234696000Y-86995000D01*
X234696000Y-87077072D01*
X234642867Y-87087642D01*
X234573529Y-87116362D01*
X234544200Y-87135959D01*
X234544200Y-87033522D01*
X234544200Y-86968478D01*
X234531511Y-86904684D01*
X234506620Y-86844592D01*
X234470483Y-86790510D01*
X234424490Y-86744517D01*
X234370408Y-86708381D01*
X234310316Y-86683489D01*
X234246522Y-86670800D01*
X233728300Y-86670800D01*
X233645750Y-86753350D01*
X233645750Y-87344250D01*
X233665750Y-87344250D01*
X233665750Y-87407750D01*
X233645750Y-87407750D01*
X233645750Y-87998650D01*
X233728300Y-88081200D01*
X234246522Y-88081200D01*
X234310316Y-88068511D01*
X234370408Y-88043619D01*
X234373000Y-88041887D01*
X234373000Y-88691525D01*
X234387642Y-88765133D01*
X234416362Y-88834471D01*
X234458058Y-88896873D01*
X234511126Y-88949942D01*
X234573529Y-88991638D01*
X234642866Y-89020358D01*
X234716475Y-89035000D01*
X234791525Y-89035000D01*
X235691525Y-89035000D01*
X235765133Y-89020358D01*
X235834471Y-88991638D01*
X235896873Y-88949942D01*
X235949942Y-88896874D01*
X235966000Y-88872840D01*
X235982058Y-88896873D01*
X236035126Y-88949942D01*
X236097529Y-88991638D01*
X236166866Y-89020358D01*
X236240475Y-89035000D01*
X236315525Y-89035000D01*
X237215525Y-89035000D01*
X237289133Y-89020358D01*
X237358471Y-88991638D01*
X237420873Y-88949942D01*
X237473942Y-88896874D01*
X237490000Y-88872840D01*
X237506058Y-88896873D01*
X237559126Y-88949942D01*
X237621529Y-88991638D01*
X237690866Y-89020358D01*
X237764475Y-89035000D01*
X237839525Y-89035000D01*
X238739525Y-89035000D01*
X238813133Y-89020358D01*
X238882471Y-88991638D01*
X238944873Y-88949942D01*
X238997942Y-88896874D01*
X239014000Y-88872840D01*
X239030058Y-88896873D01*
X239083126Y-88949942D01*
X239145529Y-88991638D01*
X239214866Y-89020358D01*
X239288475Y-89035000D01*
X239363525Y-89035000D01*
X240263525Y-89035000D01*
X240337133Y-89020358D01*
X240406471Y-88991638D01*
X240468873Y-88949942D01*
X240521942Y-88896874D01*
X240563638Y-88834471D01*
X240592358Y-88765134D01*
X240607000Y-88691525D01*
X240607000Y-88616475D01*
X240607000Y-88487938D01*
X240638478Y-88494200D01*
X240703522Y-88494200D01*
X240931700Y-88494200D01*
X241014250Y-88411650D01*
X241014250Y-87595750D01*
X240994250Y-87595750D01*
X240994250Y-87532250D01*
X241014250Y-87532250D01*
X241014250Y-87512250D01*
X241077750Y-87512250D01*
X241077750Y-87532250D01*
X241668650Y-87532250D01*
X241751200Y-87449700D01*
X241751200Y-86931478D01*
X241738511Y-86867684D01*
X241713619Y-86807592D01*
X241677483Y-86753510D01*
X241631490Y-86707517D01*
X241577408Y-86671380D01*
X241517316Y-86646489D01*
X241484176Y-86639897D01*
X241532133Y-86630358D01*
X241601471Y-86601638D01*
X241663873Y-86559942D01*
X241716942Y-86506874D01*
X241758638Y-86444471D01*
X241787358Y-86375134D01*
X241802000Y-86301525D01*
X241802000Y-86226475D01*
X241802000Y-85026475D01*
X241787358Y-84952867D01*
X241758638Y-84883529D01*
X241716942Y-84821127D01*
X241663874Y-84768058D01*
X241601471Y-84726362D01*
X241532134Y-84697642D01*
X241458525Y-84683000D01*
X241383475Y-84683000D01*
X241081560Y-84683000D01*
X241081560Y-84538820D01*
X241261325Y-84538820D01*
X241334933Y-84524178D01*
X241404271Y-84495458D01*
X241466673Y-84453762D01*
X241519742Y-84400694D01*
X241561438Y-84338291D01*
X241590158Y-84268954D01*
X241604800Y-84195345D01*
X241604800Y-84120295D01*
X241604800Y-83866295D01*
X241590158Y-83792687D01*
X241561438Y-83723349D01*
X241550588Y-83707112D01*
X241554000Y-83689962D01*
X241554000Y-83644740D01*
X241471450Y-83562190D01*
X241394633Y-83562190D01*
X241334934Y-83537462D01*
X241299632Y-83530439D01*
X241334933Y-83523418D01*
X241394633Y-83498690D01*
X241471450Y-83498690D01*
X241554000Y-83416140D01*
X241554000Y-83370918D01*
X241550588Y-83353768D01*
X241561438Y-83337531D01*
X241590158Y-83268194D01*
X241604800Y-83194585D01*
X241604800Y-83119535D01*
X241604800Y-82865535D01*
X241590158Y-82791927D01*
X241585164Y-82779870D01*
X241590158Y-82767814D01*
X241604800Y-82694205D01*
X241604800Y-82619155D01*
X241604800Y-82365155D01*
X241590158Y-82291547D01*
X241585164Y-82279490D01*
X241590158Y-82267434D01*
X241604800Y-82193825D01*
X241604800Y-82118775D01*
X241604800Y-81864775D01*
X241590158Y-81791167D01*
X241585164Y-81779110D01*
X241590158Y-81767054D01*
X241604800Y-81693445D01*
X241604800Y-81618395D01*
X241604800Y-81364395D01*
X241590158Y-81290787D01*
X241585690Y-81280000D01*
X241590158Y-81269214D01*
X241603021Y-81204546D01*
X241698390Y-81246212D01*
X241844340Y-81278301D01*
X241993743Y-81281430D01*
X242140908Y-81255481D01*
X242280231Y-81201441D01*
X242393000Y-81129876D01*
X242393000Y-87274255D01*
M02*
