%FSLAX46Y46*%
G04 Gerber Fmt 4.6, Leading zero omitted, Abs format (unit mm)*
G04 Created by KiCad (PCBNEW (2014-08-29 BZR 5106)-product) date tor 20 aug 2015 00:56:35*
%MOMM*%
G01*
G04 APERTURE LIST*
%ADD10C,0.100000*%
%ADD11C,1.700000*%
%ADD12R,1.200000X0.750000*%
%ADD13R,0.750000X1.200000*%
%ADD14R,1.500000X1.300000*%
%ADD15R,0.900000X1.200000*%
%ADD16R,2.200000X0.700000*%
%ADD17R,0.600000X1.100000*%
%ADD18R,2.540000X2.540000*%
%ADD19R,0.914400X0.914400*%
%ADD20R,1.200000X0.900000*%
G04 APERTURE END LIST*
D10*
D11*
X229346760Y-47821640D03*
X231886760Y-47821640D03*
X226806760Y-47821640D03*
X220346760Y-54321640D03*
X220346760Y-56821640D03*
X220346760Y-59321640D03*
D12*
X238440000Y-86614000D03*
X236540000Y-86614000D03*
D13*
X234061000Y-82997000D03*
X234061000Y-84897000D03*
X232664000Y-84897000D03*
X232664000Y-82997000D03*
X222377000Y-56576000D03*
X222377000Y-54676000D03*
X221996000Y-84897000D03*
X221996000Y-82997000D03*
D12*
X225232000Y-86614000D03*
X223332000Y-86614000D03*
D14*
X229155000Y-81026000D03*
X231855000Y-81026000D03*
D15*
X226949000Y-84920000D03*
X226949000Y-82720000D03*
D16*
X224672000Y-55036000D03*
X224672000Y-56306000D03*
X224672000Y-57576000D03*
X224672000Y-58846000D03*
X224672000Y-60116000D03*
X224672000Y-61386000D03*
X224672000Y-62656000D03*
X224672000Y-63926000D03*
D17*
X225359000Y-82547000D03*
X223459000Y-82547000D03*
X225359000Y-85347000D03*
X224409000Y-82547000D03*
X223459000Y-85347000D03*
X229047000Y-85347000D03*
X230947000Y-85347000D03*
X229047000Y-82547000D03*
X229997000Y-85347000D03*
X230947000Y-82547000D03*
D18*
X219964000Y-89154000D03*
X229870000Y-89154000D03*
X223266000Y-89154000D03*
X235712000Y-89154000D03*
X239014000Y-89154000D03*
X226568000Y-89154000D03*
D19*
X225425000Y-52197000D03*
X225425000Y-50419000D03*
X227457000Y-51308000D03*
X232791000Y-52070000D03*
X232791000Y-50292000D03*
X234823000Y-51181000D03*
D20*
X236558000Y-48641000D03*
X234358000Y-48641000D03*
D15*
X231140000Y-50208000D03*
X231140000Y-52408000D03*
X229362000Y-52408000D03*
X229362000Y-50208000D03*
M02*
