M48
INCH,TZ
T1C0.012
T2C0.035
%
G90
G05
T1
X8.56Y-2.9
X8.56Y-3.455
X8.565Y-3.325
X8.575Y-2.995
X8.595Y-3.42
X8.605Y-2.175
X8.6226Y-3.1226
X8.6226Y-3.1974
X8.6974Y-3.1226
X8.6974Y-3.1974
X8.705Y-2.74
X8.745Y-3.44
X8.76Y-2.955
X8.775Y-2.68
X8.795Y-3.01
X8.815Y-2.86
X8.82Y-1.99
X8.825Y-2.585
X8.84Y-2.755
X8.84Y-3.09
X8.87Y-2.785
X8.87Y-3.11
X8.885Y-3.2
X8.91Y-3.245
X8.915Y-3.44
X8.955Y-2.135
X8.98Y-2.285
X8.98Y-3.38
X9.005Y-2.145
X9.04Y-2.2
X9.055Y-2.755
X9.065Y-3.43
X9.08Y-2.16
X9.115Y-2.585
X9.115Y-2.775
X9.115Y-3.385
X9.16Y-2.78
X9.165Y-3.055
X9.195Y-3.48
X9.22Y-3.095
X9.255Y-3.12
X9.255Y-3.26
X9.28Y-3.155
X9.34Y-3.22
X9.34Y-3.295
X9.345Y-3.095
X9.355Y-2.625
X9.39Y-3.095
X9.41Y-3.17
X9.415Y-3.22
X9.415Y-3.26
X9.46Y-3.025
X9.505Y-1.95
X9.505Y-2.045
X9.525Y-3.17
X9.53Y-3.23
T2
X8.6751Y-2.1386
X8.6751Y-2.2371
X8.6751Y-2.3355
X8.9294Y-1.8827
X9.0294Y-1.8827
X9.1294Y-1.8827
T0
M30
