M48
METRIC,TZ
T1C0.300
T2C0.900
%
G90
G05
T1
X217.424Y-73.66
X217.424Y-87.757
X217.551Y-84.455
X217.805Y-76.073
X218.313Y-86.868
X218.567Y-55.245
X219.014Y-79.314
X219.014Y-81.214
X220.914Y-79.314
X220.914Y-81.214
X221.107Y-69.596
X222.123Y-87.376
X222.504Y-75.057
X222.885Y-68.072
X223.393Y-76.454
X223.901Y-72.644
X224.028Y-50.546
X224.155Y-65.659
X224.536Y-69.977
X224.536Y-78.486
X225.298Y-70.739
X225.298Y-78.994
X225.679Y-81.28
X226.314Y-82.423
X226.441Y-87.376
X227.457Y-54.229
X228.092Y-58.039
X228.092Y-85.852
X228.727Y-54.483
X229.616Y-55.88
X229.997Y-69.977
X230.251Y-87.122
X230.632Y-54.864
X231.521Y-65.659
X231.521Y-70.485
X231.521Y-85.979
X232.664Y-70.612
X232.791Y-77.597
X233.553Y-88.392
X234.188Y-78.613
X235.077Y-79.248
X235.077Y-82.804
X235.712Y-80.137
X237.236Y-81.788
X237.236Y-83.693
X237.363Y-78.613
X237.617Y-66.675
X238.506Y-78.613
X239.014Y-80.518
X239.141Y-81.788
X239.141Y-82.804
X240.284Y-76.835
X241.427Y-49.53
X241.427Y-51.943
X241.935Y-80.518
X242.062Y-82.042
T2
X220.347Y-54.322
X220.347Y-56.822
X220.347Y-59.322
X226.807Y-47.822
X229.347Y-47.822
X231.887Y-47.822
T0
M30
