%FSLAX46Y46*%
G04 Gerber Fmt 4.6, Leading zero omitted, Abs format (unit mm)*
G04 Created by KiCad (PCBNEW (2014-08-29 BZR 5106)-product) date tor 20 aug 2015 00:56:35*
%MOMM*%
G01*
G04 APERTURE LIST*
%ADD10C,0.100000*%
%ADD11R,1.200000X0.900000*%
%ADD12C,1.700000*%
%ADD13R,0.750000X1.200000*%
%ADD14R,1.200000X0.750000*%
%ADD15R,1.198880X1.198880*%
%ADD16R,0.900000X1.200000*%
%ADD17R,1.300480X0.254000*%
%ADD18R,0.254000X1.300480*%
%ADD19R,0.492760X0.942340*%
%ADD20R,0.942340X0.492760*%
%ADD21R,2.042160X2.042160*%
%ADD22R,2.540000X2.032000*%
G04 APERTURE END LIST*
D10*
D11*
X237660000Y-75692000D03*
X239860000Y-75692000D03*
D12*
X229346760Y-47821640D03*
X231886760Y-47821640D03*
X226806760Y-47821640D03*
X220346760Y-54321640D03*
X220346760Y-56821640D03*
X220346760Y-59321640D03*
D13*
X229108000Y-82484000D03*
X229108000Y-80584000D03*
X241427000Y-85283000D03*
X241427000Y-87183000D03*
X232537000Y-89469000D03*
X232537000Y-87569000D03*
X227330000Y-81600000D03*
X227330000Y-83500000D03*
D14*
X217363000Y-85598000D03*
X219263000Y-85598000D03*
D15*
X232884980Y-67056000D03*
X234983020Y-67056000D03*
X228566980Y-67056000D03*
X230665020Y-67056000D03*
X224248980Y-67056000D03*
X226347020Y-67056000D03*
D11*
X232834000Y-68834000D03*
X235034000Y-68834000D03*
X221318000Y-75946000D03*
X219118000Y-75946000D03*
X228516000Y-68834000D03*
X230716000Y-68834000D03*
D16*
X239776000Y-90254000D03*
X239776000Y-88054000D03*
X238252000Y-90254000D03*
X238252000Y-88054000D03*
X236728000Y-90254000D03*
X236728000Y-88054000D03*
X235204000Y-90254000D03*
X235204000Y-88054000D03*
D11*
X224198000Y-68834000D03*
X226398000Y-68834000D03*
D17*
X232374440Y-82529680D03*
X232374440Y-82029300D03*
X232374440Y-81528920D03*
X232374440Y-81031080D03*
X232374440Y-80530700D03*
X232374440Y-84030820D03*
X232374440Y-83530440D03*
X232374440Y-83030060D03*
D18*
X233723180Y-77180440D03*
X234223560Y-77180440D03*
X234723940Y-77180440D03*
X235224320Y-77180440D03*
X235724700Y-77180440D03*
X236225080Y-77180440D03*
X236722920Y-77180440D03*
X237223300Y-77180440D03*
D17*
X240573560Y-78529180D03*
X240573560Y-79029560D03*
X240573560Y-79529940D03*
X240573560Y-80030320D03*
X240573560Y-80530700D03*
X240573560Y-81031080D03*
X240573560Y-81528920D03*
X240573560Y-82029300D03*
D18*
X239224820Y-85379560D03*
X238724440Y-85379560D03*
X238224060Y-85379560D03*
X237723680Y-85379560D03*
X237223300Y-85379560D03*
X236722920Y-85379560D03*
X236225080Y-85379560D03*
X235724700Y-85379560D03*
D17*
X232374440Y-80030320D03*
X232374440Y-79529940D03*
X232374440Y-79029560D03*
X232374440Y-78529180D03*
D18*
X237723680Y-77180440D03*
X238224060Y-77180440D03*
X238724440Y-77180440D03*
X239224820Y-77180440D03*
D17*
X240573560Y-82529680D03*
X240573560Y-83030060D03*
X240573560Y-83530440D03*
X240573560Y-84030820D03*
D18*
X235224320Y-85379560D03*
X234723940Y-85379560D03*
X234223560Y-85379560D03*
X233723180Y-85379560D03*
D19*
X221264480Y-83113880D03*
X220614240Y-83113880D03*
X219964000Y-83113880D03*
X219313760Y-83113880D03*
D20*
X217111580Y-82214720D03*
X217111580Y-81564480D03*
X217111580Y-80914240D03*
X217111580Y-80264000D03*
X217111580Y-79613760D03*
X217111580Y-78963520D03*
X217111580Y-78313280D03*
D19*
X221914720Y-83113880D03*
D21*
X219014040Y-81213960D03*
X220913960Y-81213960D03*
X220913960Y-79314040D03*
X219014040Y-79314040D03*
D19*
X217962480Y-77411580D03*
X218612720Y-77411580D03*
X219262960Y-77411580D03*
X219964000Y-77411580D03*
X220563440Y-77411580D03*
X221213680Y-77411580D03*
X221863920Y-77411580D03*
D20*
X222813880Y-78313280D03*
X222813880Y-78963520D03*
X222813880Y-79613760D03*
X222813880Y-80264000D03*
X222813880Y-80914240D03*
X222813880Y-81564480D03*
X222813880Y-82214720D03*
D19*
X218663520Y-83113880D03*
X218013280Y-83113880D03*
D22*
X238887000Y-46863000D03*
X238887000Y-49403000D03*
X238887000Y-51903000D03*
D11*
X223182000Y-88392000D03*
X225382000Y-88392000D03*
M02*
